<?xml version="1.0" encoding="utf-8"?>
<!-- Generator: Adobe Illustrator 21.1.0, SVG Export Plug-In . SVG Version: 6.00 Build 0)  -->
<svg version="1.1" id="Layer_1" xmlns="http://www.w3.org/2000/svg" xmlns:xlink="http://www.w3.org/1999/xlink" x="0px" y="0px"
	 viewBox="0 0 672 564" style="enable-background:new 0 0 672 564;" xml:space="preserve">
<style type="text/css">
	.st0{fill:#D95442;}
	.st1{fill:#AA2E1D;}
	.st2{fill:#B63625;}
	.st3{fill:#CF5241;}
	.st4{fill:#C54433;}
	.st5{fill:#B73928;}
	.st6{fill:#C14D3E;}
	.st7{fill:#F15641;}
	.st8{fill:#DF4632;}
	.st9{fill:#E94F3B;}
	.st10{fill:#E74D38;}
	.st11{fill:#C3301C;}
	.st12{fill:#CF3925;}
	.st13{fill:#D53F2B;}
	.st14{fill:#DA4632;}
	.st15{fill:#D63F2B;}
	.st16{fill:#FEFEFE;}
	.st17{fill:#F95B46;}
	.st18{fill:#F25641;}
	.st19{fill:#CE4A39;}
	.st20{fill:#B23626;}
	.st21{fill:#9B3224;}
	.st22{fill:#E6513D;}
	.st23{fill:#AF4435;}
	.st24{fill:#CE4836;}
	.st25{fill:#C64231;}
	.st26{fill:#A03E31;}
</style>
<g>
	<g>
		<path class="st0" d="M246.3,287.8c-17.8-33-0.9-74,22.7-93.8c14.9-12.5,31.7-21.3,51.5-21.9c12.8-0.4,26-0.7,37.6,6.7
			c6.3,4.8,13.8,7.6,19.9,12.7c2.6,2.1,6.9,3.1,5.3,8c-0.7,0.3-1.3,0.5-2.1,0.5c-9.6-5.6-17.9-13.3-28.8-16.6
			c-29.1-9.1-55.4-4.2-78.4,16.3c-4.9,4.4-9.2,9.3-13.1,14.6c-4.6,4.2-5.3,10.9-10,15c-5.9,4.4-4.4,11.5-6.5,17.3
			c-4.2,11.1-1.1,21.8,2,32.5C247.4,282,249.1,284.9,246.3,287.8z"/>
		<path class="st1" d="M354.3,373.9c-7.4,12-16.8,22.4-25.4,33.4c-2.7,3.5-4.6,2.9-7.2-0.5c-12.2-15.8-24.1-31.7-34.7-48.6
			c-3.3-6.3-7.6-11.9-11.5-17.8l0-0.1c-0.6-1.1-0.8-2.4,0.4-2.9c2-0.8,3.4,0.6,4.8,1.7c12.3,16.1,23.9,32.8,37.2,48.1
			c0.8,0.9,1.5,1.9,2.3,2.8c4.7,5.1,6.8,5.4,11.1,0.3c7-8.3,14.4-16.3,20.8-25c4.1-5.6,7.9-11.6,13-16.4c1.4-1,2.6-2.3,4.3-2.7
			c2.6-0.7,3.8,0.2,2.5,3c-3.4,4.8-6.9,9.6-10.3,14.4C358.8,366.9,356.3,370.3,354.3,373.9z"/>
		<path class="st2" d="M371.7,349.2c-3.1-4.9-3.7,1.9-5.9,1.3c-2-2.7,0.3-4.5,1.6-6.4c2.2-3.2,4.5-6.3,5.8-10
			c7.2-10.6,15.4-20.5,20.7-32.2c2-3.8,3.6-7.8,6-11.3c1.3-1.9,2-5.2,5.7-3.9c1.9,5.1-2.3,8.4-4,12.4c-2.3,5.7-5.8,10.8-8,16.6
			C387.2,327.4,380.1,338.7,371.7,349.2z"/>
		<path class="st3" d="M383.2,199.1c-5.5-9.2-15.2-12.5-23.8-17.4c-1.1-0.6-3-0.3-2.7-2.5c0-0.1,0.4-0.3,0.6-0.4
			c0.2-0.1,0.5-0.1,0.7-0.1c26.8,11.1,45.6,29.7,53.7,58.1c-0.5,0.5-1.1,0.7-1.8,0.6c-3.9-1.8-4.2-6.6-7.5-8.9
			C397.2,218,389.9,208.8,383.2,199.1z"/>
		<path class="st4" d="M246.3,287.8c0.1-7.1-4.1-13.2-4.8-20.1c-0.7-7.5-3.2-15.1,2.1-22.1c2.8,1.1,3,3.5,2.8,5.9
			c-0.5,7.7,0.8,15.2,3,22.5c0.4,6.8,5.8,12.2,5.6,19.2c-1.4,7.5,4.1,12.5,6.8,18.5c1.5,3.3,3.6,6.2,5.1,9.6c0.9,2,1.8,4.1-0.3,5.9
			C258.5,314.7,251.5,301.7,246.3,287.8z"/>
		<path class="st5" d="M266.6,327.2c-0.8-8.4-7.7-14-10.1-21.5c-1.3-3.9-6.8-6.9-2.8-12c1.9,1,2.9,2.8,4.1,4.5
			c5.6,12.2,13.8,22.8,20.6,34.3c0.6,2.6,3.6,4.7,1.5,7.8c-1.5,0.5-3.1-4.9-4.5,0.1C271.4,336.6,269.3,331.7,266.6,327.2z"/>
		<path class="st6" d="M410.6,237.1c0.4,0,0.8-0.1,1.1-0.2c0.9,1.9,1,3.8,0.7,5.8c0.8,4.2,2.3,8.3,2.2,12.7
			c0.6,11.3-2,21.9-6.5,32.1c-4.2,9.7-8.4,19.4-14.6,28.1c1-8.5,6.8-14.9,9.9-22.5c1-2.3,1.5-4.5,1.5-6.8c1.3-8.5,5.4-16.5,4-25.4
			c1.4-5.6,0-11.3,0-16.9C409,241.7,407.6,238.8,410.6,237.1z"/>
		<path class="st5" d="M275.4,340.4c5.2,5.1,9.5,10.7,11.5,17.8C282.1,352.9,278.1,347.1,275.4,340.4z"/>
		<path class="st3" d="M414.6,255.4c-1.4-4.1-2.8-8.3-2.2-12.7C414.8,246.7,415.6,250.9,414.6,255.4z"/>
		<path class="st2" d="M354.3,373.9c0.9-4.4,3.2-8,7.1-10.4C360.4,368,357.3,371,354.3,373.9z"/>
		<path class="st7" d="M259.5,213.7c20-27.7,46.2-40.4,80.8-35.2c16.3,2.5,29.1,10.8,41.4,20.7c9.1,7.1,14.9,16.4,17.8,27.5
			c1,3.7,3.5,8.7-1.6,10.9c-4.4,1.9-7-2.5-9-5.7c-4.3-6.9-10.4-12.1-16-17.8c-1.2-1.2-2.5-2.3-4.1-2.9c-1.9-0.9-4.1-1-6.1-1.4
			c-12.2-7.7-25.4-12.1-39.9-11.9c-1.2,0-2.3-0.5-3.3-1.2c-0.6-5.8,4-5,7.2-5.2c15.4-1,29.6,3.4,43.1,10.5c2.3,1.2,4.3,3,7.6,3.9
			c-11.1-16.2-27.3-21.8-45.2-24.5c-4.7-1.2-9.3-1.1-14-0.1c-12.2,1-22.7,6.3-32.8,12.7c-9.5,6.5-17.3,14.5-21.2,25.6
			c-0.7,1.9-2,4.5,0.3,5.9c1.9,1.1,3.4-1.2,4.9-2.2c2.4-1.6,4.2-3.9,6.5-5.7c2.2-1.7,4.2-4.2,7.5-2.2c0.2,0.5,0.5,1,0.2,1.4
			c-4.8,7.7-8,16.3-13.5,23.7c-0.9,0.3-1.9,0.5-2.7,1c-4,2.7-8.4,4.7-12.7,1.3c-4.4-3.5-3.5-8.9-2.2-13.4
			C254,223.9,256.3,218.5,259.5,213.7z"/>
		<path class="st8" d="M247.9,274.8c-3.4-7.6-4.2-15.5-3.1-23.6c0.3-2.1-0.5-3.8-1.3-5.5c-0.4-4.7,1.2-9,2.3-13.4
			c0.7-2.6,1.8-4.4,4.9-4c1.6,5.2-1,9.9-1.8,14.8c-1.2,7.2-0.3,13.9,2.8,20.4c1.3,2.6,3,5.3,6.3,5.3c3.8-0.1,3.7-3.7,4.8-6.3
			c1.3-3.1-0.1-8.3,5.9-7.8c2.3,7.3,4,14.8,4.7,22.5c-2.3,3.8-0.2,7.5,0.4,11.2c0.5,3.6,1.3,7.6-2.4,9.9c-3.5,2.1-6.5-0.4-9.3-2.2
			C254.2,291.1,251.1,282.9,247.9,274.8z"/>
		<path class="st9" d="M368.7,209.3c8.1,3.8,13,11.1,18.8,17.4c1.6,1.8,2.5,4.2,4.1,6c1.7,1.8,3.2,5.2,6.3,3.6
			c2.6-1.3,1.1-4.2,0.7-6.5c-2.2-12.1-8.6-21.8-16.8-30.6c0.5,0,1,0,1.5,0c9.8,7.6,15.1,18.3,20.4,29.1c6.5,10.4,5.7,21.6,3.9,32.9
			c-0.4,2.1-1.3,4.1-2.5,6c-1.4,2.1-3,4.1-5.7,3.9c-3.2-0.2-4.3-2.8-5-5.4c-1.9-7-2.1-14.3-4.6-21.2c-3.6-11.2-9.1-21.2-18.1-29.1
			C369.9,213.9,367.7,212.2,368.7,209.3z"/>
		<path class="st10" d="M268.1,254.4c-4.3,2.3-2.5,6.9-3.8,10.4c-1.2,3-1.6,6.5-5.3,6.8c-3.2,0.3-6-1.8-7.7-4.6
			c-4-6.5-5.9-13.8-4.7-21.3c0.9-5.8,1.7-11.8,4.2-17.4c3-4.8,3.9-10.8,8.7-14.6c-1.8,6.9-6.1,13.1-5.8,20.6c0.1,3-1.2,6.8,2.8,8.1
			c3.3,1.1,6.6,0.8,9.3-2.1c0.8-0.9,2.7-5.2,4-0.1C271.1,245.1,271.1,250,268.1,254.4z"/>
		<path class="st11" d="M279.9,340.2c-1-2.4-1.9-4.9-2.9-7.3c3.6-0.7,5.2,2,7,4.1c7.6,8.9,16.6,14,29,13c10.1-0.8,20.3-0.5,30.4-0.1
			c7.5,0.3,13.5-2.2,19.1-7c3.7-3.1,6.3-8.1,12-8.6c-0.7,6.5-7.2,9.9-8.7,16c-7.2,9-14.3,18-21.5,27c-3.6,4.5-7.2,9-11,13.4
			c-5.9,7-9.3,7.1-15,0c-9.5-11.8-18.8-23.8-28-35.8C286.6,350.3,283.3,345.2,279.9,340.2z"/>
		<path class="st12" d="M374.5,334.4c-1.8,1.9-3.7,3.7-5.4,5.6c-9.2,10.1-20.4,13.4-33.9,12c-8.9-0.9-17.9-0.8-26.8,0
			c-11.4,0.9-18.4-5.9-25.3-13c-2-2-3.5-4.6-6.1-6.1c-7.1-11.4-16-21.8-20.4-34.9c3.1-0.7,4.2,1.9,5.5,3.7c1.8,2.3,3.6,4.6,5.1,7
			c6.9,10.9,17,12,29.3,9.9c-6.4-7.5-13.1-13.9-17.9-21.6c-1.6-2.5-4.9-5.5-0.3-8.5c4.4,0.6,5.5,4.5,7.5,7.5
			c9.2,14.1,23.1,20.3,39.1,21.7c18.3,1.6,34.4-3.6,47-17.6c1.7-1.9,3.5-4.1,6.6-4c2.5,2.5,0.4,4.4-1,6.3c-3.6,4.9-7.5,9.5-12.5,13
			c-1.3,0.9-3.3,2.1-2.7,3.9c0.7,2.5,3.3,1.5,5,1.5c8.5,0.1,13.5-5.5,18.5-11.3c2.5-2.9,3.8-7.6,9-7.2
			C390.4,314.5,382.1,324.3,374.5,334.4z"/>
		<path class="st13" d="M394.8,302.4c-6.4,4.2-9.3,11.5-15.2,16.2c-5.8,4.6-12.2,4.8-18.5,3.8c-4.6-0.7-2.1-4-0.2-5.7
			c5.4-4.8,11.1-9.2,15.2-15.3c1.1-1.6,2.7-2.8,2.7-4.9c-0.8-5.9,3.4-9.6,6-14c1.4-1.3,1.5-4.3,4.5-3.5c3.4,5.8-2.6,10.9-1.3,17.1
			c5.8-2.5,8.7-7.5,11.6-12.2c3.6-5.7,5.8-12.1,7.6-18.6c0.6-2-0.1-5.2,3.5-5.2c0.2,9.2,0.4,18.4-5.8,26.2
			C400.2,290.8,399.1,297.6,394.8,302.4z"/>
		<path class="st14" d="M410.8,260.2c-2.8,8.1-4.6,16.7-9.1,24.1c-3.3,5.4-7,10.4-12.3,13.9c-1.3,0.8-2.6,1.6-3.9,0.4
			c-1.1-1-0.4-2.2-0.2-3.4c0.9-5.5,4-10.4,3.7-16.1c-3.3-4.9,0.3-9.7,0-14.6c1.4-5,1.2-10,0.4-15c-0.4-2.4-0.9-4.8,1.1-6.8
			c4.5,6.7,3.2,14.8,5.6,22.1c0.6,2,0.1,4.8,3.1,5c2.5,0.1,3.6-2.1,4.5-4.1c4.3-9.7,3.3-19.7,1.6-29.8c-0.4-2.6-1.2-5.1-1.8-7.7
			c4.5,1.3,3.6,6.8,7,8.9C409.5,244.8,413.1,252.5,410.8,260.2z"/>
		<path class="st15" d="M278.6,289.2c-2.9,2.5-0.2,4.4,1,6.1c5,7.4,10.7,14.2,17.1,20.3c1.3,1.2,3.7,2.3,2.6,4.6
			c-0.9,1.8-3,0.8-4.6,1.1c-15,2.5-25.5-3.7-32.7-16.7c-1.3-2.4-2.4-5.3-5.3-6.6c-1.9-0.8-2.9-2.3-2.9-4.4
			c-0.2-6.8-6.1-11.9-5.8-18.9c4.4,5.4,5.8,12.8,11.9,17.1c1.2,0.8,2,2.2,3.3,2.8c2.5,1.1,4.9,4.3,7.8,2.3c3-2.1,1.2-5.7,1.2-8.7
			c0-3.5-5.5-7.2,0.2-10.5C275.5,281,279.2,284,278.6,289.2z"/>
		<path class="st16" d="M278.6,289.2c-2.1-3.8-4.2-7.7-6.2-11.5c-2.1-7.6-4.2-15.3-4.3-23.3c1.1-4.7-0.4-9.7,1.8-14.2
			c3.2-9,7.6-17.4,13.6-24.9c1.7-6.5,7-9.2,12.2-12.2c7.5-3.3,14.7-8.1,23.5-6.5c16.6-1.4,31.5,3.1,45.1,12.5
			c9.3,5.1,14.6,13.6,18.8,22.9c2.1,4.6,3.1,9.6,4.4,14.5c4.2,42-27.2,73.5-69.1,69.1c-9.7-2.2-19.1-5-26.9-11.5
			c-2.8-2.3-5.7-4.4-7.1-7.9C282.5,293.8,280.6,291.5,278.6,289.2z"/>
		<path class="st17" d="M319.2,196.5c-8.1,1.7-15.8,4.8-23.4,8.1c-5.2,0.5-8.8,4.6-13.7,6c-3,0.8-6.2,2.2-8.4-1.2
			c-2.1-3.3,0-6,2.1-8.3c2.6-2.8,5.2-5.7,8.4-7.8c10-7.4,20.6-13.1,33.5-13.1c4.8-1.1,9.7-1.1,14.5,0c20.8,1.4,37.6,9.8,49.3,28.6
			c-4.5,0.6-7.2-1.6-9.9-3.3c-14.1-8.7-29.4-12.9-46-12.3C323,193.4,320.3,193.3,319.2,196.5z"/>
		<path class="st18" d="M284.3,193.3c-2.8,3.2-5.8,6.3-8.4,9.7c-1.2,1.6-2.5,3.7-1,6c1.8,2.6,3.9,0.7,5.8,0.3
			c5.2-1.1,9.1-6.2,15.1-4.6c-5.4,2.1-7.8,7.6-12.4,10.6c-6.9,1.3-9.6,8.5-15.5,11.2c-1.6,0.7-2.6,3.7-4.7,2.2c-2-1.4-2.6-4-2-6.5
			c1.5-5.9,4.1-11.5,8.1-15.9C273.9,201.6,277.5,195.6,284.3,193.3z"/>
		<path class="st19" d="M385.8,246c-3.3-14.6-10.1-27.1-21.5-37c1.6-1.9,2.9-0.1,4.3,0.3c5.6,7.5,13.8,12.9,17.6,21.9
			c1.6,3.8,3.4,7.4,4.2,11.5c0.2,7.3,3.7,14.6,0,21.9c-3.1-3-1.3-7.1-2.5-10.6c-0.8-2.6-0.1-5.4-1.2-8c-0.4-0.9-0.9-1.3-0.5-0.4
			C386.4,245.7,386,245.9,385.8,246z"/>
		<path class="st18" d="M332.3,180.2c-4.8,0-9.7,0-14.5,0C322.6,177.9,327.4,177.9,332.3,180.2z"/>
		<path class="st20" d="M284.4,296.1c9.3,9.7,21,14.6,33.8,17.7c-1.1,1.5,0.3,1.5,1.1,1.6c23.4,1.6,45.6-2.4,61.8-31.5
			c1.2-2.1,1.7-5.4,5.4-4.6c0.4,1.5,0.7,2.9-0.4,4.3c-2.4,4.4-4.9,8.7-7.3,13.1c-8.9,7.6-16.9,16.1-28.5,20.4
			c-20.8,7.6-50.1,0.7-64.2-16.3C285,299.3,284.2,297.9,284.4,296.1z"/>
		<path class="st12" d="M386.1,283.5c0-1.5,0-2.9,0-4.4c-0.3-8.9,1-17.6,3-26.2c2.8,3.6,0.7,7.8,1.4,11.7c0.8,5-1.7,9.6-1.5,14.5
			C388,280.6,387.1,282,386.1,283.5z"/>
		<path class="st21" d="M389.1,252.9c-0.1,8.8,0.6,17.7-3,26.2c-6.3,10.8-12.8,21.2-23.4,28.7c-11.7,8.3-33.4,12.2-48.6,6.6
			c1.8-0.3,3-0.5,4.1-0.7c28,2,49.5-8.2,62.5-33.9c5.4-10.7,5.9-22.2,5.1-33.9c0.2-0.4,0.2-0.9,0.5-1.3c0.5-0.7,1.1-0.7,1.2,0.2
			C388.1,247.6,388.6,250.3,389.1,252.9z"/>
		<path class="st22" d="M335.4,222.1c3,10.3-0.7,20.4-1,30.6c-0.2,5.3,0.6,11.1-2.1,16.2c-7.4-10.3-8.8-22.2-9.2-34.3
			C322.8,224.7,325.3,222.5,335.4,222.1z"/>
		<path class="st23" d="M327.9,271.9c-4.8,0.7-6.5-2.2-6.9-6.3c-1.1-12.7-2.1-25.4-3.2-38.1c-0.4-4.3,1.3-7.5,4.9-9.7
			c4.3-2.7,7.6-0.3,10.9,2.2c0,0.5,0,1.1-0.4,1.3c-10,5.3-11.6,8.1-9.6,19.6c1.7,9.4,2.5,19,4.6,28.3
			C328.5,270,328.4,271,327.9,271.9z"/>
		<path class="st24" d="M327.9,271.9c-4.1-5.1-2.5-11.6-3.9-17.3c-1.4-6-1.7-12.3-1.9-18.6c-0.4-12.3,0-12.6,11.5-16.1
			c1.2,0.2,1.6,1.1,1.8,2.2c-0.3,0.6-0.6,1.9-0.8,1.9c-10.3-1.3-10.5,5.7-9.5,12.4c1.3,8.9,0,18.4,6.3,26.2c1.1,1.4,0.6,4.2,0.9,6.3
			C331.6,271,330.2,272.2,327.9,271.9z"/>
		<path class="st25" d="M333.9,280.4c3.3,3.4,2.6,7,0,10.1c-2.8,3.4-6.4,4.7-10.5,1.9C321.1,283.3,324.6,279.4,333.9,280.4z"/>
		<path class="st26" d="M333.9,280.4c-7.3,0.7-11.1,4.5-10.6,12c-5.6-3.2-6.3-7.8-2.6-12.5C324.9,274.7,329.6,276,333.9,280.4z"/>
	</g>
</g>
</svg>
