<?xml version="1.0" encoding="utf-8"?>
<!-- Generator: Adobe Illustrator 21.1.0, SVG Export Plug-In . SVG Version: 6.00 Build 0)  -->
<svg version="1.1" id="Layer_1" xmlns="http://www.w3.org/2000/svg" xmlns:xlink="http://www.w3.org/1999/xlink" x="0px" y="0px"
	 viewBox="0 0 1920 1080" style="enable-background:new 0 0 1920 1080;" xml:space="preserve">
<g>
	<g>
		<path d="M1144.9,598.5c-2,1.1-3.3,1.9-4.6,2.6c-52.9,27.3-105.8,54.6-158.7,82c-2.5,1.3-4.5,1.7-7.3,0.2
			c-51.4-27.7-102.8-55.4-154.3-83c-0.9-0.5-1.7-1-3.5-2c27.4-11.8,54.1-23.3,81.8-35.2c-2.7,10.8-5.6,20.6-7.4,30.7
			c-0.9,5-0.6,10.7,0.9,15.6c2.5,8,8.9,12.6,17.1,14.6c35.2,8.3,70.8,10.1,106.7,7.4c11.8-0.9,23.5-2.5,35.2-4.4
			c15-2.4,23.2-15.4,19.5-30.3c-2.7-11-5.5-21.9-8.5-34C1089.7,574.8,1116.9,586.5,1144.9,598.5z"/>
		<path d="M913.4,547.4c44.8,19.2,89.4,19.2,134.3-0.1c4.8,18.9,9.7,37.5,14.1,56.3c2,8.8-3.8,15.9-13.7,17.2
			c-15,1.9-30.1,3.9-45.2,4.7c-30.2,1.5-60.3-0.8-89.8-7.6c-10.9-2.5-15.2-9.5-12.5-20.3c3.8-15.3,7.7-30.7,11.6-46
			C912.5,550.2,913,548.9,913.4,547.4z"/>
		<path d="M1145.9,600.4c6.5,7.4,5.1,15.6-3.3,20.6c-26.3,15.7-52.7,31.2-79,46.9c-22.8,13.5-45.6,26.9-68.3,40.5
			c-10.1,6.1-19.5,6.2-29.9,0c-48.6-29.3-97.5-58.1-146.3-87.1c-9.1-5.4-10.7-13.6-3.9-21.3c1.5,0.8,3.1,1.6,4.7,2.4
			c51,27.4,102,54.8,153,82.3c3.5,1.9,6.1,1.8,9.5,0c52.9-27.4,105.8-54.7,158.7-82C1142.8,602,1144.4,601.2,1145.9,600.4z"/>
		<path d="M939.3,444.5c4.1-16.2,7.8-32.2,12.2-48.1c3.1-11.4,12.2-16,23-17.9c13.7-2.5,27.4,3.2,33.3,13.8c0.6,1.1,1.2,2.4,1.5,3.6
			c4.1,16.1,8.2,32.2,12.3,48.2C1008.2,452,957.3,452.2,939.3,444.5z"/>
		<path d="M1030.7,480.4c2.8,11,5.5,21.5,8.3,32.6c-39,14.6-77.8,14.5-117.1,0.1c2.8-11.1,5.5-21.6,8.3-32.7
			C963.6,490.7,996.9,490.8,1030.7,480.4z"/>
	</g>
</g>
</svg>
