<?xml version="1.0" encoding="utf-8"?>
<!-- Generator: Adobe Illustrator 21.1.0, SVG Export Plug-In . SVG Version: 6.00 Build 0)  -->
<svg version="1.1" id="Layer_1" xmlns="http://www.w3.org/2000/svg" xmlns:xlink="http://www.w3.org/1999/xlink" x="0px" y="0px"
	 viewBox="0 0 672 564" style="enable-background:new 0 0 672 564;" xml:space="preserve">
<style type="text/css">
	.st0{fill:#FEFEFE;}
	.st1{fill:#982C2F;}
	.st2{fill:#86272A;}
	.st3{fill:#A8474A;}
	.st4{fill:#A13A3D;}
	.st5{fill:#A43A3D;}
	.st6{fill:#9A3235;}
	.st7{fill:#762B2E;}
	.st8{fill:#BD494D;}
	.st9{fill:#B44346;}
	.st10{fill:#B34245;}
	.st11{fill:#A04042;}
	.st12{fill:#A33538;}
	.st13{fill:#76282A;}
	.st14{fill:#A14447;}
	.st15{fill:#823235;}
	.st16{fill:#A74345;}
</style>
<g>
	<g>
		<path class="st0" d="M188.4,103.8c107.8,0,215.6,0,323.4-0.1c5.3,0,6.3,1,6.3,6.3c-0.2,114-0.2,227.9,0,341.9c0,5.3-1,6.3-6.3,6.3
			c-105.7-0.2-211.4-0.2-317.2,0c-5.3,0-6.3-1-6.3-6.3C188.4,335.8,188.4,219.8,188.4,103.8z"/>
		<path class="st1" d="M418.9,303.3c-0.5,0.5-1,1.1-1.5,1.6c-1.6,1.9-1.9,4.7-4.2,6.1c-10.7,10.9-18.2,24.3-28.5,35.5
			c-8.4,9-16,18.8-27.3,24.6c-7.5,3.9-14.3,3.4-20.9-1.5c-9.7-7-17.7-15.7-25.4-24.7c-10.4-12.1-18.9-25.7-28.9-38.2
			c-6.3-7.5-9.3-16.8-14-25.2c-2.5-7.5-7.5-14.1-7.7-22.4c3.4-2.4,4.4,0.5,5.4,2.6c2.1,4.4,4.8,8.4,7,12.7
			c2.9,5.4,5.6,11.3,13.6,9.4c7.2,10.4,15.5,19.6,27.3,25c1.6,0.7,3.7,3.8,5.5,0c0-3.4-2-6.3-2.1-9.5c-0.1-4-1.3-8.7,4.6-10.1
			c0.1,11.4,10.5,19.9,8.7,31.8c-0.5,3,2,3.3,4.1,3.3c16.9,0.1,33.9,0.6,50.8-0.2c7.7-0.4,12.4-6.8,17.3-12
			c5.1-5.4,9.6-11.3,13.6-17.6c2-3.2,4-6.7,8.5-7.1c3.2,3.2-1.2,4.7-1.6,7C422.5,297.9,419.7,300.1,418.9,303.3z"/>
		<path class="st2" d="M282.8,306.5c9.7,8.3,15.3,19.7,23.1,29.6c8.1,10.3,17.1,19.8,26.8,28.7c11.1,10.2,21.7,9.3,33.2-1.3
			c14.7-13.7,26.9-29.5,38.8-45.7c2.3-3.1,4.7-6.1,8-8.2c1.3,5.7-4.5,8.1-6.1,12.5c-8.1,17.3-20.4,31.7-31.4,47.1
			c-7.3,10.2-15.6,19.8-23.4,29.7c-2.2,2.8-4.4,5.9-7.7,1.3c-10.2-14.1-21.9-27.2-30.6-42.4c-6.8-10.3-13.5-20.7-20.6-30.9
			c-3.6-2.8-4-7.8-7.3-10.8C286.2,312.4,280.7,310.5,282.8,306.5z"/>
		<path class="st3" d="M261.2,258.5c0.5,8.4,5.7,15.3,7.9,23.1c0.6,0.8,0.5,1.4-0.4,1.9c-10.7-17.5-15.7-36.3-11-56.6
			c8.7-37.9,32.6-62.3,69.7-72.5c22.7-6.3,45.2-2.7,65.9,9.4c13.9,8.1,26.2,17.8,33.7,32.6c-1.6,0.3-2.8,1.3-4.2,2.1
			c-3.7-0.7-5.1-3.9-6.9-6.6c-4.4-6.4-10.3-11-17.1-14.5c-11.4-8.1-23.8-13.7-37.8-16.2c-16.1-2.9-31,0.3-45.9,5.7
			c-12.2,3.6-20.5,12.8-29.4,21c-1.8,1.7-2.8,4.4-5.9,4.2c-4.7-0.6-4.7,4-6.1,6.3c-8.7,14.3-13.2,29.8-13.8,46.6
			C259.7,249.8,263.5,253.8,261.2,258.5z"/>
		<path class="st4" d="M423.5,198.2c-0.1-3,1.8-2,3.4-1.7c12.7,18.4,18.6,38.3,13,60.6c-4.2,16.7-11.3,32-21,46.2
			c0-5.9,5.1-9.8,6.1-15.4c-0.9-4.2,2.1-7.2,3.4-10.7c2.1-5.4,4.6-10.6,6-16.3c-2.3,9.1-7.1,16.9-12.8,24.2
			c-1.7,2.2-3.9,5.1-6.8,4.1c-3.1-1-2.7-4.7-2.5-7.4c1.1-17.9-0.5-35.3-8-51.9c-0.5-1.2-0.4-2.5,0.1-3.7c0.6-0.6,1.2-0.9,2.1-0.8
			c6.3,3.7,7.5,10.6,10.2,16.6c1.9,4.2,2.1,11.4,7.8,10.6c5-0.7,5.1-7.7,5.7-12.4c1.7-11.4-0.2-22.4-4.9-33
			C424.1,204.5,421.3,201.8,423.5,198.2z"/>
		<path class="st5" d="M268.6,283.6c0.1-0.6,0.3-1.2,0.4-1.9c4.8,8.2,7.9,17.2,13.8,24.8c-0.1,3.5,4.4,5.7,2.7,9.6
			C279.3,305.5,272.3,295.4,268.6,283.6z"/>
		<path class="st1" d="M292.9,326.8c8.5,9.2,15.1,19.7,20.6,30.9C305.4,348.2,298.8,337.8,292.9,326.8z"/>
		<path class="st6" d="M406.6,322c0.3-5,5.6-7.5,6.1-12.5c2-1.2,2.2-4,4.7-4.7C415.4,311.6,412.3,317.7,406.6,322z"/>
		<path class="st0" d="M321.3,311.7c0.5,4.9-2.3,1.9-3.6,1.4c-13.8-5.9-24.6-15.2-32-28.3c-7.8-10.9-8-22.7-4.7-35.1
			c3.5-7.9,7.5-15.5,12.9-22.4c2.6-3.3,3.9-7,3.9-11.3c0-3.3,0-6.7,2.9-9.1c1.4-0.9,2.9-1,4.5-0.6c5.1,2.6,5.7,8.9,9.8,12.5
			c3.2-1.3,4.2-4.4,5.8-6.9c6.1-9.8,9.3-20.3,9.4-31.8c0.1-11.5,2.6-13.1,13.3-8.7c2.4,1,4.6,2.1,6.8,3.4
			c10.4,7.8,17.5,17.9,22.1,31.3c1.6-3.3,1-5.9,1.5-8.1c0.8-3.7,3.1-3.9,6.1-2.6c2.3,1.3,4.1,3.3,6,5.1c6.1,6.1,10.3,13.5,14.6,20.9
			c4.7,9.3,7.5,19.2,8.9,29.4c3.2,29.2-11.9,54.5-37.9,63.4c-2,0.5-4.1,1.2-6.2,0.5c-3.4-2.6-1.6-6-1.3-9.2
			c0.4-4.3,1.7-8.4,2.2-12.7c2.4-13.1-0.7-25.3-5.6-37.3c-1.3-2.3-2.6-4.6-3.8-7c-1.2-1.9-1.8-4.3-4.9-5.8c-1.7,9.4-3.3,18.7-9.8,26
			c-1.6,1.2-3.3,1.9-5.2,1c-2.6-2.7-1.3-6.4-3.1-11.1c-3.4,10.2-10,17.2-14.9,25.2c-3.7,6.2-3.9,12.6-0.9,19.2
			C319.3,305.9,320.3,308.8,321.3,311.7z"/>
		<path class="st6" d="M337.5,269.1c1.3-0.5,2.6-1.1,4-1.6c6.2-0.5,7.1-5.4,8.5-10c1.4-4.5,2-9.7,8.4-9.8c1.2,2,2.4,4.1,3.6,6.1
			c-3.6,2.6-6.3,5.7-7.6,10.2c-2,6.9-6.2,11.3-14,12.3c-7.2,1-14.8,13.9-13.1,21c0.2,1,0.6,2,1.2,2.8c5.5,7.6,13.7,5.5,21.2,5.8
			c5.6,0.3,10-1.5,12.4-7.1c1.2-2.8,1.2-7,6.1-6.3c0.3,6.2-1.9,11.9-2.8,17.9c-0.2,1.5-1.1,3,0.9,3.9c0.6,6.9,2.9,9.3,8.1,7.3
			c17-6.5,27.4-18.9,31.8-36.5c2.1-9.5,4.2-19,3.4-28.9c-0.2-1.9,0.9-4.2-1.7-5.4c-2.1-10.2-5-20.1-9.1-29.7
			c-1.5-3.3,0.3-3.8,2.6-2.5c2.5,1.5,3.7,4.2,3.5,7.2c9.3,19.7,10.8,40.7,8.8,64.2c12-10.7,16.8-23.1,22.8-34.9
			c-1.5,11.7-5.4,22.5-11.5,32.6c-8.6,6.5-12.3,16.8-19.7,24.4c-8,8.2-15.2,15.7-28.4,14.5c-14.6-1.2-29.3-0.3-44-0.3
			c-4.4,0-8.2,0.1-4.7-6c2-3.5,1.3-7.2-1.1-10.2c-5-6.2-6.4-13.3-5.7-21C320.4,280.1,330,267.9,337.5,269.1z"/>
		<path class="st5" d="M283,249.6c-3.7,12.1-1.1,23.6,2.6,35.2c-8.7,3.7-10.9-3.3-14.1-8.6c-3.5-5.8-6.9-11.8-10.4-17.7
			c-7.3-16.9-1-32.7,4.4-48.4c3-8.9,8.5-16.3,15.2-23.1c-0.3,1.6-0.7,3.3-1,4.9c-4.5,9.7-9.7,19.1-11.2,30
			c-0.9,6.9-1.5,13.8,0.6,20.5c1.4,4.5,3.4,8.2,9.4,5.2C280.1,246.8,283.2,245.1,283,249.6z"/>
		<path class="st7" d="M337.5,269.1c-2.9,0.1-5.6,0.5-6.9,3.7c-2.4,5.9-8,10-9.1,16.6c-3.2,4.2-3.7,8.6-1.5,13.4
			c1.3,2.8,1.8,5.8,1.3,8.9c-9.6-11.3-10.1-20.7-1.6-32.5c5.5-7.7,11.8-14.9,12.8-25C336.6,258.4,336.9,259.2,337.5,269.1z"/>
		<path class="st8" d="M380,197.1c-1.6,0.3-4.1-3.8-4.7,1c-4.5-0.9-6.2-4.9-8.7-8c-4.5-5.6-9.6-10.5-16.3-13.4
			c-5.7-2.2-10.9-5.8-18-5.8c0.9,15.4-0.9,30.3-10.6,43c-5.5-1.7-10.1-5.8-16.1-6.3c-1.3,0-2.7,0.1-4,0.1c-3.8,0.2-7.5,1.5-11.4,1.6
			c-9.6,0.2-13.7-6.1-9.1-14.6c2.7-4.9,6.1-9.4,10.4-13.2c6.9-6,14-11.9,22.3-16c31-13.1,59.8-9.1,86.6,10.8
			c6.6,5.7,13.4,11.2,17.1,19.4c1.8,3.9,3.9,8.3,0.3,12.2c-3.4,3.7-7.9,2.9-12.2,1.8c-4.3-1.1-7.9-3.5-11.3-6.3
			C390.1,200.2,385.9,196.7,380,197.1z"/>
		<path class="st9" d="M313.7,165.7c-6,5.8-13.9,9.1-19.7,15.4c-3.6,3.9-7.1,7.9-10.2,12.3c-2.7,3.8-4.2,8.2-1.5,12.1
			c2.5,3.6,7.1,1.8,10.8,1.6c2.8-0.1,5.8-2.9,8.4,0.6c0.3,13.7-8.1,23.6-14.8,34.3c-1.5,2.4-2.5,5-3.7,7.6c-1.4-2.3-2.9-1.6-4.3-0.1
			c-5.3,5.4-8.3,1.7-10.3-3c-4.9-11.5-3.2-23.3,0.5-34.6c2.4-7.1,3.6-15.2,10.8-19.9c7.3-9,16.2-16.2,25.6-22.7
			C307.8,167.5,310.5,165.9,313.7,165.7z"/>
		<path class="st10" d="M380,197.1c3.8-4.3,6.9-0.9,10.1,0.9c5.7,3.3,9.7,9.2,16.8,10.4c3.6,0.6,7.3,1.8,10-1.4
			c2.5-3,0.6-6.4-0.7-9.3c-2.8-6.7-8-11.8-12.8-17c-1.2-1.3-3.1-1.9-3-4.1c6.4,3.1,11.8,7.3,16,13.1c2.1,3,3.4,6.9,7.2,8.5
			c5.8,12.3,10.7,24.9,9.3,39c-0.5,5.4-1.4,10.6-4.1,15.4c-3,5.5-6.4,5.8-9.4,0.4c-2.5-4.4-3.7-9.5-5.9-14.2
			c-2.1-4.4-4.7-8.5-7-12.8c-4.9-6.7-9.3-13.8-15.2-19.7c-2-2-3.7-4.2-6.6-4.9C383.2,200,381.6,198.5,380,197.1z"/>
		<path class="st11" d="M384.8,201.4c4-1.6,5.7,1.8,8,3.9c6.3,5.8,10.6,12.9,13.8,20.7c-0.5,0-1,0-1.6,0c-1.2-1.8-2.3-3.8-3.6-5.5
			c-1.4-2-2.3-1.3-2.6,0.8C394.1,214.6,389.5,208,384.8,201.4z"/>
		<path class="st12" d="M368.2,292.6c-2.7,0.8-3,2.9-3.6,5.3c-1.6,7-6.2,10.4-13.4,10.1c-5.8-0.3-11.7,0.8-17.5-1.3
			c-8.2-3-11.3-9.7-7.4-17.6c3.7-7.6,6.1-16.1,18-15.8c6,0.2,7.8-7.5,9.2-12.9c1.2-4.7,3.3-7.3,8.5-6.7
			C368.3,266,370.5,278.9,368.2,292.6z"/>
		<path class="st13" d="M407.9,250.9c2.6-0.6,3.1-0.5,3.1,2.7c0.1,8.9,0.9,17.9-1.7,26.7c-0.6,1.9-0.9,4-1.3,6
			c-4.9,11.4-11.3,21.7-22.2,28.4c-3.5,2.2-7.3,3.9-11.5,3.9c-4.3,0-5.1-1.5-3.5-5.7C399.2,301.8,408.9,279.5,407.9,250.9z"/>
		<path class="st1" d="M370.9,312.9c-1,6.2,3.1,4.5,6.1,3.6c12.5-3.9,20.7-12.9,27.1-23.7c1.3-2.2,2.7-4.3,4-6.5
			c-2.6,15-20.8,35-34.8,38.2c-3.2,0.7-5.5-0.8-7.6-2.7c-2.7-2.6-1.5-5,0.5-7.4C367.8,313.9,369.3,313.4,370.9,312.9z"/>
		<path class="st14" d="M350.2,176.7c7.3-0.2,11.3,5,15.6,9.6c3.4,3.7,6.3,7.9,9.4,11.9c1.4,4.4,0.2,8.4-2.9,13.9
			C368.3,197,361.4,185.4,350.2,176.7z"/>
		<path class="st15" d="M358.3,247.7c-5.8,3-5.9,8.9-7.7,14.2c-1.3,3.8-2.6,9.6-9.2,5.7c6.2-8.5,7.8-18.5,8.7-29.7
			C354.4,240.6,357,243.6,358.3,247.7z"/>
		<path class="st16" d="M305.5,207.6c7.2-2.7,11.6,2.1,16.1,6.3c-1.6,3.5-3.7,6.5-7.2,8.7C311.4,217.5,308.5,212.6,305.5,207.6z"/>
	</g>
</g>
</svg>
