<?xml version="1.0" encoding="utf-8"?>
<!-- Generator: Adobe Illustrator 21.1.0, SVG Export Plug-In . SVG Version: 6.00 Build 0)  -->
<svg version="1.1" id="Layer_1" xmlns="http://www.w3.org/2000/svg" xmlns:xlink="http://www.w3.org/1999/xlink" x="0px" y="0px"
	 viewBox="0 0 1920 1080" style="enable-background:new 0 0 1920 1080;" xml:space="preserve">
<g>
	<g>
		<path d="M841,498.2c0-12.8,0-25.7,0-38.5c0-9.2,4.6-13.7,13.9-13.7c25.8,0,51.6,0,77.5,0c8.9,0,13.6,4.7,13.6,13.5c0,26,0,52,0,78
			c0,8.8-4.8,13.5-13.6,13.5c-26,0-52,0-78,0c-8.5,0-13.3-4.8-13.4-13.3C841,524.6,841,511.4,841,498.2z"/>
		<path d="M1028.7,446c12.8,0,25.7,0,38.5,0c9.2,0,13.8,4.7,13.8,13.9c0,25.8,0,51.6,0,77.5c0,8.9-4.7,13.6-13.5,13.7
			c-26,0-52,0-78,0c-8.8,0-13.5-4.8-13.5-13.6c0-26,0-52,0-78c0-8.6,4.7-13.4,13.2-13.4C1002.4,446,1015.6,446,1028.7,446z"/>
		<path d="M893.7,581c12.8,0,25.7,0,38.5,0c9.2,0,13.8,4.7,13.8,13.9c0,25.8,0,51.6,0,77.5c0,8.9-4.7,13.6-13.5,13.7
			c-26,0-52,0-78,0c-8.8,0-13.5-4.8-13.5-13.6c0-26,0-52,0-78c0-8.6,4.7-13.4,13.2-13.4C867.4,581,880.6,581,893.7,581z"/>
		<path d="M1081,634c0,12.8,0,25.7,0,38.5c0,8.8-4.8,13.5-13.6,13.5c-26,0-52,0-78,0c-8.6,0-13.4-4.8-13.4-13.2
			c0-26.2,0-52.3,0-78.5c0-8.5,4.8-13.3,13.4-13.3c26,0,52,0,78,0c8.9,0,13.6,4.7,13.7,13.5C1081,607.7,1081,620.8,1081,634z"/>
	</g>
</g>
</svg>
