<?xml version="1.0" encoding="utf-8"?>
<!-- Generator: Adobe Illustrator 21.1.0, SVG Export Plug-In . SVG Version: 6.00 Build 0)  -->
<svg version="1.1" id="Layer_1" xmlns="http://www.w3.org/2000/svg" xmlns:xlink="http://www.w3.org/1999/xlink" x="0px" y="0px"
	 viewBox="0 0 1920 1080" style="enable-background:new 0 0 1920 1080;" xml:space="preserve">
<g>
	<g>
		<path d="M862.9,748.2c-40.3-12.8-80-25.5-119.7-38.2c0-114.1,0-227.7,0-342c40.1,12.8,79.9,25.5,119.7,38.2
			C862.9,520.2,862.9,633.8,862.9,748.2z"/>
		<path d="M1138.8,751.9c-40-12.7-79.7-25.4-119.6-38.1c0-113.9,0-227.7,0-342c12.8,4.1,25.2,8.1,37.7,12c26,8.3,52,16.6,78,24.8
			c3.1,1,4.2,2.1,4.2,5.4c-0.1,111.3-0.1,222.6-0.1,333.9C1139,749.1,1138.9,750.3,1138.8,751.9z"/>
		<path d="M994.7,713.8c-35.6,11.4-71.4,22.8-107.5,34.3c0-114.2,0-227.9,0-342c35.6-11.4,71.4-22.8,107.5-34.3
			C994.7,486,994.7,599.7,994.7,713.8z"/>
	</g>
</g>
</svg>
