<?xml version="1.0" encoding="utf-8"?>
<!-- Generator: Adobe Illustrator 21.1.0, SVG Export Plug-In . SVG Version: 6.00 Build 0)  -->
<svg version="1.1" id="Layer_1" xmlns="http://www.w3.org/2000/svg" xmlns:xlink="http://www.w3.org/1999/xlink" x="0px" y="0px"
	 viewBox="150 0 1520 1080" style="enable-background:new 0 0 1920 1080;" xml:space="preserve" fill="#dcdcdc">
<g>
	<g>
		<path d="M840.4,358.2c2.9,0.9,4.9,1.4,6.7,2.1c18,7,35.9,14.1,54,20.9c2.1,0.8,5.1,0.6,7.3-0.3c7.9-3,15.8-6.2,23.5-9.7
			c2.3-1.1,4.8-3.1,5.8-5.3c7.8-17.3,15.5-34.6,22.8-52.1c2.6-6.2,6.5-9.1,13.3-8.9c11.5,0.3,23,0.3,34.5,0
			c6.8-0.2,10.7,2.6,13.3,8.9c7.2,17.3,15,34.5,22.4,51.8c1.3,3.1,3.1,4.9,6.4,6.1c8,2.8,15.7,6.5,23.6,9.4c2.2,0.8,5.2,1.1,7.3,0.2
			c17.9-6.8,35.7-13.8,53.4-21c6-2.5,10.7-1.8,15.3,3.1c8.1,8.6,16.6,16.9,25.1,25.1c4.3,4.2,5.1,8.5,2.9,14
			c-7.2,18.1-14.3,36.2-21.2,54.4c-0.8,2.1-0.5,5.1,0.3,7.3c2.9,7.8,6.5,15.3,9.3,23.1c1.2,3.5,3.1,5.4,6.4,6.8
			c17.4,7.5,34.7,15.3,52.2,22.7c5.9,2.5,8.3,6.3,8.2,12.7c-0.3,12-0.2,24,0,36c0.1,5.6-2.3,9-7.4,11.2
			c-17.9,7.7-35.7,15.6-53.5,23.3c-3,1.3-4.6,3.1-5.7,6.2c-2.8,7.8-6.1,15.5-9.5,23c-1.2,2.8-1.6,5-0.4,7.9
			c7.2,17.9,14,36,21.2,53.9c2.3,5.9,1.5,10.4-3.2,14.8c-8.6,8.1-17,16.5-25.2,24.9c-4.2,4.2-8.4,5.1-14,2.8
			c-18-7.3-36.2-14.3-54.4-21.3c-2-0.8-4.8-0.5-6.9,0.3c-8.1,3-16.1,6.3-24,9.9c-2.3,1-4.8,3.1-5.8,5.3
			c-7.9,17.6-15.7,35.3-23.2,53.1c-2.5,5.9-6.3,8.4-12.7,8.2c-11.5-0.3-23-0.3-34.5,0c-6.7,0.2-10.8-2.4-13.4-8.7
			c-7.3-17.5-15.1-34.8-22.6-52.2c-1.3-3-3-4.7-6.2-5.8c-7.8-2.8-15.5-6.1-23.1-9.5c-2.8-1.2-5-1.5-7.9-0.4
			c-17.9,7.1-36,13.9-53.9,21c-5.7,2.3-10.1,1.4-14.4-3c-8.2-8.5-16.7-16.8-25.2-25c-4.4-4.2-5.4-8.7-3.1-14.4
			c7.2-17.9,14.1-35.9,21.2-53.8c1.1-2.8,1.2-5-0.2-7.9c-3.6-7.7-6.4-15.7-9.9-23.4c-1-2.3-3.1-4.7-5.3-5.7
			c-17.6-8-35.3-15.7-53-23.3c-5.6-2.4-8.3-6-8.1-12.2c0.3-11.8,0.3-23.7,0-35.5c-0.1-6.2,2.3-9.9,8-12.3
			c17.7-7.6,35.4-15.5,53.1-23.1c3-1.3,4.6-3.1,5.8-6.2c2.9-7.9,6.5-15.6,9.5-23.6c0.8-2.1,1-4.9,0.3-6.9c-6.8-18-13.8-36-21.1-53.9
			c-2.5-6.1-1.7-10.7,3.1-15.3c8.7-8.3,16.9-17,25.6-25.3C835.3,360.7,838.3,359.5,840.4,358.2z M991.3,438.1
			c-59.9-0.1-108.9,48.6-109.2,108.3c-0.3,60,48.6,109.3,108.6,109.5c60,0.2,109.2-48.9,109.2-108.9
			C1099.9,487.2,1051.1,438.2,991.3,438.1z"/>
	</g>
</g>
</svg>
