<?xml version="1.0" encoding="utf-8"?>
<!-- Generator: Adobe Illustrator 21.1.0, SVG Export Plug-In . SVG Version: 6.00 Build 0)  -->
<svg version="1.1" id="Layer_1" xmlns="http://www.w3.org/2000/svg" xmlns:xlink="http://www.w3.org/1999/xlink" x="0px" y="0px"
	 viewBox="0 0 1920 1080" style="enable-background:new 0 0 1920 1080;" xml:space="preserve">
<g>
	<g>
		<path d="M1184.9,748.6c-60,0-119.7,0-179.5,0c-0.2-0.4-0.5-0.8-0.7-1.2c14.5-14.6,28.9-29.2,42.7-43.1
			c-24.6-25.2-48.9-50.3-73.4-75.3c-25,25.6-49.5,50.7-74.2,76c13.2,13.4,27.6,27.9,42,42.4c-0.3,0.5-0.5,1.1-0.8,1.6
			c-15.9,0-31.7,0-47.6,0c-42.2,0-84.3-0.1-126.5,0.1c-4.8,0-6.1-1.3-6.1-6.1c0.2-55.5,0.2-111,0.3-166.5c0-2.5,0-4.9,0-7.4
			c0.5-0.3,0.9-0.6,1.4-0.9c14.5,14.4,29,28.7,42.8,42.5c25.3-24.6,50.5-49,76.2-74c-25.7-25-50.8-49.5-76.9-74.9
			c-13.7,14-27.9,28.6-43.2,44.3c0-61.3,0-121.1,0-181.2c59.6,0,119.5,0,180.8,0c-2,2.3-3.2,3.8-4.5,5.2
			c-12.2,12.3-24.5,24.6-36.7,36.8c-1.7,1.7-3.5,3.1-0.9,5.7c24.1,23.9,48.2,47.8,72.7,72.1c24.7-25.4,49-50.6,73.7-76.1
			c-13.1-13.2-27.6-27.8-42-42.3c0.2-0.4,0.4-0.8,0.6-1.2c59.8,0,119.6,0,179.7,0c0,59.9,0,119.7,0,179.4c-0.4,0.3-0.8,0.6-1.2,0.9
			c-14.5-14.4-29-28.8-43.1-42.8c-25.2,24.7-50.1,49.1-75.5,74c4.1,4.2,7.9,8.1,11.7,11.9c19.7,19.9,39.4,39.7,59,59.7
			c3.1,3.1,4.9,3.1,7.9-0.1c11.5-11.8,23.3-23.4,35-35c1.6-1.6,3.4-3.1,6-5.5C1184.9,628.7,1184.9,688.5,1184.9,748.6z"/>
	</g>
</g>
</svg>
