<?xml version="1.0" encoding="utf-8"?>
<!-- Generator: Adobe Illustrator 21.1.0, SVG Export Plug-In . SVG Version: 6.00 Build 0)  -->
<svg version="1.1" id="Layer_1" xmlns="http://www.w3.org/2000/svg" xmlns:xlink="http://www.w3.org/1999/xlink" x="0px" y="0px"
	 viewBox="0 0 1190.6 35.1" style="enable-background:new 0 0 1190.6 35.1;" xml:space="preserve">
<style type="text/css">
	.st0{fill:#202020;}
</style>
<g>
	<g>
		<path class="st0" d="M-0.1,33.9c0-11.2,0-22.4,0-33.6c397,0,793.9,0,1190.9,0c0,11,0,22.1,0,33.1c-1.2,1.1-2.7,0.7-4.2,0.7
			c-38,0-76,0.1-114,0c-11.8,0-23.6,0.9-35.4-0.9c-5.9-1-11.9-1.8-17.6-3.4c-2.2-1-4.6-1.6-6.9-2.6c-1.1-0.5-2.2-0.8-3.4-1
			c-3.6-1.1-7-2.8-10.6-3.8c-6.3-2.4-12.7-4.5-19.1-6.8c-0.9-0.3-1.8-0.7-2.6-1.2c-2-1.1-4-1.9-6.2-2.3c-0.9-0.2-1.8-0.5-2.7-0.7
			c-0.8-0.3-1.6-0.3-2.5-0.5c-0.9-0.2-1.7-0.4-2.6-0.2c-0.6,0.1-1.1,0-1.7,0c-40.5,0-81.1-0.1-121.6,0c-0.6,0-1.3,0.2-1.9,0
			c-27.1-0.1-54.2,0-81.2,0c-2.8,0.2-5.6,0.2-8.3,0.1c-4-0.2-8.1,0-12.1-0.1c-30.7,0-61.3,0-92,0c-11.3,0-22.7,0.1-34-0.1
			c-1.2-0.4-2.4-0.4-3.6-0.4c-9.5,0-19,0-28.5,0c-0.3,0-0.6,0-0.9,0c-48.6,0-97.2-0.1-145.9,0.1c-8.5,0-16.9,0.2-25.4,0.3
			c-0.8,0-1.6,0.1-2.4,0c-5.5,0-11-0.3-16.5-0.3c-13.6-0.1-27.3-0.3-40.9,0c-3.3,0.1-6.5-0.1-9.8-0.1c-22.1,0-44.1,0-66.2,0
			c-43.3,0-86.6,0-130,0c-1.8,0-3.5-0.1-5.2,0.4c-1.4,0.1-2.8-0.1-4.1,0.3c-5.5,0.6-10.4,3.1-15.4,5.2c-1,0.4-2,0.6-3,1
			c-2.4,0.9-4.9,1.7-7.4,2.7c-0.2,0.1-0.4,0.2-0.6,0.2c-0.4,0.1-0.8,0.3-1.2,0.4c-0.5,0.2-1,0.4-1.5,0.5c-1.7,0.5-3.4,1.2-5.1,1.9
			c-0.7,0.2-1.3,0.5-2,0.7c-7.6,2.6-15.2,5.5-23,7.5c-0.5,0.1-1,0.2-1.6,0.2c-7.2,1.6-14.5,2.3-21.9,2.9
			c-14.8,1.1-29.6,0.1-44.4,0.6C2.2,34.8,0.9,34.9-0.1,33.9z"/>
	</g>
</g>
</svg>
