<?xml version="1.0" encoding="utf-8"?>
<!-- Generator: Adobe Illustrator 21.1.0, SVG Export Plug-In . SVG Version: 6.00 Build 0)  -->
<svg version="1.1" id="Layer_1" xmlns="http://www.w3.org/2000/svg" xmlns:xlink="http://www.w3.org/1999/xlink" x="0px" y="0px"
	 viewBox="0 0 672 564" style="enable-background:new 0 0 672 564;" xml:space="preserve">
<style type="text/css">
	.st0{fill:#CB6527;}
	.st1{fill:#D28A3A;}
	.st2{fill:#A65F1F;}
	.st3{fill:#CF742E;}
	.st4{fill:#E77327;}
	.st5{fill:#D57A29;}
	.st6{fill:#F39530;}
	.st7{fill:#F0902F;}
	.st8{fill:#DA9333;}
	.st9{fill:#D48836;}
	.st10{fill:#FDFBFA;}
	.st11{fill:#ED812B;}
	.st12{fill:#F9A033;}
	.st13{fill:#FEFEFD;}
	.st14{fill:#D3852E;}
	.st15{fill:#B4752B;}
	.st16{fill:#FDFCFA;}
	.st17{fill:#FEFEFE;}
	.st18{fill:#CA7E2C;}
	.st19{fill:#A7692C;}
	.st20{fill:#A86728;}
	.st21{fill:#DB8B2F;}
</style>
<g>
	<g>
		<path class="st0" d="M368.8,342.7c-13.9,22.4-30.1,43.1-47.4,63c-2.4,2.8-4.5,3-6.7,0c-20.7-27.5-41.3-55.1-59-84.7
			c0.3-4.1-5.2-6.3-3.5-10.9c4.8-1.8,5.3,3.3,8,4.9c15.8,23.8,32.3,47,50.7,68.8c6.5,7.7,8.9,7.8,15.4,0.4
			c17.5-19.8,33.7-40.7,47.8-63.1c2-3.1,4-6.3,7.7-7.7c4.8,0.5,3.8,2.8,1.9,5.7C378.8,327,372.8,334.2,368.8,342.7z"/>
		<path class="st1" d="M252.8,309.5c-0.9,4.3,4.6,7,2.9,11.4c-12.5-19.5-24.1-39.7-29-62.5c-5.1-24,2.2-46.2,16.9-65.3
			c23.8-31.2,55.9-45,94.5-37.2c33.1,6.7,56.9,27.3,70.4,58.7c8.7,20.4,8.3,40.9-0.2,61.4c-0.7,1.7-1.9,3.1-2.9,4.6
			c-2.8-3.1-0.6-6.4-0.5-9.6c7.5-18.9,6.7-37.6-1.8-56.1c-3.1-5.9-5.8-12-10.6-16.8c-1.7-1.6-3-3.4-3.9-5.6
			c-13.4-18-31.6-29.4-53.3-32.8c-43.8-6.8-83.2,15-98.7,57.4c-0.8,2.3-0.6,4.7-0.7,7.1c-0.1,4.6-0.6,9.1-2.8,13.3
			c-6.1,4.7-4,11-2.8,16.6c3.9,18.1,11.8,34.8,20.8,50.9C252,306.4,252.8,307.8,252.8,309.5z"/>
		<path class="st2" d="M406.8,271.4c-0.5,3.1-0.9,6.2-1.4,9.2c-0.7,1.3-1.3,2.5-2,3.8c-1.8,3.6-3.8,6.3-8.5,3.3
			c-3.2-2.1-7.2-1.2-10.9-1.3c-40.2,0-80.4,0-120.6-0.1c-3.9,0-8,0.5-11.8-1.1c-1.6-1.3-3.5-2.5-1.6-5c4.1-2.5,8.7-1.8,13.1-1.8
			c40.5-0.1,81.1-0.1,121.6,0c5.9,0,11-0.7,13.3-7C401.1,269.1,404,269.2,406.8,271.4z"/>
		<path class="st3" d="M251.3,284.1c45.3,0,90.6,0,135.8,0.1c3.6,0,7.4-0.8,10.4,2.4c3.5,3.7,3.5-2.7,6-2.2
			c-6.8,18-17.7,33.8-28.2,49.7c-2,3-3.2,6.6-6.5,8.6c1.6-9.2,9.3-15,13.1-22.9c0.9-1.8,5.2-4.1-0.4-5.5c-1.4-2-0.5-3.6,0.9-5.1
			c3.5-4,6-8.7,8.6-13.2c2.8-5,1.7-7-4.1-7.8c-2.6-0.4-5.3-0.2-7.9-0.2c-39.3,0-78.5,0.1-117.8-0.1
			C257.6,287.8,253,289.4,251.3,284.1z"/>
		<path class="st4" d="M383,311.1c-1.3,0.7-1.6,1.9-1.6,3.2c-12.4,16.6-22.7,34.8-36.4,50.6c-6.9,7.9-13.3,16.2-20.2,24.2
			c-3.8,4.4-8.5,4.5-12.2,0c-19.3-23.3-37.9-47.1-53.4-73.1c-0.8-2.2-4.2-3.9-1.1-6.7c5.3,0.6,8,4.9,11.2,8.3
			c6,6.4,12.9,9.3,21.8,9.1c18.2-0.4,36.5-0.7,54.6,0.1c12.4,0.6,21.2-4.6,29.1-13.1c2.3-2.5,3.9-5.9,7.9-5.9
			C384.1,308.6,383.9,309.8,383,311.1z"/>
		<path class="st5" d="M383,311.1c0-1.1,0-2.1,0-3.2c-1-3.5,1.4-6,2.6-8.8c2.6-6,1.9-7.3-4.8-7.8c-1.3-0.1-2.6-0.1-3.9-0.1
			c-38.4,0-76.9,0-115.3,0c-1.8,0-3.7,0-5.5,0.2c-4.1,0.4-4.7,2.4-3.1,5.9c1.8,4,5.6,7.2,4.7,12.2c0.5,2.1,1.1,4.2,1.6,6.4
			c-3.1-1.1-4-4.5-6.4-6.4c-9.3-10.5-13.8-23.6-18.8-36.2c-3.9-10-7.2-20.4-6.6-31.5c0.2-3.3,0.3-6.1,4.7-3.7
			c2.5,5.4,1,11.4,2.5,16.9c1.9,7.1,2.9,14.7,10.3,18.8c1.7,2.4,3.1,4.9,4.7,7.3c0.5,1,1,2,1.6,3c2.6,2.8,6,1.5,9,1.5
			c40.7,0.1,81.4,0,122,0.1c3.1,0,6.3-0.4,9.3,1.1c3.4,1.7,5.2,4,2.8,7.5C390.6,299.9,388.6,306.7,383,311.1z"/>
		<path class="st6" d="M390.9,192.1c0.1,2.3,1.2,3.8,3.2,4.7c3.5,7.4,7.3,14.6,11.2,21.7c3.9,12.1,6.3,24.3,3.6,36.9
			c-2.2,10.4-5.7,13.2-16.1,13.2c-4.4,0-8.9,0.6-13.3-0.7c-1.5-0.6-3.1-1.8-3.1-3.2c-0.2-8.9-3.8-17.9,1.2-26.5
			c5.4-9.4,3.9-13.8-6-18.2c-3.3-1.2-6.7-2-9.7-4c-1.9-4.6-2.5-9.8-5.1-14.2c-0.2-0.8-0.2-1.5,0-2.3c3.9-4.8,7.6-2,9.3,1.5
			c3.3,7,8.7,10.7,15.4,13.8c5,2.3,7.9,7.6,12.4,12.1c2.4-4.7,1.5-8.7,0.5-12.7c-2.3-8.8-6.6-16.6-12.8-23.4
			c-2.2-2.5-5.5-4.3-5.2-8.4c2.7-2.2,4.2,0.1,5.9,1.6C385.1,186.8,387.6,189.9,390.9,192.1z"/>
		<path class="st7" d="M244.7,274.6c-3.6,0.3-6.2-1.4-7.4-4.7c-4-10.2-7.4-20.6-5.1-31.9c0.5-4.8,1.1-9.5,1.6-14.3
			c2.3-7.2,4.6-14.5,8.7-20.9c1.3-2,1.9-6,6.1-4.1c1.2,3.1-0.5,5.6-1.6,8.2c-2.5,6.1-4.5,12.3-4.6,19c-0.2,8.6,3.2,11.4,11.7,9.3
			c6.4-1.6,12.1-5,18.4-6.7c3.1-0.8,6.5-3.1,9.2,0.7c-2.6,5-7.9,6.7-12.3,9.1c-5.7,3.1-8.2,6.7-5.7,13.2c1.3,3.3,2.4,7,1.2,10.8
			c-2.1,6.3-7.9,6-12.9,7.1C248.5,269.6,247,272.6,244.7,274.6z"/>
		<path class="st8" d="M248.1,198.4c-5,4.8-7.9,10.7-10.2,17.1c-1,2.9-1.3,6.2-4,8.3c1.1-13.1,7.6-23.8,15.5-33.7
			c13.5-17.1,31.5-28.1,52.5-32c13-2.4,26.7-2,40.5,1.6c20.4,5.4,35.8,16.5,48.6,32.5c-6.3-0.9-7.8-8.9-14.2-9.6
			c-3.8-0.7-6.5-3.5-9.5-5.5c-37.2-24.5-82.8-18.4-112.2,15.2C253,194.5,251.6,197.7,248.1,198.4z"/>
		<path class="st9" d="M251.3,267.7c4.3-1.8,10.2-0.1,12.8-5.8c2.4-0.6,4.7-0.1,6.7,1.3c6,2.7,12.3,0.9,18.5,1.2
			c8.1,0.3,16.2,0,24.3,0c3.3-0.2,6.6,0.2,9.8,0c15.9,0.1,31.8,0,47.8,0c2.6,0,5.1,0.3,7.1,2.2c5.3,0,10.6-0.5,15.8,0.2
			c8.5,1.1,11.2-4.2,12.7-10.7c3.2-13.2,0-25.9-3.1-38.6c-1-1.6-1.2-3.2,0-4.8c7,6.8,5.6,16.3,7.8,24.6c3.1,11.9-0.7,23.1-4.6,34.1
			c-2.6,0-5.2,0.1-7.8,0.1c-44.8-1.5-89.7-0.2-134.5-0.7C260,270.7,254.9,272,251.3,267.7z"/>
		<path class="st8" d="M403.7,212.7c0,1.6,0,3.2,0,4.8c-4.2-6.4-8.4-12.8-9.6-20.6C398.5,201.4,401.2,206.9,403.7,212.7z"/>
		<path class="st10" d="M251.3,267.7c44.9,0.1,89.9,0.2,134.8,0.4c2.9,0,5.8,0.1,8.7,0c2.6-0.1,4,0.9,4.2,3.4
			c1.3,8.3-2.8,9.6-10.2,9.5c-46.4-0.2-92.7,0-139.1,0.1c-5,0.4-4.9-3.2-5-6.5C244.2,269.8,246.1,267.2,251.3,267.7z"/>
		<path class="st11" d="M257.6,309.5c-2.4-3.8-4.8-7.5-7.1-11.4c-1.3-2.2-3.2-4.6-1.9-7.3c1.4-3.2,4.6-1.9,7.1-1.9
			c38.6-0.1,77.1-0.1,115.7-0.1c4.5,0,9-0.1,13.5,0c6,0.2,7.6,3.1,4.8,8.3c-2,3.7-4.4,7.2-6.6,10.8c-5.6,4.7-9.5,11-15.7,15.3
			c-4.6,3.2-8.9,5.3-14.4,5.3c-22.2,0-44.4-0.1-66.6,0c-6.3,0-11.2-2.5-15.5-6.7C266.5,317.8,262,313.6,257.6,309.5z"/>
		<path class="st12" d="M248.1,198.4c22-32.2,59.2-45.8,97.9-34.4c11.4,3.3,22.5,9,30.7,18.6c7.7,8.6,15.6,17.1,19,28.7
			c1.3,4.4,1.9,8.7,1.6,13.3c-0.1,2,0.8,4.6-2.1,5.3c-2.4,0.5-3.9-1.4-5.1-3.2c-4.1-6.5-9.4-11.3-17-13.4c-3.9-1.1-5.3-4.5-6.9-8.1
			c-1.5-3.3-2.5-9.2-8.7-5.1c-2.7,2.3-6,2.3-9,1.7c-8.6-1.8-17.4-0.6-25.9-2.3c-3.7-0.7-6.9,0.2-9.1,3.2c-3.7,5.1-8.5,9.4-10.4,15.7
			c-1.1,2.6-3,4.6-5.4,6c-3.4,0.3-6.4,1.6-9.4,3.4c-2,1.2-3.9,3.8-6.9,1.9c-7.9-1.8-13.7,3.9-20.7,5.5c-1.8,0.4-3.3,1.8-5.1,2.1
			c-10.3,2-16.3,1.2-15.7-11.1C240.5,216.1,245,207.5,248.1,198.4z"/>
		<path class="st13" d="M302.5,218.8c-1.4-1.9-1.2-3.2,0.2-5.5c6.8-11.5,14.6-19.6,30-15.3c7.9,2.2,16.7,1.5,25,2.1
			c0.1,0.5,0.2,1.1,0.4,1.6c1.9,7.3-1,14-3,20.7c-1.6,5.5-6.9,5.8-11.2,4.7c-8.2-2.1-13.8,0.6-17.7,7.7c-3.4,3.6-6.8,3-10.1-0.1
			c-3.8-3.5-7.4-7.2-11-10.9C303.7,222.3,302.3,220.9,302.5,218.8z"/>
		<path class="st14" d="M378.2,266.6c-2.1,0-4.3,0-6.4-0.1c-3.6-5.2,1.6-11.1-1.4-16.3c-5.3-6.9-14-7.6-20.9-11.4
			c-3-1.6-6.3-2.4-9.2-4.3c-1.8-1.2-4.6-2-3.1-5.3c5.8-4.6,13-1.1,19.2-3.2c3,0.7,3.9,4.2,6.6,5.2c3.1,1.2,6.2,3.3,9.4,0.3
			c3.1-2.9,2.7-5.9,0.4-9.1c-0.8-1.1-1-2.4-0.9-3.7c8.9,0.2,14.5,9.9,9.3,17.4c-3.8,5.4-5,10.1-3.4,16.6
			C378.8,257.1,376.1,262,378.2,266.6z"/>
		<path class="st15" d="M357.7,227c-6.7,3.4-14.5-0.2-21.2,3.5c-1.6,4.2-4.5,7.2-8.7,8.8c-2.6-0.2-5.3-0.3-3.5-4.2
			c6.3-11.7,6.4-12.1,18.9-10c7.1,1.2,10.7-0.1,11.3-8c0.4-5.2,2.2-10.2,3.4-15.3c4.4,3.9,4.8,9,4.5,14.3
			C362.9,220.5,363.1,224.9,357.7,227z"/>
		<path class="st16" d="M357.7,227c1.6-3.7,3.1-7.3,4.7-11c3.7-0.9,6.6,0.9,9.5,2.9c1.9,3.7,9.7,5.7,3.6,11.8c-2,2-2.2,7.1-6.5,5.1
			C364.7,233.8,357.9,234.5,357.7,227z"/>
		<path class="st17" d="M281.4,229.7c5.4-1.1,8.6-8.7,15.5-5.3c3.1-0.2,4.7,2.3,6.7,3.9c3.4,3.5,7.1,6.7,10.9,9.8
			c3.6,2.9,6.1,6.4,3.6,11.4c-4,13.1-12.9,17.9-26.3,15.7c-7.1-1.1-14.6,1.3-21.7-1.4c-2-0.7-4.6,0.2-6.2-1.9c0-0.3,0-0.5,0-0.8
			c-0.5-6.5-6.6-13.9-3.1-18.5C265.6,236.4,273.9,233,281.4,229.7z"/>
		<path class="st18" d="M317.5,247.3c1.5-3.3-1.1-4.7-3-6.5c-4.2-3.9-8.4-7.9-12.6-11.9c-0.8-3.4,0.9-5.5,3.5-7.2
			c4.2,4,8.4,8,12.5,12c1.9,1.9,3.6,4.2,6.4,1.3c0.3,3.2,2.6,3,4.9,3c2,6.6-3.5,10.8-5.4,16.2c-1.1,3.1-3.8,6,0.4,8.7
			c1.1,1.8-0.1,2.7-1.4,3.6c-3.2,0-6.5,0-9.7,0c-2.4-3.2-0.3-5.8,1.3-8.4C316.4,254.8,317.9,251.3,317.5,247.3z"/>
		<path class="st19" d="M317.5,247.3c3.4,3.2,2.1,6.3,0,9.6c-1.8,3-4.9,5.5-4.5,9.6c-13.8,0-27.6,0-41.5,0.2c-3.1,0-4-0.5-1.4-3
			c9.6-0.1,19.3-0.7,28.9-0.1c6.6,0.4,10.8-1.4,13.2-7.7C313.6,252.8,315.8,250.2,317.5,247.3z"/>
		<path class="st20" d="M322.8,266.5c0.5-1,1-1.9,1.5-2.9c2.6-3,6.2-2.4,9.6-2.5c7.1-0.1,14.2-0.2,21.3,0c6.1,0.2,10.9-0.9,12.5-7.9
			c0.4-2,1.4-4,4-4.2c4.8,5.8-0.4,11.6,0.1,17.4C355.5,266.5,339.1,266.5,322.8,266.5z"/>
		<path class="st21" d="M305.4,221.7c0.1,3.1-2.5,4.7-3.5,7.2c-1.6-1.5-3.3-3.1-4.9-4.6c1.2-2.5,3-4.4,5.5-5.6
			C303.4,219.8,304.4,220.7,305.4,221.7z"/>
		<path class="st13" d="M371.7,249.1c-1.4,14.2-10.7,15.4-22.3,14.4c-8.3-0.7-16.7,0.1-25,0.2c-5.2,0.3-7-1.1-4-6.5
			c3.4-6.1,7.2-12.2,8.9-19.1c2.5-2.5,4.9-5.1,7.4-7.6c9.8,4.4,19.6,8.7,29.4,13.2C368.4,244.8,371.8,245.1,371.7,249.1z"/>
	</g>
</g>
</svg>
