<?xml version="1.0" encoding="utf-8"?>
<!-- Generator: Adobe Illustrator 21.1.0, SVG Export Plug-In . SVG Version: 6.00 Build 0)  -->
<svg version="1.1" id="Layer_1" xmlns="http://www.w3.org/2000/svg" xmlns:xlink="http://www.w3.org/1999/xlink" x="0px" y="0px"
	 viewBox="0 0 1920 1080" style="enable-background:new 0 0 1920 1080;" xml:space="preserve">
<style type="text/css">
	.st0{fill:#FFFFFF;}
</style>
<g>
	<g>
		<path d="M764.7,644.3c-7,0-13.7,0.1-20.3-0.1c-1.3,0-2.7-1.2-3.7-2.2c-13.2-13.1-26.5-26.3-39.6-39.6c-1.2-1.2-2-3.4-2-5.2
			c-0.1-17.2-0.2-34.3,0-51.5c0-1.9,1-4.2,2.4-5.6c12.8-13.1,25.8-26.1,38.9-38.9c1.7-1.6,4.7-3,6.9-2.7c11,1.5,19-2.9,27-10.2
			c22.8-21,46.3-41.2,69.7-61.6c1.8-1.6,4.6-2.6,7-2.6c49.7-0.1,99.3-0.2,149,0c2.5,0,5.5,1.3,7.4,2.9
			c25.8,23.2,51.4,46.5,77.2,69.7c1.8,1.6,4.6,2.8,7,3c53.5,3.5,107.1,6.9,160.6,10.4c1.9,0.1,4.2,1.2,5.6,2.5
			c13.1,12.8,26.1,25.8,39,38.8c1.3,1.3,2.3,3.7,2.3,5.6c0.2,13.3,0.2,26.7,0,40c0,1.9-1,4.2-2.3,5.6
			c-12.8,13.1-25.8,26.1-38.9,38.9c-1.6,1.5-4.2,2.4-6.5,2.6c-3.6,0.4-7.2,0.1-10.9,0.1c5.3-32.5-3.9-59-30.9-77.3
			c-24.7-16.7-51.4-17.5-76.9-2.3c-29.8,17.7-40.1,45.3-34.7,79.4c-63.5,0-126.9,0-190.8,0c5-27.9-1.9-52.1-23-71.2
			c-16.1-14.5-35.4-20.2-56.9-17.8C788.8,559.3,755.2,596.2,764.7,644.3z M1035.8,498.8c-14.9-13.5-29-26.5-43.3-39.2
			c-1.2-1.1-3.3-1.4-5-1.4c-18.7-0.1-37.3-0.1-56,0c-1.1,0-2.2,0.2-3.3,0.4c0,13.5,0,26.8,0,40.3
			C963.9,498.8,999.3,498.8,1035.8,498.8z M814.5,498.5c26.8,0,52.8,0,78.9,0c0-13.6,0-26.8,0-40.4c-11,0-21.6-0.1-32.3,0.1
			c-1.1,0-2.5,0.9-3.4,1.7c-13.8,12.1-27.5,24.2-41.3,36.3C815.9,496.7,815.5,497.3,814.5,498.5z"/>
		<path d="M1169.1,684c-31.2,0-56.6-25.3-56.7-56.5c-0.1-31.3,25.4-56.8,56.9-56.7c31.2,0.1,56.6,25.5,56.5,56.6
			C1225.8,658.5,1200.2,684,1169.1,684z M1169.1,604.9c-12.6,0-22.5,9.9-22.5,22.5c0,12.5,10,22.6,22.5,22.6
			c12.4,0,22.6-10.3,22.6-22.6C1191.7,614.9,1181.6,604.9,1169.1,604.9z"/>
		<path d="M892.4,628c-0.4,31.5-26,56.4-57.6,56c-30.9-0.4-56-26.4-55.7-57.6c0.4-31.1,26.2-56,57.5-55.6
			C867.8,571.1,892.8,596.7,892.4,628z M858.2,627.3c0-12.7-9.9-22.4-22.5-22.4c-12.5,0-22.6,10.1-22.6,22.5
			c0,12.4,10.3,22.6,22.7,22.5C848.3,649.9,858.3,639.8,858.2,627.3z"/>
		<path class="st0" d="M1035.8,498.8c-36.5,0-71.9,0-107.6,0c0-13.5,0-26.8,0-40.3c1.1-0.1,2.2-0.4,3.3-0.4c18.7,0,37.3-0.1,56,0
			c1.7,0,3.8,0.4,5,1.4C1006.8,472.3,1020.9,485.2,1035.8,498.8z"/>
		<path class="st0" d="M814.5,498.5c1-1.2,1.4-1.8,2-2.3c13.7-12.1,27.5-24.2,41.3-36.3c0.9-0.8,2.2-1.7,3.4-1.7
			c10.6-0.1,21.3-0.1,32.3-0.1c0,13.6,0,26.8,0,40.4C867.3,498.5,841.3,498.5,814.5,498.5z"/>
		<path class="st0" d="M1169.1,604.9c12.5,0,22.6,10,22.6,22.5c0,12.4-10.2,22.6-22.6,22.6c-12.5,0-22.5-10.1-22.5-22.6
			C1146.6,614.7,1156.5,604.9,1169.1,604.9z"/>
		<path class="st0" d="M858.2,627.3c0,12.6-9.9,22.6-22.4,22.7c-12.4,0-22.6-10.1-22.7-22.5c0-12.4,10-22.5,22.6-22.5
			C848.4,604.8,858.2,614.6,858.2,627.3z"/>
	</g>
</g>
</svg>
