<?xml version="1.0" encoding="utf-8"?>
<!-- Generator: Adobe Illustrator 21.1.0, SVG Export Plug-In . SVG Version: 6.00 Build 0)  -->
<svg version="1.1" id="Layer_1" xmlns="http://www.w3.org/2000/svg" xmlns:xlink="http://www.w3.org/1999/xlink" x="0px" y="0px"
	 viewBox="0 0 672 564" style="enable-background:new 0 0 672 564;" xml:space="preserve">
<style type="text/css">
	.st0{fill:#3AACDF;}
	.st1{fill:#2585B6;}
	.st2{fill:#36A0D1;}
	.st3{fill:#287CA7;}
	.st4{fill:#47A4CE;}
	.st5{fill:#2E98C9;}
	.st6{fill:#B3CDD7;}
	.st7{fill:#3196C6;}
	.st8{fill:#2990C3;}
	.st9{fill:#42BAED;}
	.st10{fill:#FEFEFE;}
	.st11{fill:#3CB0E3;}
	.st12{fill:#FDFEFE;}
	.st13{fill:#3792BA;}
	.st14{fill:#267093;}
	.st15{fill:#216B8E;}
	.st16{fill:#35A4D6;}
	.st17{fill:#329DCF;}
	.st18{fill:#2C7EA4;}
	.st19{fill:#389DCA;}
	.st20{fill:#307EA1;}
	.st21{fill:#2E8EBA;}
	.st22{fill:#2D7292;}
	.st23{fill:#2E7899;}
	.st24{fill:#3287AD;}
	.st25{fill:#3594BF;}
	.st26{fill:#2A6581;}
	.st27{fill:#1D5C7A;}
	.st28{fill:#399AC4;}
	.st29{fill:#3FB0E1;}
	.st30{fill:#3382A4;}
	.st31{fill:#F8FAFB;}
	.st32{fill:#F9FBFC;}
	.st33{fill:#40B1E2;}
	.st34{fill:#FCFDFE;}
	.st35{fill:#4694B5;}
	.st36{fill:#EFF6F9;}
</style>
<g>
	<g>
		<path class="st0" d="M277.9,209.1c-0.5-2.3,1.9-3.2,2.4-5.1c5-7.6,11.1-14.1,18.9-19.1c0.3-0.1,0.6-0.1,0.9,0
			c3-1.8,5.2-5.5,9.6-4.4c1.6,3.1-1.1,4.3-2.8,5.7c-3.6,2.9-7,6-9.5,9.9c-5.8,6.9-10.8,14.3-12.9,23.2c-1.7,7.2,0,9.4,7.5,9.5
			c6,0.1,12-0.2,18.1,0.1c5.4,0.2,7.7-1.9,7.6-7.4c-0.1-4-1-8.7,3.7-11.3c4,6.7,6,14.4,10.7,20.7c0.2,4.1,3.4,5.7,6.1,7.9
			c1.9,1.6,4.9,2,5.8,4.8c-11.2,3.6-21.4,8.6-29.8,17.5c-2.2,2.3-7.2,1.7-10.6,3.6c-1.8,0.5-3,1.9-4.5,2.9c-7.9,5.3-17.6,3-22.3-5.3
			c-9-15.9-5.8-31.8-0.2-47.7C277.1,212.8,279.1,211.3,277.9,209.1z"/>
		<path class="st1" d="M299.9,326.5c-4.2-5-7.7-10.4-10.5-16.3c0.4-3.2-4.3-4.8-2.5-8.4c3.6-0.4,5,2.4,6.8,4.6
			c6.2,7.4,11.4,15.5,17.5,22.9c4.7,5.8,10.4,10.5,16.3,14.9c2.8,2.1,5.9,3.1,9.4,3.1c9,0.1,17.9,0.1,26.9,0c1.8,0,3.7,0,5.2-0.9
			c8.1-5.1,15.3-11.2,21.8-19.4c-3.4-1.5-5.8-0.5-8.1-0.4c-6.4,0.1-11.7-1.9-15.8-7.1c-7-8.8-19.7-8.9-27.3-0.4
			c-7.3,8.1-18.1,10.1-25.8,4.3c-2.9-2.2-7.3-4.6-3.4-9.6c3,0.1,5,2.3,7.4,3.7c8.4,3.3,12.6,2.4,17.9-4.5c3.1-4,6.9-6.1,12-6
			c6,0.1,12-0.1,18-0.1c3.1,3.4,4.7,8,8.9,10.5c8.8,5.2,16.3,2.7,18.5-6.9c3.3-14.3,6.4-28.6,3-43.4c-0.1-1.5,0-2.8,1.1-3.9
			c4.9-0.1,4.2,3.8,4.4,6.7c0.8,10.9,3,21.8-0.9,32.6c-0.8,2.2-0.6,4.9,0.7,7.7c3.3-1.1,4.3-4.4,6.4-6.3c2.1-1.9,3.1-5.9,7.3-3.8
			c0.5,1,0.4,2,0.1,2.9c-4,5.9-7.1,12.3-11.1,18.2c-4,8.1-9.1,15.5-15,22.3c-3.1-1.1-3.8,1.6-5.1,3.2c-8.3,10.2-16.9,20.2-25.7,30.1
			c-5.8,6.5-11.4,6.4-17.6-0.1c-11.3-11.8-20.5-25.4-31.8-37.2C305.2,335.7,303.3,330.6,299.9,326.5z"/>
		<path class="st2" d="M277.9,209.1c2.6-0.9,2.8,0.6,2,2.3c-4.8,9.3-6.5,19.3-7.1,29.5c-0.5,9.1,2.4,17.6,8.2,24.6
			c3.6,4.3,12.7,4.2,17.1,0.6c1.7-1.4,3.1-3.3,5.7-2.8c4.4,4.2,6,8.8,3.1,14.8c-1.5,3.1,0.2,7.1-1.8,10.4c-2.6,1.2-2.2-0.5-2.3-1.9
			c-0.1,0-0.5,0.3-0.6,0.7c-2.1,9.1-7.1,10.6-13.9,4.2c-8-7.6-11.8-17.8-16.8-27.4c-1.1,0.8-0.7,2.7-2.2,3.2
			C261.3,246.2,267,227.3,277.9,209.1z"/>
		<path class="st3" d="M309.9,338.4c9.2,8.5,16.1,18.8,24.2,28.2c3.3,3.9,6.6,7.9,10.2,11.5c3.6,3.6,9,2.4,12.7-2
			c8.9-10.5,17.8-21,26.8-31.5c1-1.2,2.1-2.5,3.4-3.2c2.8-1.7,1.8,1.1,2.2,2.1c-11.6,15.7-22.4,32-35.2,46.8c-4.8,5.5-5,5.7-9.6-0.2
			c-12-15.7-24.5-31-34.8-47.9C309.1,340.9,308.9,339.7,309.9,338.4z"/>
		<path class="st4" d="M414.7,303.5c0.1-0.9,0.1-1.8,0.2-2.8c1.1-6.1,5-10.9,7.6-16.3c5.3-11,8.9-22.4,9.4-34.6
			c-1.4-22.3-8.6-42-26.1-56.8c-14.4-12.7-30.6-21.3-50.3-21.6c-4.4-1.1-8.8-1.1-13.1,0c-10,0.6-19.4,2.9-28,8.3
			c-1.3,0.8-2.8,1.4-4.5,1.3c-4-0.6-6.2,3.5-9.8,4c6.7-7.2,15.4-11.3,24.4-14.1c40.6-12.9,79.7,5.9,100,38.8
			c8.6,14,13.4,29.5,11.4,45.9c-1.7,14.2-8.3,27.1-15,39.8c-1.7,3.3-3.9,6.4-5.9,9.6c-0.5-0.2-0.7-0.5-0.6-0.8
			C414.5,303.7,414.5,303.5,414.7,303.5z"/>
		<path class="st5" d="M269.3,267.2c0.2-2.4,0.4-4.7,0.6-7.1c0.4-0.1,0.9-0.3,1.3-0.4c2.8,5.6,5.8,11.2,8.5,16.9
			c2.3,4.9,5.5,9.2,9.2,13c6.3,6.6,9.4,5.8,12-2.7c0.2-0.6,0.8-1,1.3-1.7c0.8,1.2,1.4,2.3,2.1,3.4c1.7,0.8,2.2,2.3,2.4,4
			c-0.6,3.9,0.9,7.5,1.3,11.2c0.4,3.8,0.2,7.5-3.5,9.3c-3.7,1.7-6.4-1.1-8.4-3.7c-5.7-7.6-12-14.8-15.9-23.1c1.2,5.4,6.8,9.5,7,15.8
			c-0.1,3,3.8,4.8,2.4,8.2C281.2,296.7,273.2,282.9,269.3,267.2z"/>
		<path class="st6" d="M299.2,185c-6.3,6.3-12.6,12.7-18.9,19.1C284.1,195.2,290.4,188.8,299.2,185z"/>
		<path class="st7" d="M414.7,303.5c0.1,0.5,0.2,0.9,0.3,1.4c-3.3,5.6-5.7,11.8-10.7,16.2C406.9,314.8,409.9,308.6,414.7,303.5z"/>
		<path class="st8" d="M309.9,338.4c0,1.3,0,2.5,0,3.8c-3.9-4.8-7.6-9.8-9.9-15.7C304.7,329.3,305.3,335.5,309.9,338.4z"/>
		<path class="st9" d="M322.1,210.6c-4.4,3.7-2.8,8.7-2.7,13.2c0.1,5.1-1.5,7.4-6.9,7.1c-7.6-0.3-15.2,0-22.7-0.1
			c-6.9-0.1-9.3-3-7.8-9.7c2.3-10.2,7.7-18.8,14.5-26.6c9.3-8.5,18.7-16.8,31.1-20.3c32.7-9.4,66.3,1.4,85.6,29.6
			c3.2,4.7,5.2,9.8,4.8,15.7c-0.3,4.8-2.6,7.4-7.5,7.7c-4.9,0.2-9.8,0.2-14.8,0.1c-6.8-0.2-8.6-1.9-9.5-8.6
			c-0.9-6.9-2.2-13.7-6.6-19.4c-3.2-3.6-6.3-7.2-10-10.2c-2.9-3.4-6.5-4.8-11-4c-5.5-0.3-11-1.2-16.5,0.9
			c-8.4,3.3-14.2,8.9-16.6,17.8C324.9,206.2,325.1,209.2,322.1,210.6z"/>
		<path class="st10" d="M305.6,292.7c-0.4-1.4-0.9-2.7-1.3-4.1c0.2-5.5-0.7-11.1,2.5-16.1c1.2-1.8,0.6-2.6-1-3.6
			c-2.1-1.3-2.9-3.3-2-5.7c9.3-1.2,14.4-8.9,21.2-13.9c5.6-4.1,12.4-4.5,18.8-6.2c0.4-0.7,1-1.1,1.7-1.4c3.6-1,7.3-0.7,11-0.2
			c7.8,1.5,15.7,2.6,22.3,7.5c2.4,1.6,4.6,3.6,6.2,6c1.6,2.4,3.7,3.8,6.7,3.8c2.3,0.3,4.3,1.1,5.5,3.3c0.1,0.3,0.1,0.6,0.2,0.9
			c0,1.3,0.1,2.7,0.1,4c-1.8,4.7-0.2,9.3,0.6,13.8c0.4,2.2,1.1,4.4,0.3,6.6c-2.4,7.2-4.2,14.5-5.4,22c-1.5,9.4-10.3,12.6-19.7,8.3
			c-3.8-2.4-7.1-5.2-7.1-10.3c-5.8-0.4-11.5,0-17.3-0.1c-6.4-0.2-11.7,0.4-15.5,7.3c-3.5,6.3-10.3,5.8-16.7,3.7
			c-1.9-1.4-4.5-1.7-5.7-4.1c-1.9-1-3.8-2.3-3.4-4.5C308.5,303.8,306.1,298.4,305.6,292.7z"/>
		<path class="st11" d="M379.9,197.1c6.1,5.5,7.2,13.2,7.9,20.6c0.5,5.6,2.2,8.2,8.1,7.7c5.1-0.4,10.3-0.1,15.4-0.1
			c3.3,0,4.6-1.6,5-4.9c1.1-9.5-4.2-16.3-9.7-22.7c-12.1-14-27.9-23.3-46-25.2c-21.7-2.3-42.6,2.7-59.2,18.8c-1.4,1.4-2.7,3-5,3
			c3.2-5.7,9.6-8.3,13.4-13.5c9.4-7.6,20.2-11.1,32.3-10.8c4.5-1.1,9-1.1,13.4,0c20.4-0.7,36.5,8.7,51.2,21.6
			c10.1,10.2,17.8,21.9,20.8,36c1.8,8.3,2.5,16.8-1.6,24.9c-2.1,4.2-5.3,6.5-10,6.7c-10,0.4-19.6-1-28.2-6.7
			c-3.2-2.1-6.7-3.6-10-5.5c-6.5-3.6-7.3-6.2-2.7-12.1c5.3-6.9,7.4-14.6,7-23.2c-0.2-3-1-5.7-1.9-8.5
			C379.6,201.4,378.2,199.4,379.9,197.1z"/>
		<path class="st12" d="M322.1,210.6c1.9-14.5,9-24.5,24.1-27.7c4.7-1,8.9,0.6,13.3,1.1c3.3,0.1,6.1,1.8,8.9,3.3
			c4.9,4.4,8.6,9.5,10.4,15.9c6.7,18.9-11.9,42-34.7,37c-4.7-2-10.5-2.4-13-8C326.6,225.6,321.4,219.3,322.1,210.6z"/>
		<path class="st13" d="M331.1,232.2c4.2,2.2,8.3,4.4,12.5,6.6c0.3,1.4,2.5,2.3,1.3,4.2l-0.5,0.2c0,0-0.6-0.1-0.6-0.1
			C338.2,241,332.1,239.5,331.1,232.2z"/>
		<path class="st8" d="M305.6,292.7c3.5,4.2,4.1,9.2,3.3,14.3c-0.5,2.9,1.1,4.9,2,7.3c-2.4,5.5,2.6,7.2,5.5,8.9
			c7.6,4.4,16.6,1.8,21.9-5.3c7-9.4,23.3-9.3,29.8,0.4c5,7.4,12,7.5,19.6,6.1c1.7-0.3,3.7-1.4,4.9,0.3c1.4,1.9-0.5,3.3-1.5,4.7
			c-5.3,8-13.4,12.9-20.6,18.8c-1.7,1.4-3.8,1-5.8,1c-6.7,0-13.5-0.7-20.1,0.2c-11.7,1.5-20.1-3.9-27.9-11.4
			c-9.5-9.2-16.3-20.5-24.5-30.8c-1.5-1.9-3-3.9-5.2-5.1c-4.7-6.2-7.8-13.2-9.4-21c4.9,6.9,9.7,13.8,14.6,20.7
			c1.7,2.4,3.2,4.8,5.1,7.1c1.7,2,3.9,4.5,6.7,3.2c2.5-1.2,2.6-4.3,2.6-7.1C306.6,300.8,303.2,297,305.6,292.7z"/>
		<path class="st7" d="M433.6,249.6c-0.8,19-8.1,35.7-18.8,51.1c-5.7,0.8-6.2,6.6-9.5,9.7c-1.4,1.3-2.2,3.8-4.6,3.1
			c-2.3-0.8-1.9-3.2-2.1-5.2c-0.3-4.5,0.9-8.8,2-13.1c2.5-10-1.1-19.9-1.1-29.9c0-0.7-1.5-1.5-2.3-2.2c0,0-0.1,0.1-0.1,0.1
			c1.2-3.6,3.1-2,4.8-0.6c2,1.7,2.4,4.2,2.4,6.7c0,4.3,0.6,8.5,2.1,12.5c0.8,2.1,0.2,5.6,3.3,5.9c2.6,0.2,3.8-2.7,5.3-4.7
			c6.1-8.1,10.4-17.1,13.2-26.9C429.1,253.3,429.2,249.6,433.6,249.6z"/>
		<path class="st14" d="M373.2,317.8c2.4,0.1,4.9,0.3,7.3,0.2c6.7-0.2,11.2-4,11.2-10.6c0-5.7,1.1-10.7,3.6-15.9
			c2.6-5.3,2.7-11.5-0.3-16.7c-2.4-4.1-0.4-5.8,2.3-7.8c1.3,9.3,4.5,18.6,0.7,27.8c-2.4,5.9-1.6,12.3-3.4,18.2
			c-1.5,5.1-5.1,7.6-9.9,8.6C380.2,322.7,376,322.3,373.2,317.8z"/>
		<path class="st15" d="M316.6,318.4c2.7-0.1,5.3-0.1,8-0.3c4.7-0.4,8.6-2.8,9.2-7.3c0.6-4.7,2.8-5.1,6.5-5c6.9,0.2,13.8,0,20.8,0.1
			c1.7,0,4.2-1.3,4.9,1.8c-5.1,2.5-10.6,1.3-15.9,1.1c-6.5-0.2-11,1.6-14.4,7.4C332.1,322.2,322.7,323,316.6,318.4z"/>
		<path class="st16" d="M433.6,249.6c-4.8,4.6-4.5,11.4-7,16.9c-3.6,8-8.1,15.3-13.7,22c-3.6,4.2-5.9,3.1-7-1.9
			c-1.3-6.1-3.7-11.8-3.3-18.3c0.3-4.8-0.9-5.5-5.4-5.2c-1.5-1.4-3.2-2.3-5.2-2.7c-5.3-2-7.5-8.5-13.5-9.6
			c-6.5-4.6-14.2-5.9-21.7-7.7c5.9-3,11.8-6.2,16.2-11.4c7.3-8.9,9.3-18.5,4.3-29.2c-2.8-5.2-5.4-10.7-10-14.6c1-1.1,2-0.9,3.1-0.1
			c3.6,2.7,6.7,5.8,9.4,9.4c4.3,9.9,6,19.9,1.8,30.4c-1.5,3.8-4,6.9-6.4,10.1c-1.4,1.9-3.4,4.5,0.1,6.2
			c12.1,5.8,22.9,14.9,37.6,13.9c8.9-0.6,13.5-4.3,14-13.3c1.1-18.3-4.9-34.2-17.1-47.7c-1.3-1.5-3.1-2.7-3-5
			c15.1,12.2,22.6,28.5,25.5,47.3C432.8,242.6,434.3,245.9,433.6,249.6z"/>
		<path class="st0" d="M355.6,170.2c-4.5,0-9,0-13.4,0C346.7,168.1,351.2,168.1,355.6,170.2z"/>
		<path class="st11" d="M370.4,187.7c-1,0-2.1,0.1-3.1,0.1c-2.6-1.3-5.2-2.6-7.8-3.9C364.3,182,367.5,184.4,370.4,187.7z"/>
		<path class="st17" d="M371.8,296.6c-10.8,0-21.5,0-32.3,0c-5.2-3.4-4.9-8.6-4.1-13.7c0.4-2.6,2.2-4.8,4.8-4.9
			c9.7-0.5,19.5-1.9,29.1,1c3.2,3.4,1.3,8.6,4.5,12C373.8,293,373.3,295,371.8,296.6z"/>
		<path class="st18" d="M371.8,296.6c0.1-1.9-0.6-3.9,1.4-5.3c7.6-5.2,7.8-6.6,1.8-11.3c-14.8-3.2-29.6-3.4-44.3,0.2
			c-1.5,0.5-3,0.5-4.5,0.8c-2,0.4-3.9,0.9-4.4,3.3c-0.3,1.7,0.3,3.1,1.8,4c2,1.3,3.8,0.7,5.4-0.8c0.8-0.7,1.5-1.6,2.4-2.3
			c3.7-1.9,5,0.1,4.8,3.3c-0.2,3.3-1,6.6-4.6,8.1c-6.8,0.6-13.5,1.1-17-6.6c0.8-2-0.5-3.9-0.3-6c0.6-6.1,5-10.1,12-10.1
			c19.3-0.1,38.5,0,57.8-0.1c5.1,4.8,5.2,10.5,2.5,16.3C383.5,296.3,378,297.5,371.8,296.6z"/>
		<path class="st19" d="M377.2,263.1c0.5,1.6-0.9,1.2-1.5,1.2c-16.1,0-32.1-0.1-48.2-0.2c0-2,1.6-2.2,3-2.7c4.5-0.6,7.4-4.6,12-5.6
			C355.3,252.9,366.7,255.5,377.2,263.1z"/>
		<path class="st20" d="M377.3,202.5c6.2,4.6,3.6,11.3,3.7,17.1c0.1,8.1-14.7,24.9-24.2,23.5c-4-0.1-8-0.1-12-0.2
			c0.2-1.6-3.2-2.1-1.3-4.2c9.3,0.6,18.3,0.1,25.6-6.9C377.8,223.7,379.7,213.7,377.3,202.5z"/>
		<path class="st21" d="M328.8,279.2c3.5-2.2,7.3-3,11.5-2.7c12.3,1,24.9-2.1,37,2.3c-1.9,2.4-4.2,2.9-7,1.7c-9.6-2.5-19.4-1-29-1.1
			c-4.1,0-6.1,6.7-3.9,12.5c0.6,1.6,1.5,3.1,2.2,4.7c-2.7,0-5.4,0-8.1,0c1.2-2.3,2.6-4.5,3.4-6.9c0.7-2.3,1.3-5.2-3-3.7
			C329.4,284.3,328.2,282.2,328.8,279.2z"/>
		<path class="st22" d="M383.9,273.8c-2,2.2-4.6,1.3-6.9,1.3c-15.8,0.1-31.6,0-47.5,0c-11,0-13.4,2.4-13.8,13.6
			c0,0.4-0.9,0.8-1.3,1.1c-2.8-5.9-2.4-11.3,2.4-16.1c5.2-1.5,10.6-0.7,15.9-0.6C349.8,273.4,366.8,272.4,383.9,273.8L383.9,273.8z"
			/>
		<path class="st23" d="M330.1,263c-0.8,0.3-1.7,0.7-2.5,1c-1.3-0.1-3.2,0.4-3.8-0.3c-1-1.2,0.4-2.4,1.3-3.3
			c8.9-8.4,19.9-9.1,31.2-7.7c3.8,0.5,7.5,1.7,11.3,2.5c-0.8,3.2-3.3,1.8-4.8,1.4C351,254.2,339.9,255.3,330.1,263z"/>
		<path class="st24" d="M330.1,263c4.3-7.2,11.8-7.3,18.7-7.9c6.2-0.5,12.6,0,18.9,0.1c4.2,1.4,7.7,3.6,9.6,7.8
			c-6.5,1-10-5.6-16.5-6c-9.4-0.6-18.4-1.7-26.2,5.2C333.6,263.2,331.6,262.8,330.1,263z"/>
		<path class="st18" d="M383.9,273.8c-22.4,0-44.7,0-67.1,0c0.9-1.4,2.3-1.2,3.6-1.2c20,0,39.9,0,59.9,0
			C381.6,272.7,383,272.3,383.9,273.8z"/>
		<path class="st25" d="M378.5,250.9c7.1-0.4,9.6,5.5,13.5,9.6c-3.5,1-5.8-0.1-7.7-3.3C382.8,254.8,380.5,253,378.5,250.9z"/>
		<path class="st26" d="M322,309.2c-2.1-0.2-4.1,0.2-4.1-2.5c0-2,1.3-2,2.6-1.5c1.7,0.8,4.7-0.5,5,1.9
			C325.9,309.7,323.1,308.7,322,309.2z"/>
		<path class="st27" d="M374.2,306.1c3.7,0.1,6-2,8.4-0.1c0.3,0.3,0,2.1-0.3,2.3C379.7,309.3,377,310.2,374.2,306.1z"/>
		<path class="st28" d="M361,226.7c-9.4,6.3-18.1,4.9-25.4-4c-2.8-6-3.9-12.3-0.6-18.4c2.3-4.2,4.6-8.8,10.8-7.8
			c0.6,0.4,0.9,0.9,1,1.6c-0.7,3.2-3.7,4.8-5.5,7.3c-5.3,7.6-2.6,16.1,6,18.6c5,1.3,5.3-2.3,5.8-5.6c4-6.4,3.1-12.8,0.5-19.4
			c-0.1-0.6,0-1.3,0.2-1.9c1.2-2.5,3.7-2.2,5.8-2.5c3.6,0.7,5.4,3.4,6.9,6.4c-7.3,5.1-5.1,12.9-5.4,19.9
			C361,222.9,362.6,224.8,361,226.7z"/>
		<path class="st29" d="M361,226.7c-3.9-7.1-0.7-14.5-1.2-21.8c-0.3-4.9,4.4-2.7,6.7-3.9C372.1,210.8,370.2,220,361,226.7z"/>
		<path class="st30" d="M359.6,194.6c-1.8,0.9-3.7,1.7-5.5,2.6c-2.7,0.9-5.3,0.1-7.9-0.1c-8,1.8-13.2,10.3-11.5,18.6
			c0.5,2.3,1.7,4.5,0.9,6.9c-6.1-8.4-5.7-18.2,1.2-25.3C343.2,190.8,352.2,189.7,359.6,194.6z"/>
		<path class="st31" d="M370.2,280.5c2.1-1.4,4.5-1.9,7-1.7c2.9,1.7,4.9,4,3.8,7.6c-1.2,3.7-4.1,5-7.8,4.8
			C369,288.5,367.6,285.1,370.2,280.5z"/>
		<path class="st32" d="M328.8,279.2c1.8,1.9,3.1,4,3.1,6.7c-1.5,3.6-3.9,6.2-8.2,4.8c-3.1-1-4.8-3.5-4.3-6.7
			C320.3,278.4,324.8,279.2,328.8,279.2z"/>
		<path class="st33" d="M347.3,225.4c-4.7,0.4-7.4-2-9.1-6.1c-2.2-5.3-1.8-10.5,1.7-15c1.7-2.2,4.2-3.9,6.3-5.9
			c2.4,2,1.8,4.9,1.9,7.5c0.1,3.1,0.8,5.7,3.3,7.7c1.4,1.7,0.2,2.9-0.7,4.2C348.3,219.9,348.7,223.1,347.3,225.4z"/>
		<path class="st34" d="M351.2,215.4c-3.7-0.5-5.3-2.5-5.1-6.3c0.2-3.5,0-7.1,0-10.6c0-0.5,0.1-0.9,0.1-1.4c2.7-2.2,5.3-1.8,7.9,0.1
			c0.2,0.5,0.4,0.9,0.6,1.4c0.3,3.1,1.2,6.2,1.2,9.3C356,211.2,355.8,214.8,351.2,215.4z"/>
		<path class="st35" d="M351.2,215.4c4.4-2.1,3.1-6.2,3.3-9.7c0.1-2.4,0.1-4.8,0.2-7.1c3.7,6.9,4.5,13.8-0.6,20.5
			c-2.1,0.9-3.8,0.1-5.1-1.5C349.7,216.9,350.5,216.2,351.2,215.4z"/>
		<path class="st36" d="M349,217.6c1.7,0.5,3.4,1,5.1,1.5c0.5,6.8-0.5,7.8-6.8,6.4C345.3,222.3,346.2,219.7,349,217.6z"/>
	</g>
</g>
</svg>
