<?xml version="1.0" encoding="utf-8"?>
<!-- Generator: Adobe Illustrator 21.1.0, SVG Export Plug-In . SVG Version: 6.00 Build 0)  -->
<svg version="1.1" id="Layer_1" xmlns="http://www.w3.org/2000/svg" xmlns:xlink="http://www.w3.org/1999/xlink" x="0px" y="0px"
	 viewBox="0 0 1920 1080" style="enable-background:new 0 0 1920 1080;" xml:space="preserve">
<g>
	<g>
		<path d="M902.7,578.3c-75.6,0-150.2,0-225.2,0c0-39,0-77.6,0-116.7c75,0,149.7,0,225,0c0-75.3,0-150.1,0-225.1
			c39,0,77.5,0,116.5,0c0,74.8,0,149.5,0,225c75.5,0,150.3,0,225.4,0c0,39.2,0,77.6,0,116.6c-2.2,0.1-4.3,0.3-6.4,0.3
			c-70.8,0-141.7,0.1-212.5-0.1c-5,0-6.4,1.2-6.4,6.3c0.2,70.7,0.1,141.3,0.1,212c0,2.1,0,4.3,0,6.8c-39,0-77.5,0-116.7,0
			C902.7,728.6,902.7,653.8,902.7,578.3z"/>
	</g>
</g>
</svg>
