<?xml version="1.0" encoding="utf-8"?>
<!-- Generator: Adobe Illustrator 21.1.0, SVG Export Plug-In . SVG Version: 6.00 Build 0)  -->
<svg version="1.1" id="Layer_1" xmlns="http://www.w3.org/2000/svg" xmlns:xlink="http://www.w3.org/1999/xlink" x="0px" y="0px"
	 viewBox="150 0 1520 1080" style="enable-background:new 0 0 1920 1080;" xml:space="preserve" fill="#dcdcdc">
<g>
	<g>
		<path d="M1272.9,374.2c-0.9,66-51.2,121.5-116.3,128c-18.5,1.8-36.6,0.1-54.3-5.5c-3.5-1.1-5.4-0.2-7.6,2.3
			c-52.2,57.5-104.5,114.9-156.8,172.3c-38.1,41.9-76.3,83.8-114.5,125.6c-20.4,22.3-51.1,23-72.6,1.7
			c-11.2-11.1-22.4-22.4-33.6-33.6c-21.6-21.7-21.1-52.6,1.7-73.4c68.9-62.9,138-125.7,207-188.5c30.3-27.6,60.6-55.2,91-82.7
			c2.3-2.1,2.9-3.8,2-6.8c-23.3-75.3,21-150.9,97.9-167c18.4-3.8,36.7-3.2,55,0.9c4.4,1,8.4,2.5,9.8,7.4c1.4,4.9-1.1,8.2-4.3,11.4
			c-17.4,17.3-34.8,34.5-51.9,52c-26.4,27-15.5,72.8,20.1,84.2c19.9,6.4,38,2.3,53-12.4c17.2-16.8,34-33.9,50.9-50.9
			c3.3-3.3,6.7-6.2,11.8-4.7c5.2,1.4,6.8,5.7,7.5,10.2C1270.2,354.5,1271.5,364.4,1272.9,374.2z"/>
	</g>
</g>
</svg>
