<?xml version="1.0" encoding="utf-8"?>
<!-- Generator: Adobe Illustrator 21.1.0, SVG Export Plug-In . SVG Version: 6.00 Build 0)  -->
<svg version="1.1" id="Layer_1" xmlns="http://www.w3.org/2000/svg" xmlns:xlink="http://www.w3.org/1999/xlink" x="0px" y="0px"
	 viewBox="150 0 1520 1080" style="enable-background:new 0 0 1920 1080;" xml:space="preserve" fill="#dcdcdc">
<g>
	<g>
		<path d="M713.6,757.9c19.3-32.1,42.5-59.4,76.2-75.8c9.8-4.8,20.4-8,31.1-10.5c8.3-2,17.2-1.6,25.8-2.5
			c16.4-1.8,31.5-7.2,44.3-17.8c12.5-10.4,19.3-23.7,20.6-40.1c1.2-15.4-0.6-28.8-11.7-41.3c-11.5-12.9-19.3-28.6-25.5-45
			c-1.6-4.2-5.5-7.9-9.2-10.8c-14-11.4-19.7-30.3-13.1-47.2c1.4-3.7,4.3-7.1,7.2-9.7c2.8-2.6,4.3-5,4.3-8.9c0-20.5-0.5-41,0.5-61.5
			c2.5-48.6,32.4-81.1,80.6-88.6c25-3.9,49.9-3.5,74.2,3.9c36.5,11.1,56.6,36.4,62.2,73.6c1.1,7.2,1.4,14.6,1.5,21.9
			c0.2,16.5,0.2,33-0.1,49.5c-0.1,4.9,1,8.2,5.7,10.5c1.7,0.8,3.2,2.9,4.1,4.8c7.7,14.5,5.4,33.9-5.6,46.2c-1.1,1.2-2.3,2.7-3.8,3.2
			c-7.1,2.4-9.7,7.9-12.1,14.5c-7.8,20.9-19.9,39.5-33.5,57.1c-1.5,1.9-2.5,4.7-2.6,7.1c-0.1,9.2-0.5,18.4,0.8,27.4
			c2.3,15.4,11.1,27.2,23.6,36.3c13.9,10,29.7,15.2,46.7,15.5c30.5,0.5,56.2,12.5,79.2,31.3c18.8,15.4,33.6,34.2,46,54.9
			c0.3,0.5,0.6,1.1,1.1,2.2C1059.3,757.9,886.9,757.9,713.6,757.9z"/>
	</g>
</g>
</svg>
