<?xml version="1.0" encoding="utf-8"?>
<!-- Generator: Adobe Illustrator 21.1.0, SVG Export Plug-In . SVG Version: 6.00 Build 0)  -->
<svg version="1.1" id="Layer_1" xmlns="http://www.w3.org/2000/svg" xmlns:xlink="http://www.w3.org/1999/xlink" x="0px" y="0px"
	 viewBox="0 0 672 564" style="enable-background:new 0 0 672 564;" xml:space="preserve">
<style type="text/css">
	.st0{fill:#A4D428;}
	.st1{fill:#68A826;}
	.st2{fill:#76B226;}
	.st3{fill:#97CB27;}
	.st4{fill:#5A9D25;}
	.st5{fill:#85BD27;}
	.st6{fill:#89C027;}
	.st7{fill:#94C628;}
	.st8{fill:#508D27;}
	.st9{fill:#7CB226;}
	.st10{fill:#FEFEFE;}
	.st11{fill:#92BC28;}
	.st12{fill:#79A825;}
	.st13{fill:#66901F;}
	.st14{fill:#5A871F;}
	.st15{fill:#76A328;}
	.st16{fill:#8CB827;}
	.st17{fill:#567D1E;}
	.st18{fill:#6B9929;}
</style>
<g>
	<g>
		<path class="st0" d="M289.5,186.5c12.9-4.8,25.9-4.4,38.8,0c-2.1,2.4,0.9,1.8,1.4,2.1c11,4.9,21.2,10.9,28.6,20.7
			c2.7,3.6,4.8,7.6,5.9,12c1.4,5.7-0.8,8.8-6.6,9c-8,0.3-16,0.1-24,0c-4.7,0-7.4-2.9-9.7-6.5c-4.3-6.8-9.2-13.1-16.4-17.2
			c-1.9-1.1-3.7-2.2-6-1.7c-5.3-0.8-10.2-3.3-15.8-2.8c-2.8,0.3-4.5,1-3.5,4.2c1.4,4.4,4.8,7.4,7.7,10.7c2.7,3.1,5.1,6.4,5.6,10.6
			c0.8,6.4-2.6,10.3-9.1,10.8c-5.5,0.4-9.6-2.2-13.8-5.2c-4-2.8-7.2-7.2-12.8-7.5c-1.6-0.1-3,1.6-4.7,0.5c-2.1-4.7-0.9-9,1.7-13.2
			c7.7-12.7,19.6-20.1,32.7-25.9c0.1-0.1,0.3-0.3,0.3-0.4C289.8,186.7,289.6,186.6,289.5,186.5z"/>
		<path class="st1" d="M268.3,314.7c-6.7-8.6-12.1-18.1-16.4-28.1c-0.1-1.4-2.4-2.7-0.4-4c1.3-0.9,2.6,0.2,3.7,1
			c1.7,1.4,2.9,3.2,4.1,4.9c2.7,4.1,6.3,7.4,9.8,10.8c2.5,2.4,5.6,3.7,9,3.5c16.3-1,32.7-0.1,49.1-0.5c0.6,0,1.1-0.2,2.1-1.1
			c-4.1-6.8-9.1-13.1-14.1-19.5c-2.9-3.6-6.6-6.7-8.3-11.1c0-0.7,0.4-1.1,1-1.3c3-0.3,4.5,2,6.3,3.7c7.2,7.3,14.2,14.9,21.6,21.9
			c1.8,4.1,5.3,3,8,2c4.4-1.6,7.5-4.8,8.1-9.8c0.3-2.3-0.8-4.7,0.8-6.8c0.5-0.3,1-0.4,1.5-0.4c2.9,0.9,1.8,5.6,5,5.6
			c2.6,0,3.7-3.1,5.6-4.6c0.9-0.8,2.1-1.6,3.1-0.7c2.2,1.9-0.5,3.4-0.7,5.1c-4.8,11.3-11,21.7-18.9,31.1c-1-1-0.6-2.2,0-4.1
			c-1.7,1.9-2.6,3.4-3.8,4.8c-7.3,8.1-15.4,14.2-27.4,12.9c-5.8-0.6-11.8-0.6-17.6,0c-9.7,0.9-17-3.1-23.3-9.9
			c-2.9-3.2-5.6-6.5-8-10.1C268.7,311.7,270,313.2,268.3,314.7z"/>
		<path class="st2" d="M307.1,269.9c8.1,9.4,15.9,19.1,22.9,29.3c0.9,1.3,2.6,2.4,1.8,4c-0.8,1.5-2.8,0.7-4.3,0.7
			c-13.8,0.1-27.7,0.2-41.5-0.1c-3.3-0.1-6.3,1.4-9.7,0.7c-8.3-1.6-12.4-8.2-17.3-13.8c-2.2-2.5-3.2-6.2-7-7.6c0,1.3,0,2.4,0,3.5
			c-4.3-7-8-14.3-9.3-22.6c-0.4-1.8-1.6-4.1,1-4.9c2-0.7,3,1.4,3.9,2.9c2.5,4,4.7,8.1,7.4,12c2.8,3.9,6.4,6.1,11.3,6.1
			c11.7-0.1,23.4,0,35.1-0.1c1.8,0,4.3,0.6,4.8-2.1c0.3-2.2-1.5-3.5-3.2-4.5c-2.7-1.5-5.6-1.5-8.5-1.1c-6.6,1-12.8-0.4-18.6-3.6
			c-1.9-1-3.9-1.9-3.9-4.6c1.9-1.6,3.8-0.4,5.7,0.2c6.5,3.1,13.4,0.9,20.2,1.6C301.2,266.2,305.2,265.7,307.1,269.9z"/>
		<path class="st3" d="M301.3,203.8c5.3-2.2,8.3,2.2,11.6,4.6c5.3,3.9,9.3,9.4,12.6,15.1c2.3,4.1,5.4,5.6,10,5.4
			c7.2-0.3,14.4,0,21.6-0.1c5.8,0,7.1-2,5.4-7.7c-4-13.3-14.2-20.8-25.4-27.4c-4-2.3-8.4-3.8-13.1-5.9c1.2-1.7,2.9-1,4.2-1.4
			c17.4,5.8,31.7,15.5,40.8,31.8c-0.6,3.1,1,5.6,1.9,8.4c1.7,5.5,2.9,11,2.1,16.7c-1,6.7-4.6,10.1-11.3,10.4
			c-7.6,0.3-15.2,0.4-22.9,0c-9.6-0.6-13.4-4.6-14.7-13.9c-0.7-5-0.6-10.2-3.2-14.8c-2.3-3.5-3.1-8.1-7.7-9.9
			C309.7,211,304.3,208.7,301.3,203.8z"/>
		<path class="st4" d="M268.3,314.7c0.5-2.7-2.1-4.4-2.6-7.3c5.7,3,8.1,8.4,12,12.3c5.9,6,12.3,9.7,21.1,8.9
			c6.2-0.6,12.6-0.7,18.7,0c12.4,1.3,20.1-5.7,27.1-14.2c1.8-2.2,3.2-4.7,7-5.8c-1.3,3.1-2.4,5.5-3.4,7.9
			c-4.9,8.2-9.6,16.6-16.4,23.5c-1.5-1.8-2.2-0.4-3,0.7c-4,4.8-8.5,9.1-13.1,13.4c-5.4,5-9.5,5-14.8-0.1c-5.2-5-9.3-11.1-14.8-15.8
			c-1.1-1-1.8-2.6-3.7-2.4C276.9,329.3,272,322.4,268.3,314.7z"/>
		<path class="st5" d="M271.9,264c6.6,6.1,14.4,8.1,23.1,6.5c6.2-1.1,11.6,1.5,13.2,6.5c0.9,2.8,0.6,4.5-2.9,4.5
			c-14.2,0-28.5,0.1-42.7-0.1c-4.5-0.1-7.2-3.5-9.5-7c-3.1-4.8-6-9.8-9-14.8c-2.2,1.1-1.1,3-1.6,4.3c-3.6-6.4-2.8-13.3-1.9-20.1
			c1.3-2.6,1.1-5.5,1.9-8.1c-0.2-3.4,0.8-6.4,2.7-9.2c3,0.7,2.2,3.2,2.4,5.2c0.4,3.9-0.6,7.8-0.6,11.6c0,2.9,0.6,5.8,1.8,8.5
			c1,2.3,2.4,5.2,5.4,4.3c2.7-0.8,0.9-3.7,0.9-5.7c0-2.5-2.5-6,2.3-6.9c3.2,2.2,4.8,5.6,6.3,9.1C264.6,257.8,270.3,259.5,271.9,264z
			"/>
		<path class="st6" d="M321.2,223c4.5,4.9,3.6,11.3,4.5,17.1c1.3,8.1,4.2,11.8,12.4,12.2c8.2,0.4,16.4,0.2,24.5,0
			c5.5-0.1,8.3-3.4,8.9-9.6c0.6-5.5-0.7-10.8-2.4-16c-0.9-2.8-2-5.5-0.1-8.3c6.7,11,10.3,22.9,9.7,35.9c-0.1,2.8-0.3,5.4-2.2,7.6
			c-1.5-3.4-1.5-3.4-0.6-7.6c-2,7.4-5.4,13.9-11,19.3c-3.5,3.4-6.7,3.9-10.9,1.3c-5.8-3.6-11.4-7.5-17.2-11.2
			c-4.9-3-8.6-7.4-12.5-11.5c-2.1-2.2-3.6-5.1-3.2-8c0.8-6.3,0.3-12.4-0.9-18.6C320.1,224.7,320.4,223.7,321.2,223z"/>
		<path class="st7" d="M257.6,244.1c-4.4,2.6-0.3,5.8-0.3,8.6c0,2.2,0.6,4.2-1.5,5.6c-2.4,1.6-4.2-0.2-5.6-1.5
			c-4.5-4.4-5.1-10.2-4.6-16c0.4-4.8,1.4-9.5-0.4-14.2c7.4-19.6,22.2-31.7,40.8-39.8c1-0.4,2.3-0.2,3.5-0.3c0.6,0.1,1.4,0,1.7,0.3
			c1.8,1.8-0.5,0.9-0.8,1.1c-11.3,6.3-22.8,12.1-30.5,23.2c-3.4,4.9-5.1,9.9-4.1,15.8C257.6,232.5,258.5,238.2,257.6,244.1z"/>
		<path class="st8" d="M282.4,335.8c2.4-2.7,3.4,0.2,4.5,1.3c4.9,5,9.4,10.3,14.3,15.3c5.6,5.7,8.7,5.7,14.2,0
			c4.6-4.7,9.9-8.8,13.6-14.4c0.7-1,1.7-2.8,3.2-1.7c1.4,1-0.6,2.4-0.3,3.7c-6.2,9.1-12.9,17.8-19.8,26.4c-3.2,4-5,3.6-7.8-0.2
			C296.8,356.1,288.8,346.6,282.4,335.8z"/>
		<path class="st9" d="M337.6,262.9c5.9,3.7,11.8,7.3,17.6,11.1c3.1,2.1,5.3,1.8,8.1-0.9c5.3-5.2,9.1-11,10.8-18.3
			c0.3-1.4,0.8-3,2.8-4.1c1.6,3.9-1.9,7.5-0.5,11.2c-0.9,8.7-4.7,16.3-9.4,23.6c-0.7-1.5,1.3-2.9,0.4-4.1c-1.9,1.6-3.9,3-5.6,4.8
			c-3,3.1-5,3.4-6.3-1.3c-0.4-1.5-1.1-2.9-1.6-4.4c-4.7-4.2-8.9-9-14-12.8C338.6,266.6,336.9,265.2,337.6,262.9z"/>
		<path class="st7" d="M242.5,235.8c-0.2,2.8,1.4,6-1.9,8.1C240.1,240.9,241,238.3,242.5,235.8z"/>
		<path class="st10" d="M257.6,244.1c-1.8-5.6-2.4-11.4-1.9-17.3c1-0.9,0.6-3.3,2.9-2.5c1.8,0.6,3.5,1.5,4.8,2.9
			c3.5,3.5,7,7.1,10.6,10.5c2.2,2,4.9,3,7.8,3.4c0.8-0.2-0.2,0.1,0.6-0.1c5.3-1.4,10.9-2.8,12.6-8.8c1.8-6.3-0.7-11.5-5.5-16.1
			c-3-2.8-6.7-5.3-7.9-9.7c-3.5-3.4-2.6-5.1,2.1-5.5c6.1-0.5,11.9,0.8,17.5,3c5.1,2.7,9.2,6.6,12.8,11c7.2,6.7,7.1,15.5,5.9,24
			c-0.9,6.5,0.9,11.2,5.6,14.9c7.2,5.7,12.7,13.2,20.2,18.6c2.9,2.1,4.8,5.1,5.8,8.6c1.5,7.6-3.9,13.9-9.6,15.5
			c-2.3,0.6-4.6,1.2-6.6-0.8c-7.1-3.9-11.5-10.7-17.2-16.2c-3.3-3.1-6.1-6.8-9.8-9.6c-4.7-4.1-10-5.1-16.2-4.5
			c-5.1,0.5-10.5,1.4-15.4-1.2c-5.5-2.7-11.1-5.3-14.1-11.2C261,250,259.3,247.1,257.6,244.1z"/>
		<path class="st11" d="M262.4,228c-1.3-1.2-2.5-2.5-3.8-3.7c6.6-0.9,9.9,4.7,14.5,7.6c3.8,2.3,6.9,5.4,12,5.3
			c7.9-0.3,11.2-5,8.2-12.4c-2.4-5.8-7.7-9.2-11-14.2c-0.8-1.3-3.3-2.3-0.7-4.1c3.2,3.1,6.2,6.4,9.6,9.2c5.3,4.5,7,10.2,4.9,16.6
			c-2.2,6.9-7.8,10-14.9,10.5C274.2,238.9,269.5,231.9,262.4,228z"/>
		<path class="st12" d="M350.5,280.5c-6.1-9.2-15.4-15.3-22.9-23.1c-2-2.1-4.3-3.9-6.3-6.1c-2.4-2.5-4-5.7-3.2-9
			c2.3-9.7,0.8-18.8-3.9-27.5c3.6,1.1,3.6,1.1,7.1,8.1c0.8,6.8,3.5,13.3,1.4,20.5c-0.8,2.8,0.9,6,3.3,8.3c3.9,3.7,7.8,7.4,11.7,11.1
			c3.3,5.3,9.3,7.6,13,12.4c1.3,1.7,3.4,2.7,3.4,5.2c-0.4,0-0.8,0-1.2,0C352.1,281.2,351.2,280.5,350.5,280.5z"/>
		<path class="st13" d="M276.7,262.8c5.6,1.7,11.3,1.5,16.9,0.8c6.2-0.7,11.4,0.4,14.8,6.2c-0.4,0-0.9,0-1.3,0.1
			c-7-4.3-14.6-1.7-22-2.3c-3-0.3-6.2,0.4-8.5-2.4c-0.7-0.5-1.5-1.1-1.2-2.1C275.6,262.5,276.2,262.6,276.7,262.8z"/>
		<path class="st14" d="M350.5,280.5c0.8-1.3,1.6-0.3,2.4-0.1c0.8,6.3,0.9,12.3-5.3,16.4c-4.3,2.9-8.6,3.3-13,0.7
			c-1.9-1.1-0.5-1.7,0.7-2C346,295.5,350.4,291.2,350.5,280.5z"/>
		<path class="st15" d="M276.7,262.8c-1.3,0.8-0.2,1.6-0.1,2.4c-1.6-0.4-3.1-0.8-4.7-1.2c-3.8-3.1-8.4-5.5-9.3-11.1
			C266.8,257.1,271.5,260.3,276.7,262.8z"/>
		<path class="st16" d="M262.4,228c0.5-0.3,1.2-0.9,1.3-0.7c6.2,4.8,12.5,9.4,17.6,15.4C272.5,241,268.1,233.7,262.4,228z"/>
		<path class="st17" d="M336.1,287.7c-3.1-2.1-3.4-4.9-0.9-7.4c2.5-2.5,5.2-2.2,7.4,0.9C341.7,284.7,339.5,286.8,336.1,287.7z"/>
		<path class="st18" d="M336.1,287.7c1.6-2.8,3.7-4.9,6.5-6.5c2,2.3,1.1,4.4-0.7,6.1C340.1,289,338.1,289.6,336.1,287.7z"/>
	</g>
</g>
</svg>
