<?xml version="1.0" encoding="utf-8"?>
<!-- Generator: Adobe Illustrator 21.1.0, SVG Export Plug-In . SVG Version: 6.00 Build 0)  -->
<svg version="1.1" id="Layer_1" xmlns="http://www.w3.org/2000/svg" xmlns:xlink="http://www.w3.org/1999/xlink" x="0px" y="0px"
	 viewBox="0 0 672 564" style="enable-background:new 0 0 672 564;" xml:space="preserve">
<style type="text/css">
	.st0{fill:#305661;}
	.st1{fill:#4C6675;}
	.st2{fill:#4A6571;}
	.st3{fill:#3A626F;}
	.st4{fill:#496C7C;}
	.st5{fill:#426573;}
	.st6{fill:#FCFCFC;}
	.st7{fill:#FEFEFE;}
	.st8{fill:#577486;}
	.st9{fill:#2F4C56;}
	.st10{fill:#FAFAFB;}
	.st11{fill:#314F59;}
	.st12{fill:#3F5D69;}
	.st13{fill:#D1D9DC;}
	.st14{fill:#F7F8F9;}
	.st15{fill:#475F6C;}
	.st16{fill:#DBE0E4;}
	.st17{fill:#F3F5F6;}
	.st18{fill:#415A67;}
	.st19{fill:#F0F3F4;}
</style>
<g>
	<g>
		<path class="st0" d="M367.1,344c-10.2,15.9-22.6,30.2-34.1,45.1c-2.5,3.2-4.5,3.1-7.1-0.4c-12.2-16.6-24.6-33-36.9-49.5
			c-0.9-1.2-1.1-2.7-1.7-4.1c-1.7-5.7-5.9-10-8.9-14.9c-5-8-9.6-16.4-14.6-24.4l0,0.1c-0.6-3.1-4.2-5.3-2.9-9
			c4.5-1.3,5.4,2.6,6.9,5.1c9.1,15.1,19.1,29.6,30.2,43.3c4.2,5.2,9.2,9.9,13.2,15.3c9.3,12.4,27.8,12.2,38.6,0
			c13.4-15.2,26-30.9,37.5-47.6c2.7-4,2.4-8.8,5.1-12.6c1.3-1.3,2.1-2.9,2.8-4.6c2.5-2.9,4.8-5.9,6.6-9.4c0.9-1.7,2.5-5.5,5.4-1.3
			c-0.6,5.7-4.9,10-6,15.5l0,0C390,308.5,379.5,326.8,367.1,344z"/>
		<path class="st1" d="M261.3,286.6c-0.8,3.5,3.7,5.7,2.5,9.3c-25.3-38-25.1-78.3,12.2-111.4c13.8-12.3,29.9-19.9,48.5-20.7
			c25.1-1.1,47.3,5.9,64.8,24.8c-0.4,0.5-1,0.8-1.6,0.7c-1.3-0.2-2.1-1.3-3-2.1c0.8,2.1,5,2.4,2.9,6c-0.9,0.4-1.9,0.5-2.9,0.3
			c-4.9-2.4-8.5-6.7-13.1-9.6c-27.1-17.3-54.3-17-81.7-0.8c-4.1,1-5.6,4.8-8,7.5c-10.6,7.5-14.8,19.1-18.5,30.6
			c-4.2,12.8-4.4,26-1.1,39.2c0.5,2.1,0.8,4.3-0.4,6.3c-3.6,2.3-5-0.6-6.5-2.9c-4.3-6.3-5.4-13.5-5.9-22.3c-0.8,9.4,1.9,16.9,4,24.4
			C255.6,273.1,259.4,279.5,261.3,286.6z"/>
		<path class="st2" d="M388,192.5c-2.3-2.7-4.7-5.4-7.6-8.8c4.2,0.4,5.3,5,8.9,4.9c0.9,0.9,1.8,1.8,2.7,2.7c1.9,2.9,4.5,5.1,6.8,7.7
			l-0.1-0.1c7,9.7,11.5,20.6,14.8,32c-0.2,3.7,1.7,7.2,1.3,10.9c-2,1-4,2.1-6.4,1.3c-2.1-3.7-0.3-8-1.8-11.8
			c-3.8-11.8-8.2-23.3-16.4-32.9C388.8,196.8,387.1,195,388,192.5z"/>
		<path class="st2" d="M367.1,344c3.2-8.5,9.2-15.4,14-23c5.7-9.1,10.8-18.6,17-27.4c0.9-1.2,1.4-2.7,3.1-3.1
			c-7,15.5-17.1,29.1-26.3,43.3C372.7,337.5,371,341.6,367.1,344z"/>
		<path class="st3" d="M263.8,295.8c6.6,6.9,10,15.9,15.1,23.7c3.2,4.9,8.2,9.1,8.4,15.6C278.8,322.5,269.8,310,263.8,295.8z"/>
		<path class="st2" d="M401.2,290.6c-1.1-4.2,2.1-7.1,3.4-10.5c0.7-1.7,1.8-3.3,1.7-5.3c0.4-5.1,2.4-9.8,3.9-14.6
			c0.4-1.3,0.8-3,3-2.3c0.5,1.4,0.6,2.7-0.2,4.1C411.4,272.5,406.3,281.5,401.2,290.6z"/>
		<path class="st1" d="M412.6,230.4c-3.2-11.2-9-21.2-14-31.6c7.7,8.1,11.9,17.9,14.3,28.7C413.5,228.6,413.8,229.6,412.6,230.4z"/>
		<path class="st4" d="M412.6,230.4c0.1-1,0.2-2,0.3-2.9c3.4,11.5,5.4,23,0,34.5c-0.1-1.4-0.1-2.7-0.2-4.1
			c-2.4-5.5-0.9-10.6,1.3-15.7C413.6,238.3,413.1,234.4,412.6,230.4z"/>
		<path class="st1" d="M398.7,199c-3.2-1.7-6-3.8-6.8-7.7C395.1,193,397.4,195.6,398.7,199z"/>
		<path class="st3" d="M261.3,286.6c-6.5-8.6-8.8-18.9-11.8-28.9c-2-6.7-2.6-13.3-0.2-21.6c2.6,5.9,1.7,10.8,2.9,15.3
			c1.7,6,2,13,9.5,15.4c2.8,0.2,3.1,2.6,4.1,4.5c4.1,7.6,6.5,16.1,12,22.9c2.1,1.9,4.6,2.2,7.2,2.2c19.7,0,39.4,0,59.2,0
			c4,0,7.2-1.1,9.8-4.1c0.5-0.4,1.2-0.7,1.9-0.9c1.8,0.2,2.9,1.5,4.2,2.4c5.2,4.6,11.4,3,17.3,2.2c2.4-0.3,3.8-2.1,2.2-4.8
			c-0.4-2.1,0.3-3.7,1.7-5.1c3.2-1.7,5.6,0.7,8.4,1.4c1.6,0.5,3.1,1.2,3.6,3c-3.6,17.3-16.5,29-26.5,42.3
			c-6.7,8.9-13.8,17.8-22.8,24.7c-6.8,5.2-22.8,5-29-1.2c-15-14.9-27.6-31.7-39.4-49.1C270.8,300.4,268,292.2,261.3,286.6z"/>
		<path class="st5" d="M389.7,289c-3.2,0.4-5.3-3.6-8.7-2.2c-4.3,2.4-7.9-0.3-11.5-1.9c-4-1.8-6.8-2.1-8.3,3c-0.6,1.9-1.7,4-4.4,4
			l-0.5-0.2c-1.2-0.7-2-1.9-2.8-3c-1.8,1.8,0.9,6.3-3.9,5.5c0-9.4-5.5-14.3-13.1-19.4c-7-4.6-9.3-13.6-10.9-22
			c2.6-6.3,6.9-1.4,10.5-1.7c3.5,1.6,7.7,1.6,10.4,4.8c-0.1,1.6-2,1.4-2.7,2.4c1.5,2.8,6.2,2.2,6.5,6.2c-2.8,1.8-1,2.5,0.7,3.2
			c0.8,0.1,0.7,2.1,1.2,1.3c2.3-3.3,5.7-5.2,8.4-7.8c4.4-4.3,4.1-7.4-0.8-11.5c-1.7-0.9-3.5-1.5-4.2-3.6c-0.4-4.5,1.5-5.6,5.4-3.4
			c8.9,5,11.4,14.3,5.3,22.5c-2.8,3.8-2.4,6.5,0.4,9.6c0.4,0.2,1.1,0.3,1.2,0.1c0-1.2-1.3-1.5-1.9-2.4c-0.3-3.8,2.7-3.9,5.1-4.3
			c3.4-0.5,6.3,0.7,9.1,2.6c7.1,4.8,13.8,3.7,18.9-3.4c3.6-4.9,6.3-10.3,7.4-16.4c1-2.4,0.2-5.5,2.4-7.5c1.4-1.8,3.2-2,5.2-1.3
			c0.8,5.3-1,10.4-1.3,15.7c-2.8,5.4-2.3,12.1-6.5,17c-2.8-1.1-3.4,1.4-3.7,2.9c-0.9,4.1-3.8,6.5-6.8,9
			C394.2,288.7,391.4,287.3,389.7,289z"/>
		<path class="st6" d="M389.7,289c0.8-4.1,4-1.8,6.1-2.3c0.3,2-0.1,3.6-2.5,3.9C392.1,290.1,390.9,289.6,389.7,289z"/>
		<path class="st7" d="M326.5,252.9c4,10.9,7.7,21.8,20.1,26.7c7.3,2.9,2.8,9.7,3.4,14.8c-2.2,2.4-5.1,2-7.9,2c-19,0-38,0-57,0
			c-3.3,0-6.5-0.3-9.4-2c-4.7-7.3-8.1-15.2-11.4-23.2c-0.7-1.6-1-3.3-2.5-4.4c-1.7-9.3-3.8-18.4-3.3-28.1
			c0.9-17.9,7.9-33.2,18.5-47.2c1.3-1.7,2.8-3.4,5.1-1.3c5.8,1.1,9.8,5.1,13.8,9c0.2,0.6,0.3,1.3,0.3,1.9c-0.3,2.4-0.6,4.8-1.5,7
			c-5.8,13.9,1.7,25.1,7.4,36.7c5.2,2.6,10.9,2.3,16.4,3.6C321.6,249.1,325.1,249.1,326.5,252.9z"/>
		<path class="st8" d="M288.7,182.1c29.7-20,67.5-16.3,93.6,8c0.9,0.9,2,1.6,3,2.4c7.5,7.7,13.7,16.2,15,27.4
			c0.7,6.4-1.2,9.2-7.5,9.5c-8.7,0.5-17.4,0.3-26.1,0c-3.4-0.1-6.2-1.8-8.9-3.6c-2.7-1.9-5.5-2.8-8.3-0.3c-0.9,0.5-1.9,0.6-2.9,0.3
			c-2.2-1.4-2.2-4-3.4-6c-3.4-5.8-8.5-8-14.2-5.9c-5.9-0.4-10.1,4.4-15.6,5c-3.5-3-4.2-5.9-0.6-9.6c3-3,2.9-6.1-1.9-7.6
			c-2.8-1.3-4.8,0.3-6.8,1.8c-1.7,0.4-3-0.4-4-1.6c-3.2-3.9-7.3-6.8-11.3-9.7C283.2,188.2,283.3,186.7,288.7,182.1z"/>
		<path class="st4" d="M329.1,213.7c-0.8-2.4,0.2-2.9,2.5-3c7.5-0.2,14,6.1,14.6,14.4c1,1.4,1.9,2.3,2.6-0.1c1.1-5,4.9-4.8,7.3-2.4
			c6.7,6.5,14.8,5.2,22.7,5.2c5,0,10,0.2,15-0.1c3.6-0.2,5.6-1.4,5.1-6.2c-1.1-11.5-7.4-20.1-13.5-29c0.9,0,1.7,0,2.6,0
			c8.8,11.5,16.4,23.5,19.6,37.9c1,7,1,13.9,0,20.9c-1.9,10-5.5,18.9-15.6,23.5c-4.3,2-8.1,2-11.7-1.7c-3.8-3.9-8.4-5-13.3-1.7
			c-0.1,0.1,0,0.4,0.1,0.6c0.1,0.2,0.3,0.3,0.4,0.5c0.5,1.8-0.2,3.4-1.2,4.8c-4.8-4.5-6.1-8.3-0.5-14c5.5-5.6,1-17.8-6.7-20.2
			c-3.6-1.1-1.9,2.3-2.7,3.7c-0.4-0.1-0.9-0.2-1.2-0.5c-7.9-7.1-8.7-7-14.9,1.2c-1.3,1.7-2.5,3.5-4.1,5c-3.2,2.3-6.7-4.8-9.8,0.5
			c-5.2-3.4-11.4-2.8-17.1-4.2c-3-0.7-6.4-0.3-9-2.5c3-1.9,5.1-3.9,1.1-7c-1.5-1.2-2.2-3-2.6-5c-0.2-1.5-0.7-3-0.9-4.5
			c-0.5-3.9,0.7-6.5,5.1-6.3c2.2,0.1,4.3-0.4,6.4-1.1c0.6-0.1,1.2,0,1.8,0.2c4.7,3.5,10.2,6,13.1,11.6c2.3,3.3,5.2,2.6,8.1,1.1
			c4-2,6.4-5.1,5.8-9.7c-0.5,1.4,0.6,4.4-3,3.5C334,223.5,333.4,217.9,329.1,213.7z"/>
		<path class="st4" d="M310.8,200.4c5.9,1.1,8.3,5.3,4.3,9c-3.8,3.4-3.2,6-1.4,9.5c1.3,2.6,0,3.6-2.4,4l-0.4-0.3
			c-0.5-0.4-1.1-0.6-1.8-0.7c-11.3-2.4-11.2-2.4-11.3-14.3c0-2.9,0.5-6.1-2.8-8c-4.3-3.1-8.6-6.2-12.9-9.3c0.1-4.5,2.3-7.1,6.6-8.1
			c-4,3.7-3.5,6.9,1.3,9.1c6,2.7,9,8.9,14.7,11.7C307,202.5,309.1,201.8,310.8,200.4z"/>
		<path class="st1" d="M407.6,251.3c0-7,0-13.9,0-20.9c2.7,4.1,0.7,8.7,1.3,13.1C408.5,246.1,410,249,407.6,251.3z"/>
		<path class="st9" d="M275.7,294.4c24.8,0,49.5,0,74.3,0c3.4-2.4,0.2-6.5,2.5-9.7c1.7,2.3,4,3.9,3.8,7c-2.5,5.1-6.6,6.8-12.2,6.8
			c-19.6-0.2-39.1-0.1-58.7-0.1C281.6,298.4,277.9,298.2,275.7,294.4z"/>
		<path class="st10" d="M356.8,291.9c1.2-2,3.3-4,3.5-6.1c0.5-6,3.9-4.6,7.2-3.2c4.4,1.8,8.5,4.3,13.5,4.2c-0.4,1.6-0.9,3.2-1.3,4.7
			c-4.2,5.4-11.1,6.4-20.4,3.1C357.8,294.4,356.1,294.2,356.8,291.9z"/>
		<path class="st11" d="M359.3,294.6c3.9-0.1,7.7-0.5,11.6-0.2c3.5,0.2,6.2-0.8,8.8-2.9c1,0.2,2.3-0.9,2.8,0.5
			c0.6,1.8-0.1,3.3-1.6,4.5C376.7,299.9,363.3,298.8,359.3,294.6z"/>
		<path class="st6" d="M336.3,252.4c1-5.6,5.4-9.1,8.8-12.9c2.1-2.3,9.6,2.6,11.4,7.2c1.1,1.4,3.5,0,4.2,2c2.2,5.9,1.3,8.8-3.4,11.3
			c-4.8,2.6-7.7,1.7-11.1-3.5C343,254.9,338.9,255.3,336.3,252.4z"/>
		<path class="st12" d="M346.3,256.5c3,2.1,5.8,4.5,9.9,2.7c4.8-2.1,4.2-6.5,4.5-10.5c5.7,3.2,6.8,7.5,2.5,12.2
			c-3.3,3.6-7.3,6.6-11,9.8c-0.7,0.6-1.5,1.2-2.2,0.3c-1-1.5,1.5-1.9,1.2-3.2c-1.1-1-1.1-2.3-1-3.7c-3.4-1.9-7.3-3.2-9.8-6.7
			C342.5,256,344.4,256.8,346.3,256.5z"/>
		<path class="st13" d="M350.2,264.2c0.3,1.2,0.7,2.5,1,3.7c-2.2,0.7-5.1,2.3-5.7-1.2C344.9,263.2,348.3,264.5,350.2,264.2z"/>
		<path class="st14" d="M366.3,277.2c-0.9-1.9-0.6-3.5,1.2-4.8c1.9,0.5,3.9,1.2,3.1,3.6C369.9,278.2,367.7,276.7,366.3,277.2z"/>
		<path class="st15" d="M300.5,234.3c0,1.9,1,3.2,2.4,4.2c1.9,1.4,4.3,2.8,3.5,5.4c-0.9,2.8-3.8,1.9-6.1,2.1
			c-4.5-7.7-8-16.1-9.7-24.5c-1.3-6.8,2.1-14.3,4.5-21.3c4.2,0,3.3,3.3,3.4,5.5c0.2,5.4-0.8,10.7-0.7,16
			C298,226.3,298.4,230.5,300.5,234.3z"/>
		<path class="st1" d="M300.5,234.3c-4.7-6.4-5.1-13.3-3.4-20.9c1-4.4,3-9.4-1.9-13.1c-0.3-0.3-0.3-0.6-0.2-0.9
			c1.9-2.1,2.8,0.1,3.3,1.1c1.1,2.3,1.4,4.8,1.1,7.5c-0.9,9.5-0.8,9.5,8.6,11.4c1.6,0.3,2.8,1.2,2.7,3.1c-1.4,1.7-3,3.2-5.5,2.7
			c-6.4-1.4-7.2,1.4-5.1,6.6C300.6,232.5,300.4,233.5,300.5,234.3z"/>
		<path class="st6" d="M311.3,222.8c1.3-1.1,2.1-2.4,2.4-4c4.5-3.6,9-7.4,15.5-5.1c8.7,2.3,5.6,9.6,6.4,15.3
			c-2.6,4.4-6.5,6-11.5,5.2C320.9,229.1,313.7,228.7,311.3,222.8z"/>
		<path class="st16" d="M310.8,200.4c-0.6,4.2-2.9,4.3-6,2.5C305.2,198.1,307.7,198.5,310.8,200.4z"/>
		<path class="st17" d="M348.9,225c1.4,1,1.9,2.4,0.6,3.6c-0.6,0.5-2.1,0.6-2.9,0.2c-1.9-0.9-1-2.4-0.3-3.7
			C347.1,225.1,348,225.1,348.9,225z"/>
		<path class="st18" d="M324,234.2c3.8-1.7,7.7-3.5,11.5-5.2c3.4-2.4,0-6.6,2.5-9.3c4.7,9.6-0.6,19-10.4,18.6
			C325,238.1,322.5,238,324,234.2z"/>
		<path class="st19" d="M305.3,235.9c0.3-1.6,1.4-2.1,2.8-1.9c1.2,0.1,2.2,0.6,2.2,1.9c0,1.6-1.1,2.2-2.5,2.3
			C306.4,238.2,305.3,237.6,305.3,235.9z"/>
	</g>
</g>
</svg>
