<?xml version="1.0" encoding="utf-8"?>
<!-- Generator: Adobe Illustrator 21.1.0, SVG Export Plug-In . SVG Version: 6.00 Build 0)  -->
<svg version="1.1" id="Layer_1" xmlns="http://www.w3.org/2000/svg" xmlns:xlink="http://www.w3.org/1999/xlink" x="0px" y="0px"
	 viewBox="0 0 1920 1080" style="enable-background:new 0 0 1920 1080;" xml:space="preserve">
<g>
	<g>
		<path d="M1042.8,683.3c-91.5,66-211.5,43-274.8-39c-60.4-78.1-53.2-190.2,17.4-260.4c70.8-70.4,182.9-77.1,260.5-16.7
			c82,63.9,104.2,183.6,38,275.1c1.4,0.9,3.5,1.6,4.8,2.9c32.4,32.2,64.7,64.5,96.9,96.8c16.3,16.4,10.3,43.3-11.3,50.2
			c-12.1,3.9-22.6,0.7-31.5-8.2c-32-32.1-64.1-64.1-96.1-96.2C1045.3,686.6,1044.2,685,1042.8,683.3z M924.9,386
			c-76.5,0-137.9,61.4-137.9,137.8c0,76.4,61.4,137.9,137.8,138.1c76.6,0.1,138.3-61.5,138.2-138.2
			C1062.9,447.3,1001.5,386,924.9,386z"/>
	</g>
</g>
</svg>
