<?xml version="1.0" encoding="utf-8"?>
<!-- Generator: Adobe Illustrator 21.1.0, SVG Export Plug-In . SVG Version: 6.00 Build 0)  -->
<svg version="1.1" id="Layer_1" xmlns="http://www.w3.org/2000/svg" xmlns:xlink="http://www.w3.org/1999/xlink" x="0px" y="0px"
	 viewBox="0 0 672 564" style="enable-background:new 0 0 672 564;" xml:space="preserve">
<style type="text/css">
	.st0{fill:#A33B96;}
	.st1{fill:#BB66A3;}
	.st2{fill:#BB65A2;}
	.st3{fill:#B15FA0;}
	.st4{fill:#913D82;}
	.st5{fill:#A94599;}
	.st6{fill:#E1DBDF;}
	.st7{fill:#AA469B;}
	.st8{fill:#C740B2;}
	.st9{fill:#C237AF;}
	.st10{fill:#B52FA4;}
	.st11{fill:#B34B9F;}
	.st12{fill:#DC63BE;}
	.st13{fill:#E373C1;}
	.st14{fill:#D155B7;}
	.st15{fill:#E271C0;}
	.st16{fill:#CF6CB0;}
	.st17{fill:#DD64BE;}
	.st18{fill:#D157B7;}
	.st19{fill:#C14EA9;}
	.st20{fill:#FEFDFD;}
	.st21{fill:#FEFEFE;}
	.st22{fill:#C54FAE;}
	.st23{fill:#953A83;}
	.st24{fill:#C752B0;}
	.st25{fill:#CD57B3;}
	.st26{fill:#FEFDFE;}
	.st27{fill:#A24991;}
	.st28{fill:#CC5DB2;}
	.st29{fill:#C860AB;}
	.st30{fill:#A4548C;}
	.st31{fill:#C460A8;}
	.st32{fill:#A3548C;}
	.st33{fill:#AC4B97;}
	.st34{fill:#8D327D;}
	.st35{fill:#B45B9C;}
	.st36{fill:#9E4C88;}
	.st37{fill:#974684;}
</style>
<g>
	<g>
		<path class="st0" d="M285,306.2c-3.2-1.2-2.1-4.8-3.9-6.8c-0.7-2.6-0.6-4.4,2.9-3.1c0.9,0.5,1.7,1.2,2.4,1.9
			c1.5,1.7,2.5,3.8,3.7,5.8c3.1,5.7,7.7,10.4,11.2,15.9c11.6,18.4,24.4,35.9,37.9,53c3.3,4.2,6,2.1,8.6-0.9
			c10.3-12.1,19.7-24.8,28.9-37.7c2.1-2.9,4.5-5.5,5.8-8.9c2.8-6.9,8.2-12,11.9-18.3c1.8-2.5,3.4-5.2,6-6.9c1.6-0.8,3.3-2.7,5-0.9
			c1.7,1.9-0.7,3.2-1.5,4.7c-2.2,4.1-5.5,7.4-7.1,11.9c-2.9,4.3-5.7,8.6-8.6,12.9c-8.1,10.9-16.2,21.8-24,32.9
			c-4.7,8.6-12,15.2-17.6,23c-3,4.2-5.4,2-7.7-1.1c-11.6-15.8-23.3-31.4-34.7-47.3c-1.6-2.2-4.4-3.8-4.3-7.1
			C295.7,321,289.9,313.8,285,306.2z"/>
		<path class="st1" d="M371.1,152.2c6.6,2.6,13.2,5.3,18.8,9.8c-6,3.8-8.6-2.9-12.7-3.9c0.7,0.6,2,1.5,0.7,3.2
			c-3.5,1.2-6.1-1.2-9-2.3c-3.1-3.4-9.3,0-11.6-5.2c-5.2-2.3-10.7-0.5-16-1c-3.5-0.3-7.1,0.2-10.6-0.6c-0.9-0.2-1.5-0.2-0.6-0.1
			c0.1,0,0.2,0.4,0.3,0.7c0.2,1,0.1,1.9-0.5,2.7c-0.5,0.4-1.1,0.8-1.7,1c-3.2,0.7-6.7,0.1-9.4,2.5c-4,1.8-7.6,4.3-11.7,6.1
			c-18.2,8.6-30.1,23.1-38,41.1c-1.7,3.9-3,7.9-4,12.1c-1,1.4-1.6,3.4-4,2.3c-0.2-0.7-0.2-1.4-0.3-2.1c-0.1-0.6-0.2-0.7,0-0.1
			c1.4,4.9-1.6,9.2-1.7,13.9c-0.2,11.4,3,21.8,7.6,32c2.6,8.7,7.4,16.3,11.4,24.3c1.4,2.8,4.2,5.5,1.7,9.1
			c-8.1-11-13.2-23.6-18.5-36.1c-6.6-15.6-7.7-31.2-2.9-47.5c4.8-16.7,13-31.1,26.1-42.5c10-8.6,21-15.7,33.8-19.5
			c10.9-3.8,21.7-6.3,33.6-3.8C358.2,149.6,365,149.3,371.1,152.2z"/>
		<path class="st2" d="M378.1,160.8c-1-1.2-2-2.4-3.2-3.8c6-0.8,9.2,6.2,15,5c17.8,10.2,30.3,25.1,38,44.1c3,7.4,4.9,15.2,5.7,23.1
			c1.4,14.8-3.2,28.2-9.8,41.1c-3.3-5.8,0.7-10.6,2.6-15.3c7-17.1,3.2-33.4-2.6-49.6c-0.3-0.7-1-0.8-1.8-0.3
			c-3.9-0.3-4.3-3.9-5.8-6.4c-5-8.5-10.2-16.9-18.5-22.7c-4.8-3.7-9.4-7.7-14.9-10.4C380.7,164.6,378.6,163.4,378.1,160.8z"/>
		<path class="st3" d="M422.3,204.9c0-1.4,0-2.8,0-4.1c8.9,17.9,13.8,36,5.4,55.6c-1.8,4.2-4.4,8.8-3.9,13.9
			c-1.6,3.6-2.5,7.5-5.5,10.3c-1.8-1.2-2.2-3-2.3-5c1.7-7.1,5.8-13.3,8.1-20.2c1.8-5.6,2.2-11,2-16.6c-0.2-6,0.7-12.1-1.1-18.1
			c-0.4-2.1-0.9-4.1-1.3-6.2c-0.2-2.9-0.2-5.8-1.3-8.5C422.3,205.6,422.3,205.3,422.3,204.9z"/>
		<path class="st4" d="M416.6,276c1.6,1.1,1.1,3,1.6,4.5c-1.3,4.1-3.3,7.9-6,11.3c-0.5,0.8-1.2,1.8-2.1,1.6c-5-1.2-10-2.6-14.8-4.1
			c-1.3-0.4-2.1-1.9-1.5-3.5c1.7-1.6,3.9-1.4,6-1.7c7.4-0.9,8.2-2.3,6.7-9.7c-0.7-3.6-3.1-7-1.7-11c3.6-2.2,5.2,0.3,6.3,3
			C412.4,269.9,414.4,273.1,416.6,276z"/>
		<path class="st5" d="M393.8,286.2c5.6,3.5,12.1,4.3,18.4,5.7c-4.3,8.6-9.3,16.7-15.5,24c0.2-6.5,6.3-10.1,8.5-16.6
			c-2,1.1-3.1,1.7-4.3,2.4c0.3-5.3-1.7-8.6-7.2-9.9c-2.4-0.6-5.2-2.4-3.7-6.1C391.4,285,392.7,285,393.8,286.2z"/>
		<path class="st6" d="M371.1,152.2c-6,0.4-11.2-2.7-17.3-3c-12-0.5-23.9-0.3-35.5,2.9c1-2.1,3.1-3.6,5-3.5
			c10.2,0.5,19.7-7.1,30.7-1.1C358.8,150.1,366.2,147.1,371.1,152.2z"/>
		<path class="st7" d="M279.7,297.7c-2.6-9.5-8.7-17.4-12.6-26.3c-1-2.3-1.5-4.4-1.5-6.7c2.8-0.5,3.9,1.7,4.7,3.5
			c3.6,7.7,8.4,14.8,12.8,22.1c1.3,2.1,3,4.5,1.1,7.2c-2.1-1.1-3-0.2-3.1,1.9C280.7,298.8,280.2,298.3,279.7,297.7z"/>
		<path class="st5" d="M364,361.7c3.6-9.5,11.3-16.3,16.7-24.6c1.9-3,3.5-6.7,7.3-8.3C381.3,340.7,373.2,351.6,364,361.7z"/>
		<path class="st7" d="M285,306.2c6.1,6.9,12.1,13.9,14.6,23.1C294.1,322,288.9,314.5,285,306.2z"/>
		<path class="st8" d="M389.6,286c1.2,2.9,3.6,4.9,6.3,5.2c7.9,0.8,7.7,5,5,10.6c-1.9,1.9-3.8,3.8-5.7,5.7c-3,4.3-6.6,8-10.1,11.9
			c-4.1,4.6-9.4,7.1-15.7,7.1c-17.3,0.1-34.6,0.1-51.9,0c-10.3-0.1-15.6-8-21.8-14.3c-2.5-2.5-3.3-6.4-7.2-7.6c-1-1.9-2-3.8-2.9-5.7
			c-1.1-7.2,0-8.5,7.4-9c11.3-0.7,11.3-0.7,14.5-10.4c2.1-2.1,4.2-0.8,6.3,0.1c1.7,1.4,1.9,3.8,3.7,5.2c0.6,0.5,1.1,0.9,1.7,1.4
			c2,2.2,4.6,2.1,7.2,2.1c14.4,0.1,28.8-0.1,43.3,0.1c3.9,0,6.9-1.1,9.4-3.9c2.5-1.1,5.1-0.2,7.7,0c0.7,0.1,1.4,0.4,2,0.7
			C389.1,285.5,389.3,285.7,389.6,286z"/>
		<path class="st9" d="M288.5,304.6c2.1-1.3,3.5-0.2,4.7,1.5c1.1,1.5,2.2,3.1,3.3,4.6c8.1,10.3,17.8,15.7,31.7,14.2
			c12.2-1.3,24.6-0.7,36.9-0.1c8.5,0.4,15.2-2.2,20.7-8.5c2.8-3.2,6.2-5.8,9.3-8.7c-2.1,7.2-8.9,11.6-11.4,18.5
			c-9,11.3-17.4,22.9-28.1,32.8c-10,9.2-14,9.5-24.1,0.5c-12.6-11.3-21.6-25.5-31.7-38.9C296.1,315,292.3,309.8,288.5,304.6z"/>
		<path class="st10" d="M299.9,320.2c6.9,8.2,14.1,16.3,20.8,24.8c5.3,6.8,11.4,12.5,18.2,17.7c3.4,2.6,6.4,1.9,9.6-0.4
			c10.9-8.1,19.4-18.5,28-28.9c2.3-2.7,4.4-5.5,7.4-7.5c-5.8,11.4-14.5,20.8-21.9,31.1c-4.4,6.1-9.2,11.9-14.1,17.7
			c-2.9,3.4-6.3,4.3-9.4,0.4c-13.4-17.3-26.3-35.1-38.3-53.4C299.8,321.3,299.9,320.7,299.9,320.2z"/>
		<path class="st11" d="M308.4,279c-0.2,10.4-2.7,12.8-13.1,12.8c-5,0-10.6-0.9-9.7,7.1c-0.5-0.5-1-0.9-1.4-1.4
			c-4.9-11.6-12.1-22-18.5-32.7c-4-1.7-4-6.2-4.6-9c-2.3-10.8-7.3-21.6-1.7-32.9c1.2-2.6,0.7-6,2.1-9.1c0,2.3,0,4.6,0,6.9
			c2.4,2.5,2.1,5.7,1.8,8.7c-1.3,15.5,5.2,28.9,11.6,42.2c1.4,2.9,3.8,4.7,6.3,6.5c2.3,2.4,3.5,5.6,6.2,7.7c3.6,3.9,8.2,2.9,12.5,2
			c3.4-0.7,3.7-3.7,3.7-6.7c0-6.3-0.1-12.7,0.1-19c0.1-2.7-0.6-5.8,2.5-7.5C310.8,262.3,312.1,270.4,308.4,279z"/>
		<path class="st12" d="M264.3,217.8c0.7-11.9,6.9-21.8,13.7-30.8c6.6-8.7,14.7-16.5,24.4-22.1c1.5-0.9,3-1.2,4.7-1.2
			c-0.1,4.5-4.3,5.3-6.9,7.3c-6.8,5.3-13.5,10.5-16.9,18.8c-3.3,8.1-1.9,10.3,6.8,10.5c4.8,0.1,9.5,0.3,12.6-4.5
			c1.2-1.9,3.4-2.4,5.7-1.3c0.8,0.7,1.3,1.6,1.6,2.5c0.6,4.7,5.6,5.2,7.9,8.4c1.1,2.7,1.4,5.6,1.4,8.5c-1.5,6.6,1.1,12.8,2.2,19.1
			c-0.6,7.7-3.8,11.6-11.8,12.1c-9.6,0.5-19.2,2.2-28.9,1.9c-11.5-0.4-15.5-3.8-17.4-15.3C262.6,226.9,262.3,222.3,264.3,217.8z"/>
		<path class="st13" d="M308.2,195c-1.3,0.3-3.6,0.3-3.9,1c-3,7.9-9.6,6.1-15.5,6.1c-9.6,0-11.4-3.1-7.7-12.3
			c4-9.9,12.1-15.9,20.3-21.9c1.9-1.4,3.7-2.8,5.6-4.2c3.6-2.3,7-5,11.4-5.7c2.9-2.3,7-0.8,10-2.8c0.5,0,0.9,0,1.4,0
			c4.2-2.6,7.9-2.7,10.6,2.2c-1.6,5.3-0.6,11.2-3.4,16.3c-2.8,0.3-4-2.6-6.4-3.1c-0.8-0.6-0.4-3.4-2.6-1.6c-2.3,2-4.9,3.9-6.1,6.7
			C318.6,183,314.3,189.6,308.2,195z"/>
		<path class="st14" d="M264.3,217.8c-0.3,6.6,0.4,13,2.4,19.4c1.4,4.5,4.2,7,8.4,7.4c12.2,1.2,24.3-1.1,36.5-1.9
			c5.3-0.3,9.6-4,8.2-10.8c5.9,1.9,4.7,6.4,3.8,10.7c-1.4,2.4-4.3,2.3-6.2,3.8c-2.3,1.8-1.1,5.1-3,7.1c-4.6,2.9-7.6-0.7-11-2.7
			c-1.4-0.8-2.8-1-4.2-0.1c-8.6,4.4-11.9,12.3-14.2,21c-0.7,2.6-0.3,5.9-3.7,7.2c-4.4,0.4-6.1-2.6-7.9-5.8
			c-8.9-16.4-14.2-33.6-12-52.5C262.4,219.7,263.3,218.7,264.3,217.8z"/>
		<path class="st15" d="M378.1,160.8c6.6,4.8,14.9,7.2,19.9,14.2c6.3,5.5,11.9,11.6,14,20c1.8,7.4-0.4,10-8,10.3
			c-9.8,0.4-10.7-0.2-13.9-9.9c-2.2-6.6-8.8-9.8-12-15.6c-3.9-3.7-6.4-9.2-12.6-10c-3.2-1.3-6.2-2.8-7.2-6.5
			c0.9-7.3,2.8-8.2,11.4-5.4C372.4,158.9,375.3,159.9,378.1,160.8z"/>
		<path class="st16" d="M369.6,158c-4.9,0.2-11.5-2-9.9,7.2c0.8,1.2,1.2,2.4,0.5,3.8c-2.3-0.4-4.1,0.7-5.9,2
			c-1.5-8.1-7-11.7-14.6-12.9c-2.2-4.6-6.5-2.4-10-3c0-0.9,0.1-1.9,0.1-2.8c9.4-1.2,18.9-1.2,28.3,0c0.4,3,2.7,2.8,4.8,2.8
			C365.6,155.1,368.3,155,369.6,158z"/>
		<path class="st2" d="M358.1,152.3c-9.4,0-18.9,0-28.3,0c-0.2,0-0.5-0.1-0.7-0.1c-0.7-0.3-1-1.2-0.3-1.2c9.8,0,19.5,0.1,29.3,0.2
			c0.1,0,0.3,0.3,0.3,0.5C358.4,151.9,358.2,152.1,358.1,152.3z"/>
		<path class="st16" d="M328.3,155.1c-2.7,3.3-6.4,2.9-10,2.8C320.7,153.5,324.9,155.6,328.3,155.1z"/>
		<path class="st17" d="M378.2,177.9c5.2,7.2,14.3,11.7,14.9,22.3c0.2,3.1,10.4,5.2,15.3,3.2c4.4-1.8,2.3-5.4,1.7-8.5
			c-1.5-8.1-8.2-13.1-12-19.8c10.7,5.4,15.3,16,21,25.5c1,1.6,1.2,3.6,3.2,4.4c0,0,0,0,0,0c2.2,2.4,0.6,6.1,2.8,8.5
			c0.4,1.9,0.9,3.8,1.3,5.7c-0.6,5.1-0.6,10.2-2.5,15.2c-3,8.2-7.1,11.3-15.9,10.9c-6.3-0.3-12.6-1.1-19-1.5
			c-10.9-0.7-13.2-4-12.7-16.4c0.7-5.3,3.3-10.4,2.1-16c-0.9-4.1,1.3-6.6,4.1-9.1c5-4.7,4.7-7.3-0.6-12c-0.8-0.7-1.5-1.5-2-2.4
			C379.2,184.5,376.1,181.7,378.2,177.9z"/>
		<path class="st18" d="M378.1,226.3c0,14.9,0.7,15.5,16.2,15.7c4.7,0.1,9.4,0.9,14,1.3c7.1,0.6,11.5-2.3,13.7-9.4
			c1.5-4.9,1-10.4,4.3-14.8c2.6,6.5,1.3,13.3,1.6,19.9c-2.2,5.6-1.2,12.1-4.3,17.6c-1,1.8-1.7,3.9-2.8,5.7
			c-3.5,5.8-6.6,6.1-10.9,1.1c-2.3-2.7-4.6-5.4-7.2-7.8c-1.7-1.7-3.5-3.2-6.2-2.8c-3.2-0.7-5.5-0.5-5.3,3.8c0.1,2.3,0.2,4.7-1.3,6.7
			c-0.6,0.4-1.2,0.5-1.9,0.3c-0.8-0.7-1.2-1.6-1.4-2.6c0.2-5.6-2.6-9.7-6.4-13.3c-0.7-0.6-1.5-1.3-2.2-1.9
			c-7.2-3.4-6.4-9.1-4.5-15.2c0.1-1.4,0.3-2.7,1-4c0.4-0.6,1-0.9,1.7-1.1C377,225.5,377.6,225.8,378.1,226.3z"/>
		<path class="st19" d="M396.6,252c2.3-2.8,4.2-1,5.8,0.7c3.1,3.2,6.6,5.9,8.9,9.9c2.6,4.4,5.6,4,7.8-0.3c2.7-5.4,5.8-10.7,6-17
			c0.1-2.4,0.9-4.6,2.8-6.2c1.2,13.8-5,25.4-11.3,36.9c-4-0.2-5.1-3.1-6.2-6.3c-0.9-2.6-0.8-6.3-5.1-6.4
			C401.9,260,397.2,257.6,396.6,252z"/>
		<path class="st2" d="M425.1,213.5c-3.9-1.9-2.6-5.5-2.8-8.5C426.2,206.8,424.9,210.4,425.1,213.5z"/>
		<path class="st20" d="M396.6,252c3.1,3.6,7,6.6,8.7,11.3c1,4.2,2.1,8.4,3.1,12.7c1.8,7.8,0.2,9.7-7.6,9.9c-2.3,0.1-4.7,0.2-7,0.3
			c-1.4-0.1-2.8-0.1-4.2-0.2c0,0,0.1,0,0.1,0c-3.7-7.5-2.7-15-0.6-22.7c0.1-2.3,0.3-4.7,0.3-7C389.4,248.3,389.4,248.3,396.6,252z"
			/>
		<path class="st21" d="M315.4,244.8c2.4-0.5,4.8-1,7.2-1.5c2.2-0.5,3,1.4,4.3,2.4c8.7,9.5,28.6,10.3,38.1-1.3
			c0.9-1.1,2.1-1.9,3.5-2.3c3.4-0.5,6.2,1,8.9,2.8c0.7,1.1,1,2.4,1.2,3.7c0.2,9.6,0.2,19.2,0.2,28.8c0,4.1-0.3,8.1-4.8,10
			c-16.8,1.4-33.7,0.3-50.5,0.6c-2.4,0.1-4.4-0.8-6.5-1.8c-0.4-0.2-0.9-0.3-1.3-0.3C311.8,272.3,313.6,258.5,315.4,244.8z"/>
		<path class="st22" d="M376.7,247.6c-0.2-0.9-0.3-1.8-0.5-2.7c1.1-1.1,2.2-1,3.3-0.2c0.5,0.5,0.9,0.9,1.4,1.4
			c3.2,4.3,4.7,9.5,7.1,14.3c0,0.9,0,1.9,0,2.8c1.1,7.6,1.1,15.2,0,22.8c-2.4-0.4-5.1,0.9-7.1-1.4c-4-8.1-1.5-17-2.8-25.4
			C377.6,255.4,379.1,251.3,376.7,247.6z"/>
		<path class="st23" d="M376.7,247.6c2.2,1.1,2.9,2.9,2.9,5.2c-0.4,10.6,2.3,21.1,1.4,31.8c-2.8,4.4-6.5,6-11.8,5.8
			c-14.4-0.4-28.8-0.2-43.2-0.1c-3.8,0-7.1-0.3-9-4.1c1.9,0,3.8,0,5.7,0c1.9,1.2,4,1.3,6.1,1.3c12.7,0,25.4,0,38.2,0
			c2.4,0,4.7-0.3,6.9-1.3c3-1.5,2.5-4.2,2.5-6.8C376.4,268.8,376.6,258.2,376.7,247.6z"/>
		<path class="st24" d="M302.8,249.1c4.1,0.4,6.3,5.7,11.1,4.3c1.5,9,1.5,18.1,0,27.1c-1.8-0.5-3.6-1-5.4-1.5
			c0.1-8.2,0-16.4-2.9-24.2c-1.8,0.7-2.8-0.3-3.6-1.6C301.4,251.6,301.5,250.2,302.8,249.1z"/>
		<path class="st12" d="M313.8,280.5c0-9,0-18.1,0-27.1c0.8-2.8-1-6.1,1.5-8.6c0.1,13.7,0.2,27.5,0.3,41.2
			C313.1,284.8,314.4,282.3,313.8,280.5z"/>
		<path class="st25" d="M388.1,286.1c0-7.6,0-15.2,0-22.8c0.3,0,0.7,0,1,0c0.2,7.6,0.4,15.1,0.6,22.7
			C389.2,286,388.6,286,388.1,286.1z"/>
		<path class="st26" d="M281.3,279c1.4-5,2.6-10,4.4-14.9c2.6-7,6.5-12.9,14.2-15.2c3.4,0.4,2.1,3.4,2.3,5
			c1.4,10.7,2.3,21.5-0.4,32.2c-5.4,3.2-10.8,2.7-16.2-0.1C283,284.4,281.2,282.3,281.3,279z"/>
		<path class="st27" d="M285.6,286.1c5.2-0.1,10.3-0.2,15.5-0.3c1.9-7.3,0.3-14.8,0.9-22.1c0.3-3.4-1-7,0.8-10.3
			c0.9,0.5,1.8,0.9,2.7,1.4c0,8.2,0,16.5,0,24.7c0,4.2,0.8,9.2-4.9,10.2C295.4,290.5,289.3,292.7,285.6,286.1z"/>
		<path class="st21" d="M381,187.6c0.6,0.6,1.1,1.1,1.7,1.7c1.9,3,2.1,6.1-0.2,9c-6.4,2.7-13.4,2.1-20.1,2.6
			c-11.5,0.9-23,0.7-34.6,0c-5.3-1.9-10.9-0.6-16.3-1.4c-1.3-0.3-2.3-1-3.2-2c-0.1-0.8-0.2-1.7-0.3-2.5c0.3-3.6-0.7-7.9,5.5-7.5
			c2,0.1,1.6-2.5,2.2-4c2.7-7.5,6.8-14,14.4-17.9c1.7,1.5,0.6,3.6,1.2,5.2c2.1,1.9,0.8,4.7,1.7,7c1.2-1.2,0.9-3.3,2.6-4
			c1.6-2.8,1.1-6,1.1-9c0-2.8,0.3-5.1,2.9-6.6c1.2,0,2.4,0,3.5,0c10,0,9.9,0,10.9,9.5c0.1,1.1,0.6,2.2,0.9,3.4
			c2.5,1.5,1.6,4.2,2.5,6.9c1.1-3-0.5-6.3,1.8-8.5c0.1-1.4,0.2-2.8,0.3-4.2c2.4,1.4,4.7,2.7,7.1,4.1c4.7,1.9,6.9,6.2,8.7,10.5
			C376.7,182.8,378,185.7,381,187.6z"/>
		<path class="st21" d="M318,213.6c-0.3-2.9-0.5-5.7-0.8-8.6c0.8-1.1,2-1.6,3.4-1.9c9-1,17.8,1.6,26.8,1.3
			c6.2-0.2,12.2-1.6,18.3-1.5c2.6,0.1,5.2-0.2,7.6,1c1.6,1,2,2.6,2.2,4.3c-1.3,11.5-5.9,21.8-11.6,31.7c-3.1,5.4-8.2,8.3-14.4,9.4
			c-7.7,0.7-14.8-0.5-20.6-6.1C323.8,234,317.5,225.1,318,213.6z"/>
		<path class="st28" d="M318,213.6c2,10.2,7.5,19,11.6,28.4c-0.6,2.1-1.7,3.8-4.1,4.2c-0.9-1-1.9-2-2.8-3c-0.1-4,0.9-8.2-2.8-11.3
			C317.8,226,315.3,220.1,318,213.6z"/>
		<path class="st29" d="M319.8,204.8c-0.9,0.1-1.7,0.2-2.6,0.3c-4.1-1.1-8.3-2.2-8.7-7.6c0.9,0.2,1.9,0.3,2.8,0.5
			C313.9,200.5,319,200,319.8,204.8z"/>
		<path class="st30" d="M335.7,173.7c-1.1,2.9,2,8.7-3.2,8.2c-4-0.3-1-5.5-1.4-8.4c-0.1-0.9,0.2-1.8,0.3-2.8c1.1-0.5,1.4-2.8,3-1.9
			C336.1,169.9,334.9,172.1,335.7,173.7z"/>
		<path class="st12" d="M302.8,253.4c-0.1,8.7-0.1,17.3-0.3,26c-0.1,2.2,1.1,4.7-1.4,6.4c0.1-10.8,0.2-21.7,0.3-32.5
			c0-1.6,0.3-3.4-1.6-4.3c1.1-1.4,2-1.2,2.9,0.2C302.8,250.5,302.8,252,302.8,253.4z"/>
		<path class="st31" d="M381,187.6c-2.8,0.5-5.1,0.3-5.8-3.2c-1.2-5.9-4.8-10.5-8.5-15.1c6.6-0.8,7.7,5.6,11.4,8.6
			C378.3,181.4,381.5,183.9,381,187.6z"/>
		<path class="st32" d="M359.4,169.3c0.3,3.2,0.6,6.5,1,9.7c0.2,1.6-0.3,2.9-1.9,3.2c-2.1,0.4-2.9-1-3-2.9c-0.1-2.8-0.2-5.6-0.4-8.4
			c0.2-2,0.4-4.1,0.6-6.2C358.9,164.9,357.6,168.4,359.4,169.3z"/>
		<path class="st31" d="M374.1,209.3c-0.1-1.4-0.2-2.8-0.3-4.2c0.1-4.9,4.7-3.9,7.3-5.6c0.4-0.2,0.8-0.3,1.1-0.6
			c0.4-0.4,1.5,0,1.4-1.1c-0.6,0.6-1,0.3-1.4-0.2c0.2-2.8,0.4-5.6,0.6-8.3c6.7,3.5,7.4,9.4,1.3,14c-2.6,2-4.8,3.8-4.4,7.3
			c1.3,5.6-0.4,10.7-2.9,15.7c-0.5,0-0.9,0-1.4,0c-1.6-1.3-1.7-3.2-1.7-5C373.8,217.3,376.1,213.4,374.1,209.3z"/>
		<path class="st25" d="M376.7,226.3c1-5.2,1.9-10.4,2.9-15.7c3.2,5.6-0.6,10.5-1.4,15.7C377.7,226.3,377.2,226.3,376.7,226.3z"/>
		<path class="st33" d="M375.3,220.6c0,1.9,0,3.8,0,5.7c0,1.4,0,2.8,0,4.2c-3.4,3.7-3,9.5-7.1,12.8c-11.6,14.5-30.6,15.9-42.7,3
			c0.9-1.9,2.3-3.3,4.1-4.2c5.8,4.8,12.6,6.4,20.1,5.9c-1.1,3.3-3.6,1.4-4.5,1.6c7.9,1.1,15.6-2.8,19.8-10.8c2.4-4.6,4.9-9.1,6.6-14
			C372.1,222.9,372.3,220.3,375.3,220.6z"/>
		<path class="st25" d="M368.2,243.3c2.3-4.3,1.5-10.3,7.1-12.8c-1.4,5.6-3.6,11.5,4.3,14.3c-1.1,0.1-2.2,0.1-3.3,0.2
			C373.6,244.4,370.9,243.9,368.2,243.3z"/>
		<path class="st25" d="M388.1,260.5c-5.6-3.2-4.6-9.5-7.1-14.3C385,250.1,389.1,254,388.1,260.5z"/>
		<path class="st34" d="M373.8,286.2c-1.9,2-4.3,2.7-7,2.7c-12.7,0-25.4,0-38.2,0c-2.5,0-4.7-0.1-6-2.7
			C339.7,286.2,356.8,286.2,373.8,286.2z"/>
		<path class="st35" d="M382.4,200.7c-2.4,2.5-6.8,1-8.6,4.5c-18,0.6-36,1.7-54-0.3c-2.2-3.1-7.5-2.2-8.5-6.8c5.3-0.2,10.7-0.6,16,1
			c-1.5,1.9-3.4,0.8-5.2,1.2c16.2,0.3,32.5,1.3,48.8-0.4C374.7,199.5,378.7,198.2,382.4,200.7z"/>
		<path class="st36" d="M382.4,200.7c-14.8,1.8-29.7,1.3-44.5,1.5c-7.1,0.1-14-0.2-22.3-2.5c4.8-0.3,8.2-0.4,11.6-0.6
			c18.3,0.3,36.6-0.1,54.9-1.4c1.6-0.3,1.5-2.1,2.5-3.1C386.3,197.7,383.8,198.9,382.4,200.7z"/>
		<path class="st37" d="M375.3,220.6c-2.5,5.5-4.9,11.2-7.6,16.6c-5.7,11.6-10.4,14.1-23.7,12.8c1.5-1.9,4.4,0,5.7-2.2
			c7.2-1.6,11.9-6.1,15.2-12.7c4.2-8.3,7-17,9.3-25.9C379.1,212.6,375.7,216.8,375.3,220.6z"/>
	</g>
</g>
</svg>
