<?xml version="1.0" encoding="utf-8"?>
<!-- Generator: Adobe Illustrator 21.1.0, SVG Export Plug-In . SVG Version: 6.00 Build 0)  -->
<svg version="1.1" id="Layer_1" xmlns="http://www.w3.org/2000/svg" xmlns:xlink="http://www.w3.org/1999/xlink" x="0px" y="0px"
	 viewBox="0 0 78.7 31.7" style="enable-background:new 0 0 78.7 31.7;" xml:space="preserve">
<g>
	<g>
		<path d="M0,0c26.2,0,52.5,0,78.7,0c0,3,0,6.1,0,9.1c-0.5,0.1-1.1,0.2-1.6,0.2c-3.5,0.2-6.9,1.2-10.2,2.3c-1.6,0.6-3.1,1.6-4.7,2.2
			c-4,1.5-8.1,2.9-12.2,4.4c-7.1,2.5-14.1,4.9-21.2,7.3c-4,1.4-8,2.9-12.2,4c-3.3,0.9-6.8,1.4-10.2,1.9c-2.1,0.3-4.2,0.2-6.5,0.4
			C0,21,0,10.5,0,0z"/>
	</g>
</g>
</svg>
