<?xml version="1.0" encoding="utf-8"?>
<!-- Generator: Adobe Illustrator 21.1.0, SVG Export Plug-In . SVG Version: 6.00 Build 0)  -->
<svg version="1.1" id="Layer_1" xmlns="http://www.w3.org/2000/svg" xmlns:xlink="http://www.w3.org/1999/xlink" x="0px" y="0px"
	 viewBox="0 0 1920 1080" style="enable-background:new 0 0 1920 1080;" xml:space="preserve">
<style type="text/css">
	.st0{fill:#CCCCCC;}
	.st1{fill:#8A8A8A;}
	.st2{fill:#A1A1A1;}
	.st3{fill:#F4F4F4;}
	.st4{fill:#B3B3B3;}
	.st5{fill:#F8F8F8;}
	.st6{fill:#D0D0D0;}
	.st7{fill:#929292;}
	.st8{fill:#E1E1E1;}
	.st9{fill:#939393;}
	.st10{fill:#EDEDED;}
	.st11{fill:#D9D9D9;}
	.st12{fill:#E4E4E4;}
	.st13{fill:#9F9F9F;}
	.st14{fill:#AFAFAF;}
	.st15{fill:#F2F2F2;}
	.st16{fill:#8B8B8B;}
	.st17{fill:#F5F5F5;}
	.st18{fill:#ABABAB;}
	.st19{fill:#F3F3F3;}
	.st20{fill:#EBEBEB;}
	.st21{fill:#DEDEDE;}
	.st22{fill:#F1F1F1;}
	.st23{fill:#C9C9C9;}
	.st24{fill:#F6F6F6;}
	.st25{fill:#CDCDCD;}
	.st26{fill:#E7E7E7;}
	.st27{fill:#B8B8B8;}
	.st28{fill:#A4A4A4;}
	.st29{fill:#E6E6E6;}
	.st30{fill:#BFBFBF;}
	.st31{fill:#ACACAC;}
	.st32{fill:#DBDBDB;}
	.st33{fill:#8E8E8E;}
	.st34{fill:#8F8F8F;}
	.st35{fill:#959595;}
	.st36{fill:#9C9C9C;}
	.st37{fill:#EAEAEA;}
	.st38{fill:#979797;}
	.st39{fill:#BBBBBB;}
	.st40{fill:#E8E8E8;}
	.st41{fill:#AEAEAE;}
	.st42{fill:#B1B1B1;}
	.st43{fill:#D4D4D4;}
	.st44{fill:#DDDDDD;}
	.st45{fill:#B2B2B2;}
	.st46{fill:#7E7E7E;}
	.st47{fill:#858585;}
	.st48{fill:#C7C7C7;}
	.st49{fill:#B0B0B0;}
	.st50{fill:#DFDFDF;}
	.st51{fill:#DADADA;}
	.st52{fill:#9E9E9E;}
	.st53{fill:#919191;}
	.st54{fill:#848484;}
	.st55{fill:#838383;}
	.st56{fill:#898989;}
	.st57{fill:#868686;}
	.st58{fill:#B9B9B9;}
	.st59{fill:#DCDCDC;}
	.st60{fill:#B7B7B7;}
	.st61{fill:#E3E3E3;}
	.st62{fill:#D2D2D2;}
	.st63{fill:#C2C2C2;}
	.st64{fill:#BEBEBE;}
	.st65{fill:#A5A5A5;}
	.st66{fill:#262626;}
	.st67{fill:#303030;}
	.st68{fill:#787878;}
	.st69{fill:#2C2C2C;}
	.st70{fill:#434343;}
	.st71{fill:#3A3A3A;}
	.st72{fill:#6C6C6C;}
	.st73{fill:#5A5A5A;}
	.st74{fill:#7A7A7A;}
	.st75{fill:#414141;}
	.st76{fill:#484848;}
	.st77{fill:#4F4F4F;}
	.st78{fill:#737373;}
	.st79{fill:#5E5E5E;}
	.st80{fill:#4D4D4D;}
	.st81{fill:#4C4C4C;}
	.st82{fill:#5B5B5B;}
	.st83{fill:#2D2D2D;}
	.st84{fill:#3B3B3B;}
	.st85{fill:#777777;}
	.st86{fill:#717171;}
	.st87{fill:#6B6B6B;}
	.st88{fill:#666666;}
	.st89{fill:#7B7B7B;}
	.st90{fill:#3F3F3F;}
	.st91{fill:#6D6D6D;}
	.st92{fill:#616161;}
	.st93{fill:#636363;}
	.st94{fill:#5D5D5D;}
	.st95{fill:#525252;}
	.st96{fill:#707070;}
	.st97{fill:#797979;}
	.st98{fill:#585858;}
	.st99{fill:#656565;}
	.st100{fill:#747474;}
	.st101{fill:#5C5C5C;}
	.st102{fill:#373737;}
	.st103{fill:#626262;}
	.st104{fill:#2B2B2B;}
	.st105{fill:#595959;}
	.st106{fill:#383838;}
	.st107{fill:#9D9D9D;}
	.st108{fill:#A2A2A2;}
	.st109{fill:#040404;}
	.st110{fill:#090909;}
	.st111{fill:#111111;}
	.st112{fill:#1A1A1A;}
	.st113{fill:#1B1B1B;}
	.st114{fill:#121212;}
	.st115{fill:#202020;}
	.st116{fill:#2E2E2E;}
	.st117{fill:#0D0D0D;}
	.st118{fill:#333333;}
	.st119{fill:#131313;}
	.st120{fill:#2F2F2F;}
	.st121{fill:#2A2A2A;}
	.st122{fill:#212121;}
	.st123{fill:#0E0E0E;}
	.st124{fill:#141414;}
	.st125{fill:#222222;}
	.st126{fill:#101010;}
	.st127{fill:#393939;}
	.st128{fill:#343434;}
	.st129{fill:#6E6E6E;}
	.st130{fill:#676767;}
	.st131{fill:#505050;}
	.st132{fill:#353535;}
</style>
<g>
	<g>
		<path class="st0" d="M875,311.1c2.3,0,4.6,0,7,0c1.3,3.1-0.9,4.1-3.2,5c-6.3,2.4-12.9,4.2-19.3,6.2c-2.2,0.7-4.4,1.4-6.1,3.1
			c-2.8,1.9-6.5,2-9.2,4.2c-1.3,0.6-2.7,1-4.1,1.5c-6.3,1.6-11.6,5.5-17.7,7.8c-2.8,0.4-5.1,1.7-7,3.8c-2.2,1.6-4.7,2.9-7.1,4.3
			c-3.5,2-7,4-9.9,6.8c-5.2,4.6-11.3,7.9-16.2,12.8c-7.7,6.8-15.5,13.5-21.7,21.8c-2.3,2.6-3.3,6.5-7.6,6.8c-0.6-0.5-0.8-1.2-0.8-2
			c0.1-1,0.5-1.8,1.1-2.6c1.4-1.7,2.6-3.6,3.8-5.5c0.2-0.4,0.5-0.8,0.8-1.1c3.6-2.8,6.4-6.5,9.5-9.7c7.3-7.5,15.3-14.3,23.6-20.6
			c0.4-0.3,0.8-0.6,1.1-0.8c10.7-8.3,22.5-15,34.1-21.9c0.6-0.5,1.2-0.8,1.9-1c6.7-1.5,12.6-5.1,19-7.5c7.8-2.9,15.7-5.5,23.4-8.4
			C872.5,313.4,873.9,312.6,875,311.1z"/>
		<path class="st0" d="M881.1,731.9c-2,0-4,0-6,0.1c-0.4-3.4-3.5-2.3-5.4-3.3c-12.1-4.6-24.4-8.7-36.3-14
			c-14.8-6.6-28.5-15-41.4-24.8c-7.6-5.6-14.8-11.6-21.5-18.2c-2.3-2.9-6-4.8-7.2-8.7c-0.1-0.7,0.1-1.4,0.5-2
			c3.5-0.5,3.9,3.7,6.6,4.4c8.7,8.7,18.1,16.6,28,23.9c2.8,2.8,6.5,4.4,9.6,6.9c0.9,0.6,1.7,1.2,2.6,1.8c0.4,0.2,0.7,0.4,1,0.7
			c0.9,0.8,2.1,1.2,3.2,1.6c0.4,0.2,0.8,0.4,1.1,0.6c1.8,1.2,3.5,2.5,5.5,3.2c0.4,0.2,0.8,0.4,1.2,0.6c1.1,0.7,2.3,1.2,3.5,1.7
			c0.8,0.3,1.6,0.7,2.4,1.2c1.8,1.4,3.9,2.2,6.1,2.9c6.3,2.6,12.4,5.6,18.9,7.8c8,3.8,16.9,5.2,25,8.6
			C880.7,727.7,883.9,728.3,881.1,731.9z"/>
		<path class="st1" d="M1142.8,502c0,11.7,0,23.4,0,35c-0.6,2.4-1.4,2.7-2.6,0.3c0.5,1.7,1.4,3.4-0.6,4.7c-0.4,0.3-0.9-0.2-1.2-0.6
			c-1.2-2.6-0.8-5.2-0.5-7.9c1.5-10.7,0.3-21.3-0.6-31.9c-0.1-1-0.3-2-0.9-2.8c-6-7.4-6.4-16.6-7.8-25.5c-0.9-5.3-2-10.4-4.6-15.2
			c-2.4-4.5-3.2-9.4-2.8-14.5c0.2-0.5,0.6-0.9,1.1-1.1c1.6,0.3,1.7,1.7,2.3,2.9c1,3.6,2.5,7.1,3.9,10.6c0.2,0.4,0.3,0.9,0.5,1.3
			c0.9,2.9,1.4,5.9,2.8,8.6c0.4,1.4,0.7,2.8,1.1,4.1c1.7,7.2,1.6,15,6.3,21.3c0.2,0.4,0.4,0.9,0.5,1.3c0.4,1.5,0.4,3.1,0.9,4.6
			c0.1,0.4,0.2,0.8,0.3,1.3C1139.8,500.9,1142.3,500.8,1142.8,502z"/>
		<path class="st2" d="M962,731.8c-3,0-6,0-9,0c-3.1-4.6,1.6-3.5,3.3-4.7c0.7-0.2,1.4-0.3,2.2-0.4c8.4-2.4,16.9-4.8,25.3-7.2
			c12.1-3.4,24.3-6.9,35.4-13.3c7.8-2.7,14.9-6.9,21.6-11.6c0.5-0.5,1.1-0.9,1.7-1.2c5.6-2.9,10.4-6.9,15.4-10.5
			c0.4-0.3,0.8-0.5,1.3-0.6c0.8-0.1,1.4,0.1,1.9,0.7c-0.4,4.1-4.7,5-6.5,7.9c-11,8.2-22.4,15.6-35.4,20.3
			c-17.3,7.6-35.6,12.3-53.5,18.1C964.2,730,963.3,731.2,962,731.8z"/>
		<path class="st3" d="M1041,337c8.2,2.5,14.7,8,21.2,13c9,6.9,17.7,14.4,25.5,22.5c8.4,8.7,15.7,18.5,23.2,28
			c4.1,5.2,5.8,11.9,11.1,16.2c1.3,1.1,0.8,2.8,0.9,4.3c0.6,0.6,0.5,1.3,0.2,2c-0.5,0.2-0.9,0.2-1.3,0c-4.1-5.6-6.8-12.1-11.6-17.1
			c-5.7-6.5-10.6-13.7-16-20.5c-6.9-9.2-15.8-16.4-23.9-24.5c-1.5-1.9-3.1-3.7-5.2-5c-0.4-0.2-0.8-0.5-1.1-0.7
			c-3.3-2-5.6-5.4-9.4-6.8c-3.4-2.9-7.4-5.1-11-7.8C1042.4,339.7,1040.4,339.3,1041,337z"/>
		<path class="st4" d="M962,311.2c3,0,6,0,9,0c1.3,1.2,2.4,2.2,4.3,2.8c23.8,7.3,47.2,15.7,68.5,29c5.8,3.6,11.2,7.8,16.7,11.6
			c1.5,1,3,2.2,2.8,4.4c-0.5,0.6-1.2,0.8-2,0.8c-6.5-3.6-12.5-8.2-18.6-12.4c-1.5-1-3-2.1-4.8-2.5c-0.5-0.2-0.9-0.4-1.3-0.7
			c-11.9-7.8-24.8-13.4-38.2-17.9c-11-3.7-22.3-6.6-33.2-10.6C962.8,315,960.8,314.1,962,311.2z"/>
		<path class="st5" d="M754,658c-6.5-5.8-10.8-13.2-15.5-20.3c-3.2-4.9-7-9.6-9.6-15.1c-2.1-4.5-4.3-9.3-7.3-13.5
			c-0.7-0.9-1.4-1.8-1.6-3c-1.1-6.6-4.1-12-9-16.6c-2.5-2.4-0.6-6.3-1-9.6c2.6-1.7,3.7,0.2,4.5,2.1c3.1,7.9,6.6,15.6,10.1,23.3
			c5.7,12.5,12,24.6,20.5,35.6c3.5,4.5,7.7,8.7,9.9,14.2C755,656.2,754.9,657.2,754,658z"/>
		<path class="st6" d="M1063,359c-2.3-4.1-6.7-5.9-10.3-8.4c-20.6-14.8-43.5-24.9-67.7-32.1c-3.8-1.1-7.5-2.6-11.3-3.7
			c-2.1-0.6-2-2.4-2.7-3.7c2.7,0,5.3,0,8,0c0.9,1.9,2.5,2.8,4.6,3c0.4,0.1,0.9,0.3,1.3,0.5c4.2,1.9,8.7,3.1,13.1,4.6
			c1.7,0.7,3.5,1.2,5.2,2c1.6,0.9,3.3,1.6,5,2.1c1.9,0.7,3.9,1.3,5.8,2c3,1.1,5.3,3.4,8.4,4.2c0.9,0.2,1.7,0.6,2.5,1
			c3.4,1.3,6.2,3.6,9.5,4.8c7.1,2.7,12.9,7.6,19,11.9c2.6,2.1,5.2,4.1,7.9,6.1c0.7,0.5,1.6,0.9,2.4,1.4c1.3,1.8,4.4,2.5,3.5,5.7
			c-0.4,0.3-0.9,0.5-1.4,0.6C1064.4,360.8,1062.8,361,1063,359z"/>
		<path class="st7" d="M840,330c1.2-0.8,2.5-1.1,3.9-1.1c11.2-4.4,22.6-8.4,34.4-11.1c5.7-1.3,10.8-5.4,17.1-4.3
			c-1.3-2,0.7-1.9,1.6-2.4c4,0,8,0,12,0c0.1,1.2-0.6,1.3-1.5,1.3c0.6,2.5,0.6,2.5-3.4,3.2c-0.3,0.1-0.6,0.2-1,0.3
			c-0.7,0.2-1.5,0.3-2.3,0.4c-0.8,0.1-1.8-0.1-2.5,0.3c-8.1,4.8-17.3,5.3-26.1,7.3c-1,0.2-1.9,0.6-2.8,1c-8.1,1.8-15.6,5.5-23.5,8.1
			c-5.8,1.9-11.4,5.2-17.4,6.9c-3.5,1-6,5-10.4,3.3c-0.4-2.7,2-3,3.5-3.9C827.5,335.8,834.2,333.8,840,330z"/>
		<path class="st7" d="M1037,344c0.3,0,0.7,0,1,0c7.1,4.6,14.3,9,20.3,15c0,0.5-0.1,0.9-0.5,1.3c-2.5,0.8-4-0.8-5.8-2
			c-7.5-5.1-14.4-11-23-14.5c-3.9-1.6-7-4.9-11.3-5.9c-4.5-1.7-8.3-5.1-13.1-6c-7.2-1.6-13.7-5.2-20.9-6.9
			c-3.2-1.6-6.7-1.7-10.1-2.3c-6.3-1.2-12.5-2.8-18.5-5.2c-1.8-0.1-3.6-0.4-5.2-1.2c-1.1-0.7-2.5-0.7-3.7-1.2
			c-1.2-0.5-4.4-0.9-0.5-2.5c-0.8-0.2-1.8-0.1-1.6-1.4c3,0,6,0,9,0c0.1,3.3,2.8,1.9,4.3,2.2c6.9,1.2,13.1,4.5,19.9,6.2
			c16.3,4,32,9.7,47.1,16.9C1028.7,338.6,1033,341.1,1037,344z"/>
		<path class="st6" d="M764,661c0,0.7,0,1.3,0,2c-3.3,0.4-4.3-2.6-6.3-4.2c-0.3-0.4-0.6-0.8-0.9-1.2c-5.5-8.7-12.5-16.2-17.9-24.9
			c-8.9-14.4-16-29.7-21.9-45.5c-1.3-3.6-3.1-7-4.1-10.7c-0.5-1.8,0.3-4.4-2.9-4.5c0-1.3,0-2.7,0.1-4c2.2-2.2,3.5-0.9,4.8,1.1
			c5.1,11.1,7.7,23.3,13,34.3c4.3,8.8,7.9,17.9,13.7,25.8c5.8,9.9,13.6,18.4,20.4,27.5C763,658,764.7,659,764,661z"/>
		<path class="st8" d="M714,576c7.3,20.8,16.1,41,27.6,59.8c4.1,6.7,9.6,12.6,14.5,18.9c0.8,1,1.9,1.9,1.8,3.4c-2.6,0.7-2.9-1.7-4-3
			c-7.4-9.8-15.3-19.4-21.2-30.1c-5.2-9.5-10-19.2-13.8-29.4c-1.7-4.5-4-8.7-5.7-13.2c-0.7-1.7-1.6-2.4-3.3-2.3c0-1.7,0-3.3,0-5
			C712,572.9,713.2,573.7,714,576z"/>
		<path class="st9" d="M907,731.8c-4,0-8,0-11.9,0c-0.1-2.4-1.9-2.1-3.5-2.2c-1.2,0-2.3-0.3-3.4-0.7c-14.8-5.5-30.3-8.6-44.9-14.3
			c-1.2-0.5-2.4-1.1-3.5-1.8c-2.4-1.7-5.1-2.7-7.7-4.1c-1.2-0.7-3.4-0.7-3-3.1c0.9-0.7,1.9-0.8,2.9-0.7c3.8,1,7.7,1.9,10.8,4.7
			c0.9,0.8,2.1,1.2,3.2,1.3c8.2,0.9,15.4,5.2,23.3,7.1c4,1.8,8.5,1.6,12.6,2.9c5.8,0.7,10.7,3.8,16.2,5.6c1.2,0,2.4,0.2,3.6,0.4
			c1.3,0.4,2.5,0.7,3.9,0.8C908.6,728.2,908,729.9,907,731.8z"/>
		<path class="st3" d="M754,391c-0.4,0.6-0.7,1.3-1.1,1.9c-0.8,1.6-1.8,3.1-3.4,4.1c-2.6,2.4-4.5,5.4-6.4,8.4
			c-0.2,0.4-0.5,0.8-0.7,1.1c-2.5,3.5-4.9,7-7,10.8c-2.2,1.6-2.2,5.4-5.7,5.6c-0.3-0.7-0.3-1.4,0.2-2c0-0.3,0-0.7,0-1
			c1.1-3,3.1-5.5,5-8c0.3-0.3,0.7-0.7,1-1c0.6-3.3,3.2-5.4,5-8c4.7-7.6,10.8-14.1,16.2-21.1c7.6-9.9,17.4-17.3,26-26
			c1.6-1.6,3.8-2.6,5.8-3.8c1,1.2,0.5,2.3-0.2,3.3c-7,6.8-15.1,12.4-21.5,19.8c-3.1,3.3-6.6,6.3-9.3,9.9l0,0
			C756.5,386.9,755,388.7,754,391z"/>
		<path class="st10" d="M788,355c0.3-1,0.7-2,1-3c5.9-2.9,10.6-7.7,16.3-11c6.2-3.6,11.8-8.2,18.6-10.9c5.2-2,9.8-5.3,15.1-7.2
			c6.8-2.4,13.5-5.3,20.1-8.1c2.9-1.2,4.7-5.3,8.8-3.8c1,2.2,0,3.6-1.9,4.6c-0.4,0.2-0.9,0.3-1.3,0.4c-2.7,0.6-5.3,1.4-7.7,2.9
			c-9.6,4.3-19.7,7.3-29.1,12.1c-0.3,0.3-0.7,0.7-1,1c-1.4,0.9-3.2,0.6-4.5,1.6c-1.8,1-3.7,1.8-5.2,3.1
			c-8.8,5.2-17.3,10.8-25.3,17.3l0,0C790.7,354.5,789.7,356.2,788,355z"/>
		<path class="st2" d="M1037,344c-18.5-10.3-37.9-18.4-58.5-23.1c-8-1.8-15.3-6.1-23.6-6.6c-3-0.2-1.1-2.2-1.9-3.1c3,0,6,0,9,0
			c0.1,2.4,1.9,3,3.8,3.6c14.5,4.9,29.6,8.4,43.8,14.3c8.9,3.6,17.5,7.7,25.8,12.6C1036.3,342.3,1036.9,342.9,1037,344z"/>
		<path class="st11" d="M982,732c-2,0-4,0-6,0c-1.4-3.9,1.6-4.5,4-5.4c8.4-2.9,16.9-5.7,25.2-9c4.9-2,9.8-3.9,14.5-6.3
			c5.8-2.3,11.3-5.3,16.8-8.3c1.7-0.9,3.3-2.4,5.5-1.3c0.4,0.4,0.6,0.8,0.6,1.3c-3.5,4.1-8.4,6.3-13,8.4c-4.2,1.9-8.2,4.1-12.2,6.3
			c-3.5,1.7-7.2,2.7-10.9,3.9c-1.8,0.5-3.6,1-5.2,2.2c-1,0.6-2,1.2-3.2,1.3c-4.7,1-8.9,3.8-13.6,4.6
			C982.9,729.9,982.8,731.2,982,732z"/>
		<path class="st3" d="M754,655c1.3,1,2.7,2,4,3c0,0,0,0,0,0c4.2,4.8,8.5,9.5,13.2,13.8c5.2,5.9,11.9,10,17.4,15.5
			c3.3,2.5,6.1,5.8,9.9,7.7c0.4,0.2,0.8,0.5,1.1,0.7c1.6,1.5,3.5,2.6,5.4,3.6c0.6,0.4,1.1,0.8,1.6,1.2c1.2,1.4,3.8,1.7,3.4,4.4
			c-3.1,0.9-4-2.3-6.1-3.3c-12.1-6.3-21.9-15.8-31.8-24.8c-5.4-4.9-11.1-9.7-15.1-15.9c-1.2-0.8-2.2-1.8-3-3c0,0,0,0,0,0
			C754,657,754,656,754,655z"/>
		<path class="st12" d="M1042,703c0-0.3,0-0.7,0-1c0.1-4.2,4.4-4.4,6.5-6.7c1.4-0.7,2.9-1.2,4.2-2.2c5.9-4.7,12.3-8.6,17.6-14
			c6.7-3.8,10.9-10.5,17-15.1c2.1-0.8,3-3.9,5.9-3c0.8,2.2-0.9,3-2.2,4c-0.7,1.3-1.7,2.3-3,3c-1.1,1.7-2.7,3-4.1,4.5
			c-12.2,11.9-25.2,22.6-39.9,31.2C1043.2,703.8,1042.5,703.6,1042,703z"/>
		<path class="st13" d="M1142.8,546c0,3,0,6,0,8.9c-3.8,4.9-4.2,11.2-6.9,16.6c-0.7,1.3-0.7,2.9-1.1,4.3c-0.4,1.1-0.7,2.3-1,3.4
			c-0.9,4.1-3,7.8-3.7,11.9c-2.1,5.4-3.5,11.2-6.9,16.1c-0.8,0.4-1.5,0.3-2.3-0.1c-1.9-2.7,0.6-5,0.8-7.4c0.2-1.3,0.6-2.5,1.4-3.6
			c3.8-6.3,5.6-13.4,7.4-20.4c2.1-8.3,4.6-16.5,7.5-24.5c0.1-0.5,0.2-0.9,0.3-1.4c0.2-0.6,0.5-1.3,0.5-1.9
			C1139,544.9,1140.5,544.7,1142.8,546z"/>
		<path class="st14" d="M840,712c6.2,3.2,12.9,4.8,19.5,6.8c11.8,3.7,23.8,6.7,35.6,10.2c1.8,0.5-1.8,1.7-0.1,2.8c-2.7,0-5.4,0-8,0
			c-4.3-4.3-10.2-5.2-15.7-6.9c-6.1-2-12.3-3.8-18.3-5.9c-6.7-1.7-13-4.6-19-8c-0.3-0.4-0.3-0.8,0.1-1.2
			C836.2,710.1,838,711.4,840,712z"/>
		<path class="st15" d="M1143,578c1.7,6-2.6,10.1-5.2,14.4c-2.6,4.3-4.1,8.9-6,13.5c-2,4.8-3.5,10.3-8.8,13.1
			c-0.2-0.2-0.3-0.4-0.5-0.5c-1.2-4.3,3.3-6.4,3.9-10c3.5-9.2,7.5-18.1,11.3-27.2C1138.7,579.1,1139.4,576.2,1143,578z"/>
		<path class="st16" d="M944,311.2c0.6,1.2,2.4,0.2,2.9,1.6c-0.6,0.2-1.2,0.3-2.2,0.6c1.7,1.3,4.1-0.2,5.3,1.6
			c-0.6,0.8-1.5,1.1-2.4,1.3c-14-1.1-28.1-1.1-42.1,0c-0.9-0.2-1.8-0.5-2.4-1.3c1.7-1.9,4-0.4,6-1.3c-0.6-1.4-2-0.3-3-1.1
			c1-0.5,2-1,3-1.5C920.7,311.2,932.3,311.2,944,311.2z"/>
		<path class="st16" d="M907,731.8c0.5-4.1-3.8-2-5-3.8c0.9-1,2.1-1.2,3.4-1.4c12.5,1.7,25,0.1,37.5,1.2c0.9,0.2,1.8,0.5,2.7,0.8
			c1,0.4,2.5,0.7,2.2,2c-0.3,1.3-2,0.6-2.9,1.2C932.3,731.8,919.7,731.8,907,731.8z"/>
		<path class="st1" d="M710.2,536c0-11,0-22,0-33.1c0.4-1.3,2-1.4,2.5-3c0.5-2.1,1.7-0.9,2.4,0.4c1,4,0,7.9-0.2,11.9
			c-0.4,7.5-0.7,15,0.5,22.4c0.3,2.1,0.4,4.3-0.4,6.4c-0.9,1.4-1.8,1.4-2.4-0.2c-0.6-1.4,0.1-2.9,0.2-3.7c0.5-1.2-0.9-0.6-0.2-0.6
			c0.1,0,0.1,0.1,0,0.4c0,0.8,0.1,2-1,1.8C709.8,538.7,710.9,536.9,710.2,536z"/>
		<path class="st17" d="M1123,423c0-0.7,0-1.3,0-2c5,4.9,7.5,11.4,9.6,17.8c2,6.2,5.2,11,9.5,15.6c2.2,2.4,0.6,5.7,1,8.6
			c-2.8,1.3-3.9-0.5-4.6-2.6c-1.1-3.2-2.7-6.3-4.2-9.3c-2.6-5.4-4.6-10.9-6.9-16.4c-0.4-2-1.3-3.8-3.1-5c-0.5-0.5-0.9-1.1-1.1-1.8
			C1122.8,426.3,1121.7,424.6,1123,423z"/>
		<path class="st17" d="M730,421c0,0.7,0,1.3,0,2c1.3,1.6,0.7,3.4-0.3,4.6c-5.3,7-6.8,15.7-10.8,23.3c-1.6,3-3.2,6.1-4.3,9.4
			c-0.7,2.2-1.8,4-4.6,2.7c-1.4-6.4,2.3-10.7,6.3-14.8c1.4-1.5,2.2-3.2,2.8-5.2C721.4,435,724.4,427.4,730,421z"/>
		<path class="st18" d="M897,311.2c-0.6,3.2-3.1,3.9-5.8,3.8c-3.6-0.1-6.1,2.4-9.3,3.2c-11.5,3-22.9,6.2-34.1,10.3
			c-1.2,0.4-2.6,0.3-3.9,0.5c2.1-3.5,6-2.7,9-4c2.3-2.1,5.3-2.8,8.1-3.6c8.4-2.4,16.8-5,24.9-8.2c1.6-0.1,3.5,0.3,4-2
			C892.3,311.2,894.7,311.2,897,311.2z"/>
		<path class="st4" d="M962,731.8c0.1-2.4,1.9-3,3.8-3.6c14.5-4.9,29.4-8.5,43.6-14.2c3.2-1.3,6.4-2.6,9.6-4
			c0.6,0.7,0.5,1.4,0.1,2.1c-6,3.1-12.3,5.5-18.7,7.7c-1.9,0.4-3.8,1-5.4,2.1c-7.7,2.9-15.8,4.7-23.3,8c-1.7,0.3-3.8-0.3-4.7,1.9
			C965.3,731.9,963.7,731.8,962,731.8z"/>
		<path class="st3" d="M1044,703c14.3-9.1,27.2-19.9,40-31c0.3-0.4,0.7-0.4,1,0c-4.3,6.8-11.2,11.1-17,16.3
			c-6.6,5.9-14.2,10.6-21.2,15.9c-1.2,0.9-2.5,0.7-3.8,0.8C1042.4,703.8,1043.5,703.6,1044,703z"/>
		<path class="st19" d="M1091,665c0.5-1.4,2.1-2.3,2-4c2.2-5.3,6.2-9.3,9.6-13.8c3.4-4.5,6.9-8.9,10-13.7c1-1.6,1.9-3.6,4.1-4.1
			c0.5,0,0.9,0.2,1.3,0.5c-2.2,8.7-9.4,14.1-13.9,21.2c-2.9,4.6-6.9,8.6-10.4,12.9C1093,665.1,1092,665,1091,665z"/>
		<path class="st20" d="M1053,348c-6.2-4.2-12.1-8.9-19-12c-3.2-2-6.4-3.9-10-5c-0.7-0.3-1.3-0.7-2-1c-2.5-0.9-4.5-2.3-6.3-4.2
			c0-0.5,0.2-0.9,0.6-1.3c1-0.4,1.9-0.2,2.8,0.4c7,4.7,15.5,6.5,22,12c2.7,2.9,6.2,4.6,9.5,6.7c1.8,1.2,3.5,2.4,4.6,4.3
			c-0.1,0.1-0.3,0.3-0.4,0.4C1054,348.6,1053.4,348.5,1053,348z"/>
		<path class="st21" d="M828,331c7-5.8,16.1-7.1,24-10.9c1.6-0.8,3.3-1.4,5-2.1c2.6-1.2,5.5-1.7,8-3c0.3,0,0.7,0,1,0
			c2.6-0.2,3.2-2.8,5-4c1.3,0,2.7,0,4,0c0.4,1.7,0.4,3.1-1.8,3.8c-13.9,4.4-27.7,9.1-40.8,15.5C831,331,829.5,331,828,331z"/>
		<path class="st22" d="M864,732c-4.3,0.8-6.7-3.1-9.5-4.8c-7.4-4.6-15.9-5.9-23.3-9.8c-2.1-1.1-4-2.3-5.2-4.3
			c0.6-0.6,1.3-0.7,2.1-0.6c6.2,2.7,12.5,5.3,18.9,7.6c1.6,0.9,3.2,1.8,5,2.2c1,0.7,2.2,0.7,3.3,1.2c3.2,1.8,7.1,2.3,9.2,5.7
			C864.9,730.2,864.8,731.2,864,732z"/>
		<path class="st23" d="M971,729c7.6-3.8,16.2-4.8,24-8c1.6-0.8,3.4-1.1,5-2c6.8-1.2,12.3-5.5,19-7c0.4-0.3,0.7-0.3,1,0
			c-7.5,5.4-16.6,7.1-24.9,10.8c-4.8,2.1-10,3.6-15.1,5c-2.4,0.7-3.7,1.8-4.1,4.1c-1.7,0-3.3,0-5,0C970.7,730.9,970.5,730,971,729z"
			/>
		<path class="st24" d="M1019,325c-1,0-2,0-3,0c-6.8,0-12.3-4.2-18.5-6.2c-2.8-0.9-5.5-2.2-8.3-3.3c-2.1-0.8-3.5-2-2.3-4.5
			c6-1.8,10.1,2.6,14.3,5.2c3.4,2.2,6.9,3.6,10.6,4.7C1014.6,321.8,1017.3,322.4,1019,325z"/>
		<path class="st21" d="M1143,578c-2.6-0.2-3.3,1.5-4,3.5c-3.1,8.9-7.9,17.1-10.5,26.2c-0.2,0.5-1,0.9-1.5,1.3
			c-0.4-0.4-0.6-0.8-0.8-1.3c0.2-4.4,2.4-8.2,3.5-12.4c3.4-6.7,5.4-13.9,8.1-20.9c0.9-2.3,1.6-5.3,5.1-2.5
			C1142.9,574,1143,576,1143,578z"/>
		<path class="st25" d="M1142.9,472c0,1.3,0,2.7,0,4c-2.2,2.2-3.6,0.9-4.8-1.1c-4.2-9.2-6.3-19.2-10.3-28.4
			c-0.3-4.1-3.6-7.2-3.5-11.4c0.1-0.5,0.4-0.9,0.8-1.3c2.5,0.1,3.2,2.1,3.7,3.9c1.5,5.2,4.1,10,6.1,14.9
			C1137,459.4,1137.8,466.6,1142.9,472z"/>
		<path class="st26" d="M987,311c0.6,1.4,0.7,2.7,2.8,3.5c8.8,3.3,17.5,7,26.3,10.5c0,0.3,0,0.7,0,1c-0.7,0.6-1.3,0.6-2,0
			c-2.2-0.1-4.3-0.6-6-2c-1.5-1-3.4-1.2-5-2c-1.8-0.4-3.6-0.7-5-2c-4.6-1.9-9.3-3.3-14-5l0,0c-2-0.7-3.1-1.7-2-4
			C983.7,311,985.3,311,987,311z"/>
		<path class="st0" d="M710.1,476c0-1.3,0-2.7,0-4c1.7-0.7,2.3-2,2.9-3.6c1.9-4.8,3.5-9.6,5-14.5c0.1-0.4,0.3-0.9,0.5-1.3
			c1.2-2.2,1.9-4.7,2.7-7c1.2-2.3,2-4.8,3.2-7.1c0.8-0.9,1.4-2.3,3-1.4c1.5,2.7-1.2,4.7-1.3,7.2c-2,6.8-5.3,13.1-7,20
			c-1.7,3.2-2.8,6.6-4,9.9C714.1,476.4,712.9,478.6,710.1,476z"/>
		<path class="st27" d="M887,314c-11,4.6-22.9,6.8-34,11c0.2-2.1,2-2.4,3.5-2.9c7.3-2.4,14.6-4.8,22-7c2.3-0.7,3.1-2,3.6-3.9
			c1.7,0,3.3,0,5,0C887.4,312.1,887.6,313,887,314z"/>
		<path class="st10" d="M1044,703c-0.3,0.7-0.7,1.3-1,2c-6.3,4.6-13.6,7.3-20.1,11.4c-0.8,0.5-1.9,0.4-2.9,0.6c-1,0.6-2,0.8-3,0
			c5.8-5.3,13.8-6.4,20-11c1.6-1.1,3.7-1.4,5-3C1042.7,703,1043.3,703,1044,703z"/>
		<path class="st27" d="M853,719c6.8,1.9,13.7,3.8,20.5,5.8c3.3,1,6.5,2.4,9.9,3.2c2.3,0.5,3.3,1.8,3.7,3.9c-2,0-4,0-5.9,0
			c0.8-2.6-0.7-3.3-2.9-3.9c-7.5-2.2-14.9-4.7-22.3-7.1C854.8,720.5,854,719.6,853,719z"/>
		<path class="st6" d="M1142.9,572c-1.4-0.2-2.8-0.7-3.6,1.4c-2.7,7.6-5.6,15.1-8.3,22.7c-0.5,0.4-0.9,0.3-1.3-0.1
			c-1.3-2.7,0.6-4.8,1.3-7c1-3.3,1.9-6.7,3.2-9.9c1.5-3.1,2.6-6.4,4-9.5c1-2.2,2.3-3.8,4.7-1.5
			C1142.9,569.3,1142.9,570.6,1142.9,572z"/>
		<path class="st14" d="M1134,576c0.1-3.2,0.9-6.1,2.3-9c1.4-2.8,2.7-5.6,2.9-8.9c0.1-1.7,0.6-4.2,3.6-3.1c0,2.3,0,4.7,0,7
			c-3.5,1.4-3.1,5.2-4.6,7.8c-1.1,2-1.7,4.3-3,6.3C1134.8,576.3,1134.4,576.3,1134,576z"/>
		<path class="st28" d="M710.2,494c0-2,0-4,0-6c0.8-1.2,2.1-1.9,2.4-3.8c0.5-4,2.2-7.6,4-11.1c0.6-1,0.8-2.7,2.8-2
			c1.8,3.3-0.1,6.1-1.3,8.9c-1.2,3.1-2.3,6.2-3,9.4c-0.4,1.2-0.7,2.5-0.8,3.7C713.6,497,712.1,496.4,710.2,494z"/>
		<path class="st29" d="M1135,451c2.3,2.5,3.6,5.6,4.3,8.8c0.5,2.2,1.9,2.8,3.7,3.2c0,1.7,0,3.3,0,5c-1.2,0.9-2.6,2.3-3.5,0
			c-1.9-4.9-4.3-9.6-5-14.8C1134.5,452.4,1134.3,451.6,1135,451z"/>
		<path class="st14" d="M710.1,562c0-2.3,0-4.6,0-6.9c3.7-1.5,3.9,1.6,4.8,3.7c0.8,3.2,2.3,6.1,3.5,9.1c1,2.5,2.4,5.1,0.9,8
			c-1.8,1-1.8-0.7-2.2-1.5c-1.1-2.3-1.8-4.8-3.4-6.9C712.3,565.8,713.5,562.3,710.1,562z"/>
		<path class="st10" d="M828,713c-0.7,0-1.3,0-2,0c-6.8,0.2-10.3-6-16-8c-1.3-1.3-2.7-2.7-4-4c1.1-1,2.3-0.3,3.2,0.2
			c5.8,3.9,12,6.9,18.1,10.2C827.9,711.8,828.2,712.2,828,713z"/>
		<path class="st30" d="M1135,576c1.5-4.2,3-8.4,4.3-12.6c0.7-2.1,2.1-1.7,3.5-1.4c0,2,0,4,0,6c-2.2-0.7-3.1,0.2-3.9,2.3
			c-1.1,3-1.7,6.3-4,8.8C1134.1,578,1134.2,577,1135,576z"/>
		<path class="st29" d="M710,463c1.8-0.4,3.1-1,3.7-3.2c0.8-3.2,2.1-6.3,4.3-8.8c0.6,0.6,0.7,1.4,0.5,2.2c-0.9,5-3.2,9.6-4.8,14.4
			c-0.9,2.6-2.3,1.6-3.7,0.5C710,466.4,710,464.7,710,463z"/>
		<path class="st31" d="M719,471c-2.3,4.2-4.4,8.4-5.2,13.2c-0.3,1.9-1.2,3.7-3.6,3.8c0-2,0-4,0-6c2.7-2.5,3.5-6.1,5.1-9.3
			c0.8-1.7,1.1-3.8,2.9-5c0.5,0,1,0.1,1.3,0.5C719.9,469.2,719.8,470.2,719,471z"/>
		<path class="st10" d="M998,724c1-0.3,2-0.7,3-1c0.8-0.6,1.6-0.5,2.5-0.5c0.2,0.2,0.3,0.3,0.5,0.5c-3.2,2.2-6.5,4.1-10.3,5.4
			c-2.9,1-4.7,5-8.7,3.6c-0.6-1.5-1.1-2.9,1.1-3.4C990.3,727.6,994.1,725.6,998,724z"/>
		<path class="st30" d="M718,468c-0.9,4.2-4,7.5-4.5,11.8c-0.2,2-2.3,1.4-3.4,2.2c0-2,0-4,0-6c2.1,0.7,3.3-0.1,3.8-2.2
			c0.9-3.4,2.1-6.8,4-9.8C719.2,465.3,719,466.7,718,468z"/>
		<path class="st32" d="M710,468c1.4,0.1,2.7,0.8,3.3-1.5c1.3-4.6,3.1-9,4.6-13.5c0.3-0.4,0.7-0.4,1,0c-0.6,6.6-3.8,12.4-6,18.5
			c-0.7,1.8-2,0.2-2.9,0.6C710.1,470.7,710.1,469.4,710,468z"/>
		<path class="st33" d="M710.2,536c1-0.5,0,3,1.8,0.9c0.4-0.5-0.3-1.6,0.8-2c0.9,2.3-0.8,4.9,1.2,7c0.7,0.5,1,1.3,1.1,2.1
			c0.2,1.8,0.3,3.6-0.6,5.3c-0.1,0.1-0.2,0.2-0.3,0.3c0,0-4-3.7-4-3.7C710.2,542.7,710.2,539.4,710.2,536z"/>
		<path class="st34" d="M1142.8,546c-3.1-0.4-2.6,2.6-3.8,4c-1.7-1.7-1.3-3.7-1.2-5.7c0.2-0.9,0.5-1.7,1.2-2.3c1.9-1.7,0.4-4,1.3-6
			c1.1-0.5,0.4,4.1,2.5,1.1C1142.8,540,1142.8,543,1142.8,546z"/>
		<path class="st32" d="M1135,453c0.8,4.9,3.3,9.3,4.8,14c0.7,2.2,2.1,0.8,3.1,1c0,1.3,0,2.7,0,4c-0.9-0.3-2.3,1.2-2.9-0.6
			c-2.2-6.1-5.4-11.9-6-18.5C1134.3,452.5,1134.7,452.5,1135,453z"/>
		<path class="st35" d="M710.2,494c1.3-0.9,2-0.1,2.3,1.6c1.1-2.2-0.2-4.3,1.6-5.6c0.2,0.2,0.4,0.4,0.6,0.6c0.9,1.8,0.7,3.7,0.7,5.5
			c-0.1,1.1-0.3,2.2-1.2,2.9c-1.7,0.9,0,5.1-3.8,4C710.2,500,710.2,497,710.2,494z"/>
		<path class="st28" d="M710.2,546c3-0.4,2.7,2.6,3.8,4c0.2,0.2,0.4,0.4,0.6,0.6c0.8,1.5,0.7,3,0.7,4.6c-0.1,1.1-0.3,2.1-1.2,2.8
			c-0.9-1.5-1.9-2.9-3.8-3C710.2,552,710.2,549,710.2,546z"/>
		<path class="st29" d="M864,729c-2.8-2-6.4-2.5-9-5c2.6-1.6,4.5,0.9,6.8,1.4c2.4,0.5,4.5,1.7,6.9,2.2c1.2,1.2,5.7,0.8,2.3,4.4
			c-1,0-2,0-3,0C866.8,730.8,865.3,730,864,729z"/>
		<path class="st36" d="M1142.8,489c0,2.7,0,5.3,0,8c-1.3-0.7-1.5,1.8-2.8,1v0c-1.2-1.5,0.2-3.5-1-5l0,0c-0.4-1.9-2-3.6-0.8-5.7
			c0.3-0.3,0.7-0.5,1.2-0.6C1140.1,488.1,1141.4,488.7,1142.8,489z"/>
		<path class="st14" d="M1142.8,489c-1.4-0.4-3.4,0.2-3.8-2c-1.4-1.2-1.3-2.9-1.2-4.5c0.1-0.8,0.3-1.5,0.8-2.2
			c1.6-0.6,2.8,1,4.3,0.8C1142.8,483.7,1142.8,486.4,1142.8,489z"/>
		<path class="st10" d="M1017,717c1,0,2,0,3,0c-5,2.9-10.2,5.4-16,6c0,0,0,0,0,0c-0.6-1.9,1.6-1.1,2-2
			C1009.3,718.6,1013.6,719,1017,717z"/>
		<path class="st37" d="M998,724c-2.9,2.7-6.7,3.7-10.2,4.7c-2.2,0.6-2.1,2-2.8,3.3c-1,0-2,0-3,0c0.2-1.1-1.3-2.7,1.1-3.1
			C988.2,728,992.7,724.7,998,724z"/>
		<path class="st9" d="M945,731.8c4.8-2.8-1.9-1.4-1-2.8c0.2-0.2,0.3-0.4,0.5-0.5c1.8-0.9,3.9-0.6,5.7-1.3c1.3-0.3,2.5-0.4,3.8-0.2
			c0.8,0.1,1.5,0.4,2,1.1c-1.3,1.1-3.7,1.2-3,3.8C950.3,731.8,947.7,731.8,945,731.8z"/>
		<path class="st30" d="M710.1,562c4.7-1,3.5,2.6,3.9,5c0.5,0.7,0.6,1.3,0,2c-1-1.5-2.4-1.4-3.9-1C710.1,566,710.1,564,710.1,562z"
			/>
		<path class="st30" d="M1142.9,481c-1.5,0.4-2.9,0.4-3.8-1.1c-0.9-0.8-1.1-1.8-1.1-2.9c0.1-0.8,0.4-1.6,1.1-2.1
			c1,1.5,2.4,1.4,3.9,1.1C1142.9,477.7,1142.9,479.4,1142.9,481z"/>
		<path class="st21" d="M871,732c1.1-2.2-0.6-3-2-4c0.3-0.4,0.7-0.4,1,0c2.5,0.3,6-0.8,5,3.9C873.7,731.9,872.4,731.9,871,732z"/>
		<path class="st15" d="M1118,630c-0.3,0-0.7,0-1,0c-0.7-3.6,2.1-8.8,6-11c0,0,0,0,0,0c-0.3,2-0.7,4-1,6
			C1120.9,626.8,1119.1,628.1,1118,630L1118,630z"/>
		<path class="st38" d="M1140,498c1.1,0,0.7-3.9,2.8-1c0,1.7,0,3.4,0,5C1138.1,503.4,1140.7,499.5,1140,498z"/>
		<path class="st21" d="M982,311c0.6,1.4,0.5,3,2,4c-2.5-0.3-6.1,0.9-5-3.9C980,311.1,981,311,982,311z"/>
		<path class="st39" d="M971,729c0.5,1,0.7,1.9,0,2.9c-1.3,0-2.7,0-4,0C965.9,727.4,969.3,729.5,971,729z"/>
		<path class="st17" d="M735,412c-0.8,3.2-3,5.5-5,8C730,416.3,732.1,413.9,735,412z"/>
		<path class="st17" d="M741,403c-1,3.1-3.3,5.3-5,8C735.4,406.9,738.2,405,741,403z"/>
		<path class="st40" d="M871,311c-0.4,3-2.1,4.2-5,4c1.5-0.9,1.4-2.6,2-4C869,311,870,311,871,311z"/>
		<path class="st21" d="M714,576c-1-1.4-2.4-1.5-3.9-1c0-1,0-2,0-3C713.7,571,714,573.4,714,576z"/>
		<path class="st22" d="M864,729c2.5-0.6,3.6,0.8,4,3c-1.3,0-2.7,0-4,0C864,731,864,730,864,729z"/>
		<path class="st41" d="M887,314c-0.5-0.9-0.7-1.9,0-2.8c1,0,2,0,3,0C890.1,313.2,889.5,314.6,887,314z"/>
		<path class="st19" d="M1118,630c0.2-2.5,2.1-3.8,4-5C1121.8,627.5,1119.9,628.8,1118,630z"/>
		<path class="st19" d="M1085,672c-0.3,0-0.7,0-1,0c1-1.7,2.3-3,4-4C1087.9,670,1086.6,671.1,1085,672z"/>
		<path class="st5" d="M754,658c1.3,0.7,2.4,1.6,3,3C755.1,660.9,754.1,659.9,754,658z"/>
		<path class="st18" d="M840,330c-1.7,3.8-5.6,4.3-8.8,5.6c-4.7,2-9.1,4.4-13.3,7.3c-3.8,2.4-6.7,6.5-11.8,6.3
			c-1.2-2.1,0.9-2.4,1.8-3.3c2.3-1.3,4.6-2.7,7-4c2.2-1.7,4.4-3.1,7-4C828,335.3,833.4,331.3,840,330z"/>
		<path class="st21" d="M792,354c5.9-7.1,14.2-10.9,21.6-16c1.1-0.7,2.2-1.3,3.4-2c1.5-1.2,3.5-1.7,5-3c1.4-1.7,3.3-0.8,5-1
			c-5,4.4-11.5,6.4-17,10.1c-5.3,3.7-10.6,7.1-15.8,11C793.6,353.6,792.8,353.7,792,354z"/>
		<path class="st42" d="M760,388c0.6-3.8,3.9-5.8,6.3-8c5.1-4.8,9.3-10.6,15.7-14c0.1,0.2,0.2,0.4,0.3,0.6c-2,4.6-6.4,7.1-9.5,10.8
			c-0.5,0.5-1,1-1.5,1.5c-3.7,2.8-5.6,7.4-10,9.5C760.8,388.4,760.4,388.3,760,388z"/>
		<path class="st21" d="M788,355c1.3-0.3,2.7-0.7,4-1c-8,7-16,14-24,21c-0.4,0.4-0.7,0.4-1,0c5-5.9,10.5-11.4,16.9-15.9
			C785.5,358,787,356.8,788,355z"/>
		<path class="st42" d="M782,366c4.1-5.9,10.7-8.6,16-13c0.6-0.5,1.3-0.6,2-0.2c0.5,1.1,0.1,2.1-0.6,2.7c-4.8,4.1-9.7,8.3-15.3,11.3
			C783.3,366.8,782.6,366.6,782,366L782,366z"/>
		<path class="st43" d="M742,406c0-0.3,0-0.6,0-1c3.2-2.4,4.9-5.8,7-9c1.3-1,2.6-2,4-3.1c0,0.7,0,1.4,0.1,2.1
			c0.8,3.2-1.9,4.6-3.4,6.7c-2.1,2.8-4.6,5.4-6.5,8.5c-0.7,1.2-1.5,2.7-3.4,1.7C739.1,409.4,741.2,407.9,742,406z"/>
		<path class="st41" d="M749,401c1.3-2,2.7-4,4-6c3.2-1.5,4.3-5,7-7c0.3,0,0.7,0,1,0c-0.1,5.2-4.5,7.9-6.9,11.6
			c-0.2,0.4-0.5,0.8-0.8,1.1c-2,1.2-2.1,5-5.6,4C747.2,403.2,748.3,402.2,749,401z"/>
		<path class="st4" d="M800,353c-0.7,0-1.4,0-2.1,0c2.5-3.5,6.5-4.9,10-7c-0.7,1-1.3,2-2,3C805.6,352.7,803.6,354,800,353z"/>
		<path class="st44" d="M767,375c0.3,0,0.7,0,1,0c-2.9,3.8-5.9,7.5-10,10C759.6,380.5,763.7,378,767,375z"/>
		<path class="st4" d="M822,338c-2.1,1.7-4.3,3.3-7,4C816.6,339.3,818.9,338,822,338z"/>
		<path class="st44" d="M754,391c-0.3-3.1,1.8-4.6,4-6C757.4,387.5,756.1,389.5,754,391z"/>
		<path class="st21" d="M870,728c-0.3,0-0.7,0-1,0c-5.1,0.3-9-3.8-14-4c-1.1,0-2.3,0.2-3-1c-1.5-1-3.4-1.2-5-2
			c-6.2-3.1-13.3-3.8-19-8c-7.3-4-14.7-8-22-12c-0.3-0.3-0.7-0.7-1-1c-2-1.4-4.1-2.5-6-4l0,0c-2.8-1.7-5.7-3.3-7.3-6.4
			c0.1-0.2,0.2-0.4,0.3-0.7c4.7,1.8,8.3,5.3,12.3,8.1c12.4,8.7,25.9,15.1,39.9,20.9C852.7,721.5,861.8,723.6,870,728z"/>
		<path class="st45" d="M764,661c-7.7-10.3-16.7-19.7-23-31c-0.7-0.9-0.6-1.8-0.3-2.8c1.6-1,2.1,0.6,2.9,1.4
			c3.4,5.2,7.5,9.9,11,15.1c2.3,3.4,5.4,6.1,7.2,9.9c2.1,3.9,5.9,6.4,8.5,9.9c0.2,0.4,0.3,0.9,0.4,1.4c-0.1,0.5-0.3,0.9-0.6,1.2
			C766.6,666,766.5,662.1,764,661z"/>
		<path class="st42" d="M770,666c0-0.4,0-0.7,0-1.1c3.2-0.7,4.8,1.7,6.6,3.5c5.2,5.1,10.3,10.2,16.7,13.9c2.2,2.6,6.9,3.2,6.7,7.8
			c-0.7,0.4-1.4,0.3-2-0.2C787.7,683.2,778.1,675.5,770,666z"/>
		<path class="st18" d="M840,712c-2.3,0.3-4.1-1.2-6-2c-2.4,0.4-4.2-0.9-6-2c-0.8,0-1.5-0.2-2-1c-1.2-0.9-2.9-1-4-2l0,0
			c-2.3-1.4-4.7-2.5-7-4l0,0c-1.3-0.8-2.9-0.9-4-2l0,0c-1.4-0.7-2.2-2.2-3.8-2.7c-0.8-0.7-2.2-1.2-1-2.7c0.6-0.2,1.4-0.4,1.9-0.1
			c6.7,4.5,14.6,7,20.8,12.4C832.5,708.3,836.8,709.1,840,712z"/>
		<path class="st21" d="M788,688c-3.3-4.8-9.1-6.8-12.8-11.2c-1.3-1.6-2.8-3.2-4.2-4.7c-0.3-0.2-0.4-0.5-0.3-0.7
			c0.1-0.2,0.2-0.3,0.3-0.3c7,6,14,12,21,18c0,0,0,0,0,0C790.3,690.2,789.3,688.6,788,688z"/>
		<path class="st8" d="M771,671c0,0.3,0,0.7,0,1c-5.5-3.6-9.6-8.5-13-14c2,1.7,4,3.3,6,5C766.3,665.7,768.7,668.3,771,671z"/>
		<path class="st4" d="M806,694c0.3,1,1,1.6,2,2c0.3,0.2,0.4,0.5,0.3,0.7c-0.1,0.2-0.2,0.3-0.3,0.3c-3.5-2.1-7.5-3.5-10-7
			c0.7,0,1.4,0,2,0C803.6,689,805.6,690.3,806,694z"/>
		<path class="st45" d="M815,701c2.7,0.7,5.4,1.5,7,4C818.9,705,816.8,703.2,815,701z"/>
		<path class="st45" d="M828,708c2,0.7,4,1.3,6,2c0,0.3,0,0.7,0,1C831.5,711,829.4,710.3,828,708z"/>
		<path class="st45" d="M822,705c1.6,0.2,3,0.7,4,2C824.3,707.1,822.8,706.8,822,705z"/>
		<path class="st45" d="M808,697c0-0.3,0-0.7,0-1c1.3,0.7,2.4,1.6,3,3C809.6,699,808.6,698.3,808,697z"/>
		<path class="st45" d="M811,699c1.6,0.2,3,0.7,4,2C813.3,701.1,811.8,700.8,811,699z"/>
		<path class="st46" d="M714,499c0-1,0-2,0-3c3.7-5.1,4.7-11.1,5.5-17.2c1.7-11.9,5.4-23.4,10.1-34.3c5.8-13.4,11.7-27,21-38.7
			c2.6-3.2,5-6.6,7.5-9.9c5.8-7.7,12.2-14.8,19.1-21.5c8.7-8.5,18.5-15.4,28.4-22.3c6.1-4.3,12.1-8.6,19.5-10.3
			c6.7-3.6,14.6-4.7,20.7-9.5c0.8-0.6,1.9-0.6,2.8-0.9c5.4-1.6,10.9-2.4,16-5.4c6.1-3.5,13.3-2.4,20-3.3c3.6-0.5,6.7-1.4,9.7-3.3
			c0.7-0.3,1.4-0.5,2.2-0.6c0.7-0.1,1.4-0.1,2.1-0.2c2.8-0.1,4.1-2.7,6.3-3.7c14.3-1.5,28.7-1.5,43,0c3.5,2.6,7.1,5,11.7,4.9
			c6,3.3,12.8,2.6,19.2,3.7c3.9,0.7,7.7,1.3,11.3,3.4c4.5,2.6,9.7,3.2,14.6,4.4c4.7,1.1,8.2,5.2,13.2,5.6c10.1,3.8,19.1,9.3,28,15.3
			c3.9,2.6,7.1,6.6,12,7.7c5.7,3.4,10.9,7.6,15.7,12.2c10.3,9.8,19.4,20.6,27.5,32.2c2,2.9,4.8,5.1,6.4,8.3
			c2.5,5.4,5.1,10.7,8.7,15.5c0.3,0.4,0.5,0.8,0.6,1.3c0.4,5,4,8.8,5.1,13.5c1.1,5.7,1.3,11.5,4.6,16.9c4.2,7,3.3,15.7,5.3,23.5
			c1.3,5.1,1.5,10.4,5.9,14.3c1.5,1.3,1.1,3.7,1.3,5.7c1.6,12.9,0.9,25.7,0,38.6c0,0.7,0,1.3,0,2c-5.4,8.7-6.6,18.5-8,28.3
			c-0.7,4.9-2.1,9.6-4.7,14c-2.3,4-2.3,8.8-3.8,13.1c-4.9,9.6-8.6,19.9-14.4,29c-0.7,1.1-1.2,2.4-2.2,3.2
			c-5.4,2.8-7.2,8.6-10.6,12.9c-11.9,14.9-24.9,28.3-40.4,39.7c-11.6,8.5-24.4,14.5-36.3,22.2c-0.4,0.3-0.9,0.5-1.4,0.6
			c-3.2,0.2-6.1,0.8-8.5,3.4c-2.2,2.3-5.5,2.3-8.4,2.7c-4.2,0.6-8.1,1.6-11.6,4.1c-3.8,2.7-8.3,2-12.6,2.3
			c-7.3,0.5-14.1,2.8-21.1,4.8c-3.3-0.4-4.5,2.9-7,4c-1.3,0.5-2.8-0.3-4,0.7c0,0,0,0,0,0c-13-0.4-26,0.9-39-1
			c-3.4-2.6-7.1-4.8-11.5-5.2c-5.4-3.1-11.5-2.8-17.4-3.4c-5-0.5-9.9-1-14.2-4c-0.8-0.6-1.7-1.1-2.7-1.2c-8.6-0.6-15.7-5.5-23.6-8.2
			c-4.6-1.6-9.1-4-13.3-6.7c-3.1-2-6.4-3.5-10-4.2c-8.2-4.8-15.7-10.6-23.4-16.1c-0.6-0.3-1.2-0.8-1.7-1.3c-1.8-2.1-4.3-3.4-6.1-5.4
			c-13.2-12-23.9-26-34.4-40.4c-6.2-10.5-11.1-21.7-16.5-32.6c-2.9-5.8-4.3-12.4-6.6-18.5c-1.5-5.9-2.1-12-3-18
			c-1.1-6.7-3.2-13-6.6-18.9c0-0.7,0-1.3,0-2C712.2,527.7,713.2,513.3,714,499z"/>
		<path class="st36" d="M1139,482c0,1.7,0,3.3,0,5c0,0,0,0,0,0c-0.4,0.3-0.9,0.4-1.3,0.1c-1.7-1.8-2.1-4.3-3.2-6.5
			c-1.1-3.5-1.5-7.1-2.5-10.6c-1.5-1.1-0.9-2.6-1-4c-1.6-2.8-1.3-6.2-3-9c-1-3.8-2.5-7.4-4-11c-1.2-0.7-1-1.9-1-3
			c-1.9-4.2-6.3-7.4-5.4-12.8c3.6-0.7,3.2,3.1,5,4.5c2.6,5.4,4.5,11.1,6.8,16.7c0.3,0.4,0.5,0.9,0.6,1.3
			C1133.3,462.4,1135.7,472.3,1139,482z"/>
		<path class="st9" d="M1132,470c1.8,3.5,2.3,7.2,3,11c1.6,1.7,1.3,4.3,3,6c0.3,0,0.7,0,1,0c-1,2,0.5,4,0,6
			C1133.1,486.4,1133.1,478.1,1132,470z"/>
		<path class="st9" d="M1118,430c-0.9,3.5,2.3,5.2,3.4,7.9c0.7,1.7,1.1,3.4,1.6,5.1c-0.3,0-0.7,0-1,0c-3.7-4-5.9-8.5-6-14
			c0.3-0.3,0.7-0.5,1.2-0.5C1117.9,428.8,1118.4,429.2,1118,430z"/>
		<path class="st9" d="M1124,446c2.3,3.3,3.9,6.9,4,11C1126,453.6,1124.4,450,1124,446z"/>
		<path class="st9" d="M1128,457c2.4,2.5,2.4,5.9,3,9C1128.6,463.5,1128.6,460.1,1128,457z"/>
		<path class="st38" d="M1139,493c1.7,1.4,0.8,3.3,1,5C1138.3,496.6,1139.2,494.7,1139,493z"/>
		<path class="st47" d="M1018,706c4.1-5.2,10.4-7.1,15.9-9.5c5.8-2.5,10.6-6.5,15.5-9.9c6.9-4.8,14.6-9.1,20.2-15.3
			c4.5-5,9.5-9.7,13.9-14.9c4-4.6,7.5-9.7,11.7-14.1c1.8-1.9,3.5-3.8,4.5-6.4c1-2.3,2.7-4.2,5.2-5c1.4,1.9-0.2,3-1.1,4.2
			c-1,1.3-2.4,2.3-2.5,4.1c-0.1,0.9-0.2,1.9-0.5,2.7c-0.3,0.7-0.7,1.2-1.3,1.5c-1.9,0.6-3.4,1.5-3.8,3.7c-0.3,0.6-0.7,1.2-1.1,1.7
			c-9.6,11.3-19.4,22.5-31.5,31.3c-1.3,1-2.7,1.8-4.1,2.7l0,0c-5.4,3.6-10.4,7.7-16,11c-0.3,0.3-0.7,0.7-1,1
			c-7.3,3.9-14.1,8.6-21.9,11.5C1019.3,706.5,1018.6,706.7,1018,706z"/>
		<path class="st48" d="M1020,712c-0.3,0-0.7,0-1,0c0-0.6,0-1.3,0.1-1.9c12.9-4.5,24.1-11.9,35-20c5.1-2.5,8.3-7.3,13-10.3
			c1.3-0.8,2.2-2.5,4.2-1.7c0.4,0.7,0.3,1.4-0.2,2c-5.4,5.5-11.7,9.7-18,14c-1.3,0.7-2.9,0.9-4,2c-2.2,2.2-5.4,3.2-7,6
			c-4.8,0.5-8.3,3.9-12.5,5.7C1026.3,709.1,1023.5,711.3,1020,712z"/>
		<path class="st9" d="M1018,706c0.7,0,1.3,0,2,0c0.3,0.2,0.4,0.4,0.3,0.7c-0.1,0.2-0.2,0.3-0.3,0.3c-7.9,5.5-17.2,7.6-26,10.8
			c-7.9,2.8-16.1,4.8-24.4,6.4c-3.9,0.8-7.2,4.1-11.6,3.8c0.3-3.9,3.4-4.5,6.2-5.2c6.8-1.7,13.6-3,20.5-4.2c6.9-2.7,13.6-6,21-7
			c1.4-0.2,2.6-0.9,3.5-1.7C1011.7,707.5,1014.7,706.4,1018,706L1018,706z"/>
		<path class="st9" d="M1059,683c4.2-5.9,10.9-9,15.9-14.2c6.5-6.8,12.8-13.8,19.1-20.8c0.6,0.5,0.8,1.2,0.8,1.9
			c-0.4,2.9-2.6,4.9-4.2,7.1c-0.3,0.3-0.6,0.6-1,0.9c-2.4,1.7-4.4,3.7-6,6.2c-0.7,0.9-1.5,1.7-2.4,2.4c-1.5,0.9-2.7,2.1-3.6,3.6
			c-0.4,0.5-0.9,1-1.4,1.4c-2.7,1.6-4.6,4.1-6.9,6.1c-2.7,2-4.3,5.6-8.3,5.3C1060.3,683,1059.7,683,1059,683z"/>
		<path class="st16" d="M985,719c-6.4,2.9-13.4,3.1-20,4.9c-2.9,0.8-5.2,1.9-7,4.1c-0.7,0-1.3,0-2,0c-0.7,0-1.3,0-2,0
			c-0.5-2,0.7-3.3,2.3-3.9C965.5,720.6,975,718.3,985,719z"/>
		<path class="st9" d="M1020,707c0-0.3,0-0.7,0-1c5.2-2.8,10.6-5.3,15.7-8.4c2-1.2,4.1-2.1,6.3-2.7c-0.2,0.3-0.2,0.7-0.5,0.8
			C1034.6,700.1,1028,704.9,1020,707z"/>
		<path class="st49" d="M1061,683c3.4-1,5.1-4.3,8-6c0.3-0.3,0.6-0.5,1.1-0.5c0.4,0,0.8,0.1,1.1,0.4c0.1,0.4,0.1,0.8-0.2,1.1
			c-5.8,3.8-10.2,9.6-17,12C1056,687.3,1059.5,686.2,1061,683z"/>
		<path class="st9" d="M1043,694c4.8-4.4,9.9-8.4,16-11C1054.3,687.6,1049.3,691.7,1043,694z"/>
		<path class="st50" d="M1067,360c-1.3-1.7-2.7-3.3-4-5c0.7-0.6,1.3-0.6,2,0v0c2.2,1.4,3.7,3.7,6,5c8,7,15.4,14.7,22.8,22.4
			c0.6,0.7,0.8,1.7,1.2,2.6c-0.4,0.3-0.8,0.5-1.3,0.5c-2.6-1-4.2-3.1-6-5.1c-4.9-5.4-9.6-11-15.9-14.9
			C1069.7,364.2,1067.7,362.6,1067,360z"/>
		<path class="st51" d="M1094,385c0.3,0,0.7,0,1,0c6,6.1,10.4,13.5,16,20c0.5,0.6,0.6,1.3,0.2,2c-2.3,0.7-3.4-1-4.4-2.4
			c-4-5.5-7.8-11-12.3-16.1C1093.7,387.6,1092.9,386.4,1094,385z"/>
		<path class="st26" d="M1111,407c0-0.7,0-1.3,0-2c4.6,5.4,8.9,11,11,18c-0.2,0.1-0.4,0.2-0.6,0.2c-2.7-0.8-2.9-3.7-4.6-5.4
			c-0.3-0.4-0.5-0.7-0.7-1.1c-0.7-1.6-1.7-3.1-3.2-4.1C1111.4,411,1109.5,409.6,1111,407z"/>
		<path class="st20" d="M1065,355c-0.7,0-1.3,0-2,0c-0.8,0-1.6-0.2-2-1c-2.1-1.9-4.7-3.3-6-6c0,0,0,0,0,0
			C1059.7,348.4,1061.7,352.6,1065,355z"/>
		<path class="st20" d="M1071,360c-3-0.5-4.4-2.9-6-5C1068,355.5,1069.4,357.9,1071,360z"/>
		<path class="st26" d="M1123,423c0.3,1.7,0.7,3.3,1,5c-0.4,0.3-0.9,0.4-1.3,0.2c-0.9-0.6-1.4-1.4-1.5-2.4c-0.1-1,0.1-2,0.9-2.7
			c0,0,0,0,0,0C1122.3,423,1122.7,423,1123,423z"/>
		<path class="st49" d="M1063,359c0.7,1.1,1.9,1,3,1c13,9.9,24.3,21.6,34.1,34.6c0.5,0.7,0.8,1.4,0.9,2.3c0,0.7-0.2,1.4-0.7,2
			c-4.8-1.2-6.4-5.6-9-8.9c-0.7-1.2-1.6-2.2-2.4-3.2c-0.3-0.3-0.6-0.7-0.8-1.1c-1.4-2.3-3.4-4.1-5.5-5.7c-0.9-0.6-1.7-1.4-2.3-2.3
			c-1.1-1.6-2.4-3-4.1-4c-5-4.6-10.4-8.7-15.3-13.4c-0.2-0.5-0.1-0.9,0.2-1.3C1061.7,359,1062.3,359,1063,359z"/>
		<path class="st52" d="M1061,359c0,0.3,0,0.7,0,1c-1.5,1.1-2.2,0-3-1c-6.7-5-13.3-10-20-15c2.6-0.5,3.9,1.5,5.6,2.8
			C1049.3,350.9,1055.6,354.3,1061,359z"/>
		<path class="st0" d="M1100,397c-4.4-7.4-9.9-13.9-16-19.9c-5.9-5.8-12-11.4-18-17c0.4,0,0.7,0,1.1,0c10.2,7,18.6,16,26.9,25
			c5.4,7.5,10.4,15.4,17,22c0.4,2,1,3.9,3,5c1.2,1.5,1.7,3.5,3,5l0,0c1.7,3,3.5,5.9,5,9c0.3,0.7,0.7,1.3,1,2c1,1.9,3.8,3.2,2,6
			c0,0.3,0,0.7,0,1c-1.5,0.5-2-0.8-2.7-1.6c-1.8-2.8-2.6-6.2-5.1-8.6c-1.9-2.1-2.9-4.6-4-7.2c-0.4-1.5-1-2.9-2.2-4
			C1107.9,407.7,1102.6,403.2,1100,397z"/>
		<path class="st21" d="M984,315c5.1,0.5,9.7,2.3,14,5C993.1,319,988.2,317.9,984,315z"/>
		<path class="st21" d="M1024,331c4,0.3,7.4,1.8,10,5C1030,335.6,1027.3,332.6,1024,331z"/>
		<path class="st50" d="M1055,348c2.1,1.9,4.6,3.4,6,6c-3.3-1.1-5.6-3.7-8-6C1053.7,348,1054.3,348,1055,348z"/>
		<path class="st21" d="M1014,326c0.7,0,1.3,0,2,0c2.2,1,4.3,2.3,6,4C1018.6,330.2,1016.6,327.5,1014,326z"/>
		<path class="st21" d="M1003,322c2-0.1,3.7,0.4,5,2C1006,324,1004.3,323.6,1003,322z"/>
		<path class="st53" d="M825,343c-3.3,0.1-6.1,1.6-8.7,3.3c-18.1,11.7-35.2,24.6-49.7,40.7c-2.6,2.9-3.8,7.1-7.6,9.1
			c-0.4-0.3-0.6-0.8-0.7-1.2c1-5.4,6.1-8,8.8-12.3c1.1-1.6,2.8-2.8,3.9-4.5c0.3-0.3,0.7-0.7,1-1c4.5-3.1,7.5-7.8,12-11
			c5.2-4.5,11.5-7.6,16-13c2.6-0.4,4.7-1.6,6-4c4.6-0.7,7.2-5.6,12-6c4,0.3,6.4-3.2,10-4C828.6,341.5,826.1,341.8,825,343z"/>
		<path class="st54" d="M825,343c1-1.3,2-2.7,3-4c13.7-5,26.8-11.4,41-15c7.7-1.7,15.5-3,23.3-4.7c1-0.2,2-0.1,2.7,0.7
			c-5.2,5.7-12.4,4-18.8,4.8c-5.1,0.7-10.1,0.1-14.2,4.3c-1.7,1.7-4.8,1.7-7.5,1.9c-3.6,0.3-7.4,0.3-9.6,4c-0.2,0.4-0.7,0.8-1.2,0.8
			C836.7,336.2,831.6,341.7,825,343z"/>
		<path class="st16" d="M895,320c-6.4,1.1-12.9,2-19.2,3.3c-2.3,0.5-4.5,0.6-6.8,0.7c2.5-2.4,6-1.6,8.9-2.5
			c5.9-1.9,12.5-1.3,17.8-5.5c1.4-1.1,3.4-1.2,5.3-1c0.4,0.8-0.1,1.3-0.6,1.8c-1.2,1-2,2.4-3.4,3.2C896.3,320,895.7,320,895,320z"/>
		<path class="st55" d="M900,316c0.3-0.3,0.7-0.7,1-1c0.7,0,1.3,0,2,0c0.7,0,1.3,0,2,0c-1.5,2.3-2.8,4.8-6,5
			C898.6,318.5,899,317.2,900,316z"/>
		<path class="st9" d="M1058,359c1,0.3,2,0.7,3,1c6.1,3.4,10.6,8.7,16,13c1,1.7,2.4,3,4,4c0.7,0.7,1.3,1.3,2,2c1.6,2.6,4.4,4.4,6,7
			l0,0c0.7,1.3,1.7,2.3,3,3c2.1,3.8,5.3,6.7,8,10c5.4,5,8.9,11.2,12.5,17.4c1.7,3,3.4,6,5.2,8.9c0.4,1.3,0.4,2.5-0.7,3.6
			c-0.3,0-0.7,0-1,0c0,0,0,0,0,0c-2.9-5.4-6.5-10.4-9-16c-6.5-7.2-11.9-15.4-18.1-22.9c-7.6-9.2-15.9-17.9-25.6-25
			c-2-1.5-3.9-3-5.3-5.2C1058,359.7,1058,359.3,1058,359z"/>
		<path class="st47" d="M1005,332c-6-1.3-12.3-1.2-17.7-5.5c-4-3.2-9.6-1.3-14.5-2.3c-4.7-0.9-9.5-0.7-13.8-3.2
			c-0.3-0.6-0.2-1.1,0.4-1.4c8.4,0.7,16.4,2.9,24.6,4.4c7.4,1,13.9,4.8,21,7c0.3,0.2,0.5,0.4,0.3,0.7
			C1005.2,331.9,1005.1,332,1005,332z"/>
		<path class="st56" d="M984,324c-8.5-0.1-16.6-3.2-25-4c-4.1,0.5-4.7-0.2-4-4c3.5-1.1,5.1,2.5,8.1,3c5.2,0.9,10.3,2,15.5,3
			C980.5,322.4,982.4,322.6,984,324z"/>
		<path class="st55" d="M955,316c-0.2,2.9,1.1,4.2,4,4c0,0.3,0,0.7,0,1c-4.8,0-8.7-1.4-11-6c0.7,0,1.3,0,2,0
			C951.5,316,953.2,316.1,955,316z"/>
		<path class="st57" d="M1005,332c0-0.3,0-0.7,0-1c5.2,0.2,8.7,3.8,13,6C1012.6,338,1009.1,334.3,1005,332z"/>
		<path class="st58" d="M741,627c0,1,0,2,0,3c-8.1-10.5-12.8-22.7-17.7-34.8c-3.5-8.6-6.2-17.4-9.3-26.2c0-0.7,0-1.3,0-2
			c3.5,2,2.6,6.4,5,9c4,4.5,4.5,10.5,6.6,15.9c4,10.3,8.7,20.3,13.8,30.2C740.2,623.6,741.7,624.9,741,627z"/>
		<path class="st54" d="M812,694c7.9,0.7,13.5,6.5,20.6,9.1c0.4,0.2,0.7,0.9,1.1,0.9c8.1,0.7,13.7,8.2,22.2,8.1c2.8,0,5.9,0.6,8,3.2
			c1.4,1.8,3.8,2.5,5.8,2.5c5.9-0.2,11.7,1.3,17.6,1.2c2.8,0,4.5,1.8,6.7,3c0.3,0.5,0.3,1-0.2,1.4c-0.7,0.4-1.5,0.6-2.3,0.4
			c-2.3-0.5-4.7-0.3-6.9-1.5c-5.2-1.4-10.5-1.9-15.7-3.3c-4.3-1-8.7-1.7-12.6-4c-2.1-1.3-4.6-1.7-7.1-1.9c-3.7-0.4-7.2-1.3-9.8-4.1
			c-2.1-2.2-5.4-1-7.5-3c-6.8-2.5-13-6.3-19.3-9.8C812,695.8,811.6,694.9,812,694z"/>
		<path class="st53" d="M812,694c1.6,2.5,4.5,3.6,6.8,4.5c4.8,1.9,8.9,4.8,13.2,7.4c-1,0-2,0-3,0c-6.3-2.4-12-6.1-17.8-9.4
			c-1.7-1-3.2-2.4-5.2-2.6c-1.3-2.3-3.4-3.6-6-4c-1.4-3.2-5.5-3.9-7-7c-1.4-1.6-4.6-1.8-4-5c3.9,0.8,6.4,4.1,9.2,6.3
			C802.7,687.7,808.1,689.8,812,694z"/>
		<path class="st55" d="M894,723c0-0.3,0-0.7,0-1c4.8,0,8.7,1.4,11,6c-1,0-2,0-3,0c-1.3,0-2.7,0-4,0c-0.3-0.3-0.6-0.7-0.8-1
			C896.8,725.1,895.1,724.2,894,723z"/>
		<path class="st16" d="M898,727c0,0.3,0,0.7,0,1c-5.3-2-10.7-4-16-6c1-0.7,2-0.7,3,0c2.3,0.6,4.6,1.3,7,1
			C894.7,723.3,896.6,724.8,898,727z"/>
		<path class="st56" d="M885,722c-1,0-2,0-3,0c-4.4-0.8-9-0.3-13-3C874.5,719,879.8,720.1,885,722z"/>
		<path class="st12" d="M719,453c-0.3,0-0.7,0-1,0c0-0.7,0-1.3,0-2c3.3-7.7,4.8-16.1,10.2-22.9c1.1-1.3,1.2-3.4,1.8-5.1
			c2-1.7,2.2-4.9,5-6c0.2,0.2,0.3,0.4,0.5,0.6c-1.7,6.4-4.7,12.2-8.2,17.7c-0.8,1.2-1.6,2.4-2.2,3.8c-1,2.3-2,4.7-3,7
			C720.3,448,720.2,450.8,719,453L719,453z"/>
		<path class="st59" d="M742,406c-0.7,2-1.3,4-2,6c-0.1,2.3-1.4,3.9-3,5.4c-0.7,0.3-1.4,0.2-2-0.4c0,0-0.1,0-0.1,0
			C736.2,412.6,739,409.2,742,406z"/>
		<path class="st44" d="M749,396c-1,4-3.2,7.1-7,9C744.2,401.9,746.1,398.5,749,396z"/>
		<path class="st40" d="M865,315c-2.2,2.1-5.1,2.7-8,3C859.2,315.9,862.1,315.3,865,315z"/>
		<path class="st37" d="M822,333c-1.1,2-2.9,2.7-5,3C818.1,334,819.9,333.3,822,333z"/>
		<path class="st37" d="M1006,721c-0.7,0.7-1.3,1.3-2,2c-1,0-2,0-3,0C1002.3,721.4,1004,720.9,1006,721z"/>
		<path class="st10" d="M788,688c1.3,0.3,2.7,0.7,4,1c1.5,3.1,5,4.3,7,7C794.1,695,791.6,690.8,788,688z"/>
		<path class="st10" d="M799,696c2.4,0.7,4.5,1.9,6,4C802.4,699.6,800.3,698.4,799,696z"/>
		<path class="st44" d="M1123,619c-2,3.7-5.3,6.6-6,11c-5.5,7.3-11,14.7-16.5,21.9c-2.4,3.1-4.9,6.1-7.4,9.1c-1.7,1.3-3.3,2.7-5,4
			c-1.4-1.9,0.1-3.1,1.2-4.3c8.3-8.8,14.6-19.1,22-28.6c4.1-5.6,7.6-11.6,10.6-17.9c1.1-2.4,1.3-6.1,5.3-6.2c0,0.3,0,0.7,0,1
			C1127.4,613,1122.2,614.8,1123,619z"/>
		<path class="st0" d="M1112,633c-7.6,9.8-14,20.5-22.8,29.4c-0.6,0.6-0.8,1.7-1.2,2.6c-6.1,4.5-10.2,11.3-17,15c0-0.7,0-1.3,0-2
			c0-0.3,0-0.7,0-1c5.7-6.6,13-11.8,18.5-18.7c6.7-7.8,12.3-16.4,18.7-24.4c1.1-1.3,1.5-3.5,4-2.9
			C1112.5,631.7,1112.6,632.4,1112,633z"/>
		<path class="st23" d="M1049,696c0.8-1.8,2.3-2.1,4-2C1052,695.3,1050.6,695.8,1049,696z"/>
		<path class="st1" d="M1122,600c0.9-6,1.6-11.7,4.7-17.3c4.1-7.2,3.3-16,5.2-24c1.3-5.5,2.2-11,7.1-14.7c0,2,0,4,0,6c0,0,0,0,0,0
			c-5.5,9.7-6.1,20.8-9.4,31.2c-1.7,5.3-4.2,10.4-5.6,15.8c-1.2,0.7-1,1.9-1,3C1122.6,600.3,1122.3,600.3,1122,600z"/>
		<path class="st34" d="M1122,600c0.3,0,0.7,0,1,0c-0.1,2.5-2.4,4.4-2,7c0.2,0.2,0.3,0.5,0.3,0.8c0,0.3-0.1,0.4-0.1,0.4
			c-1.8,1.7-2.8,3.7-2.6,6.2c-0.2,1.8-0.7,3.5-2.1,4.9c-1.3,0.9-2.4,2-3,3.5c-2.6,4.3-4.7,9-7.7,13.1c-1.4,1.8-2.5,4.5-5.7,3.1
			c0.1-3.6,4.8-4.4,5-8c4.4-7.7,9.4-15.2,12.1-23.8C1118,604.4,1119.6,601.9,1122,600z"/>
		<path class="st34" d="M1124,597c-0.1-2.2,0.1-4.2,1.1-6.2c4.8-9.7,7-20.2,8.7-30.7c0.7-4.2,2.4-7.3,5.2-10.1
			c0.7,6.2-4.1,10.7-5.1,16.5c-1.6,9.3-4.6,18.3-8,27.1C1125.5,594.9,1125.2,596.2,1124,597z"/>
		<path class="st60" d="M1135,576c0,1,0,2,0,3c-1.7,5.7-3.4,11.3-5,17c-0.9,3.1-2.1,6.1-3.2,9.2c-0.6,1.7-1,3.9-3.7,3.8
			c-0.6-0.6-0.7-1.3-0.1-2c2-5.3,4-10.6,6-16c1.5-3.9,3.3-7.8,4-12c0-1.1-0.2-2.3,1-3C1134.3,576,1134.7,576,1135,576z"/>
		<path class="st14" d="M1133,579c0.2,4.5-1.5,8.4-4,12C1129.4,586.7,1131.5,582.9,1133,579z"/>
		<path class="st45" d="M1123,607c0,0.7,0,1.4,0,2c0,0.2,0,0.5,0,0.7c-0.9,1.3-0.4,4.3-3.5,2.9c-0.8-2,0.3-3.3,1.5-4.6
			c0-0.3,0-0.7,0-1C1121.7,607,1122.3,607,1123,607z"/>
		<path class="st61" d="M1125,434c-0.7-2-1.3-4-2-6c0.3,0,0.7,0,1,0c0.3,0.3,0.7,0.7,1,1c1.3,1.5,2,3.4,3,5c2.3,5.7,4.7,11.3,7,17
			c0,0.7,0,1.3,0,2c-0.3,0-0.7,0-1,0c-2.1-4.6-4.5-9.2-5.9-14.1C1127.5,437,1127,435,1125,434z"/>
		<path class="st26" d="M1128,434c-2-1.1-2.7-2.9-3-5C1127.1,430,1128.2,431.6,1128,434z"/>
		<path class="st39" d="M1000,719c-1.3,1.6-3.1,2.1-5,2C996.3,719.4,998,718.9,1000,719z"/>
		<path class="st29" d="M847,721c2-0.1,3.7,0.4,5,2C850,723,848.3,722.6,847,721z"/>
		<path class="st62" d="M1123,609c3.3-2,3.1-5.9,4.7-8.8c0.8-1.4,0.9-3.1,2.2-4.2c0.3,0,0.7,0,1,0c-1.3,4-2.7,8-4,12
			c-4.6,3.9-4.8,10.2-8.3,14.8c-2.5,3.2-3.8,7.2-6.7,10.2c0-0.7,0-1.3,0-2c-0.3-0.4-0.4-0.8-0.4-1.4
			C1115.3,622.7,1119.7,616.1,1123,609L1123,609z"/>
		<path class="st58" d="M1139,475c0,0.7,0,1.3,0,2c-2.9-0.3-2.8-2.9-3.5-4.7c-2.5-6.6-3.6-13.7-6.5-20.3v0c-0.6-1.9-2-3.6-1.3-5.8
			c0.4-0.5,0.8-0.5,1.3-0.2C1132.3,455.7,1135.7,465.3,1139,475z"/>
		<path class="st63" d="M1129,446c-0.3,0-0.7,0-1,0c-3.1-3-3.6-7.4-5.6-11c-0.2-0.8,0-1.5,0.6-2c0.7,0.7,1.3,1.3,2,2
			C1125.8,438.9,1128.5,442,1129,446z"/>
		<path class="st64" d="M737,417c0.3-2.1,1.7-3.5,3-5c3.4-3.3,5.1-8,9-11c-0.3,1.3-0.7,2.7-1,4c0,0.7-0.4,1.3-0.8,1.8
			c-1.4,1.4-2.4,3.1-3.3,4.9c-0.2,0.4-0.4,0.8-0.7,1.1c-1.9,3-3.9,6-5.5,9.2c-0.3,0.6-0.6,1.2-0.9,1.8c-1.9,5.5-5.1,10.3-7.1,15.8
			c-0.5,1-1.3,1.9-2.1,2.8c-0.8,0.7-1.3,2-2.7,1.5c-0.6-2.7,2.6-4.3,2-7c1-4.8,3.8-8.8,5.8-13.2C733.9,421.4,735.2,419,737,417z"/>
		<path class="st60" d="M725,444c0.7-0.7,1.3-1.3,2-2c0.9,0.7,1.1,1.7,1.1,2.8c-0.1,1.7-0.6,3.4-1.4,4.9c-1.2,1.6-2.3,3.2-2.2,5.4
			c-0.1,0.7-0.3,1.3-0.7,1.9c-0.3,0.4-0.5,0.7-0.9,1c-2.1,1.8-1.7,4.3-1.9,6.6c-0.2,1.5-0.5,2.9-2.2,3.5c-0.3,0-0.7,0-1,0
			c0-1.3,0-2.7,0-4C719.3,457,722.7,450.7,725,444z"/>
		<path class="st43" d="M737,417c-2.6,7-7,13.2-10,20c-0.7,0.7-1.3,1.3-2,2c1.5-6.4,5.7-11.5,8.1-17.5c0.6-1.5,1.8-2.8,2-4.5
			C735.7,417,736.3,417,737,417z"/>
		<path class="st32" d="M719,453c0.4-2.6,0.3-5.4,3-7C721.3,448.5,721.1,451.1,719,453z"/>
		<path class="st35" d="M719,468c0.7-1.2,1.2-2.5,1-4c1.1-2.3,0.5-5.3,2.9-7l0.1,0.1c3.2,0.9,1.5,3.4,1.1,4.8
			c-2.3,7.4-3.9,15-5.4,22.6c-0.5,2.5-1.5,5.2-4.8,5.5c0,0,0,0,0,0c-0.1-3.9,1.6-7.3,3-10.8c1.1-2.6,2.3-5.2,2-8.2
			C719,470,719,469,719,468z"/>
		<path class="st13" d="M741,627c-9.7-16-16.7-33.1-22-51c0.2-4.6-2-8.4-3.8-12.4c-0.8-1.8-1.4-3.6-1.3-5.6c0-1,0-2,0-3
			c3.8,0.5,4,3.9,4.9,6.5c1.9,5.4,2.5,11.2,4.4,16.6c0.3,0.4,0.5,0.9,0.6,1.4c1.5,7.5,4.7,14.5,7.2,21.7c0.5,1.4,1.1,2.7,1.7,4.1
			c0.7,2,2.2,3.7,3,5.7c1.6,5.6,5.3,10.1,7.9,15.2c0.2,1,0.2,2-0.7,2.8C742.3,628.3,741.7,627.7,741,627z"/>
		<path class="st1" d="M714,544c7.8,6.5,7.1,16.2,8.8,24.9c0.8,4,2,8,2.2,12.1c-1.9,0.6-1.1-1.6-2-2l0,0c-1.8-5.1-2.7-10.5-4-15.7
			c-1.1-4.7-2.5-9.2-5-13.3c0,0,0,0,0,0C714,548,714,546,714,544z"/>
		<path class="st53" d="M714,490c3-2.7,4.3-6.4,4.8-10.1c0.8-6,2.6-11.6,4.5-17.3c0.6-1.9,1.5-3.8-0.2-5.6c0.3-0.7,0.6-1.3,0.9-2
			c0.5-1.8,0.9-3.5,2.1-5c0.3-1.7,0.7-3.3,1-5c1-1.1,0-2.9,1.5-3.7c3-5.6,6.1-11.1,8-17.2c5.4-8.1,10.1-16.7,16.5-24.1
			c1.8-1.9,2.9-4.7,6-5c0,0.3,0,0.7,0,1c-1,4-4.3,6.8-6.7,9.6c-6.3,7.1-10.4,15.6-14.3,23.8c-3.7,7.9-7.9,15.7-10.3,24.4
			c-2.4,8.5-5.1,17-7,25.7c-0.2,1-0.7,1.9-0.7,2.9c0.1,5.5-1.4,10.3-6.1,13.7C714,494,714,492,714,490z"/>
		<path class="st33" d="M714,550c3.5,1.8,4.4,5,5,8.6c1.2,6.8,2.6,13.6,4,20.4c-3.5-4.8-3-10.9-5-16.3c-1-2.8-1.8-5.6-4-7.7
			C714,553.3,714,551.7,714,550z"/>
		<path class="st31" d="M1129,452c3.9,4.8,3.8,11.1,6,16.6c1.2,2.9,1.6,6.1,4,8.4c0,1,0,2,0,3c0,0.7,0,1.4,0,2
			c-2.6-2.7-3.3-6.3-4.4-9.8C1132.6,465.5,1130.9,458.8,1129,452z"/>
		<path class="st47" d="M985,719c-8.8,0.2-17.2,3.2-25.8,4.6c-2.3,0.4-4,2.4-5.2,4.4c-1.3,0-2.7,0-4,0c-0.1-0.2-0.1-0.4-0.2-0.7
			c1.3-1.6,2.6-3.1,4.2-4.4c2.1,0.3,4.1-0.2,5.8-1.1c6.5-3.9,13.8-2.8,20.8-3.8c3.3-0.5,6.4-0.9,9.1-3.1c4.1-3.3,9.5-2.5,14.2-3.9
			c1.2-0.4,2.9,0,3.6-1.2c2.5-4.3,6.5-4,10.5-3.8C1007.9,712.6,996.2,715.2,985,719z"/>
		<path class="st16" d="M944,729c1.1-1.5,2.6-0.9,4-1c0.7-0.6,1.3-0.6,2,0c0,0,0,0,0,0C948.2,729.8,946,728.7,944,729z"/>
		<path class="st2" d="M759,395c-2,1.7-4,3.4-6,5c2.7-4,5.3-8,8-12c3.6-3,5.9-7.5,10-10c-1.8,4.6-5.9,7.3-8.7,11.1
			C760.9,390.9,759.3,392.5,759,395z"/>
		<path class="st2" d="M784,366c-3.7,4-6.8,8.7-12,11c3.3-3.7,6.7-7.3,10-11C782.7,366,783.3,366,784,366z"/>
		<path class="st2" d="M753,400c-0.3,4.2-3.8,6.6-6,9.5c-3.5,4.7-4.6,11.1-10,14.6c-0.6-0.1-0.7-0.6-1-1c0.3-0.3,0.6-0.7,0.9-1
			c2.2-3.2,4.1-6.6,6-10l0,0c1.3-2,2.5-4.1,4-6c0.3-0.3,0.7-0.7,1-1C750.3,404,750.5,400.8,753,400z"/>
		<path class="st9" d="M789,678c1.3,1.7,2.7,3.3,4,5c-5.4-1.3-8.4-6-12.5-9.2c-3.6-2.8-6-7-10.4-8.9c0-0.3,0-0.6,0-1
			c-2.8-3.5-6-6.7-9-10c-1.7-3.7-5.6-6-7-10c-1.7-4.5-6.2-7.1-7.3-12c0.4-0.4,0.8-0.4,1.3-0.1c10.6,14,21.4,27.8,34,40
			c1.3,2.5,3.8,3.6,6,5C788.3,677.3,788.7,677.7,789,678z"/>
		<path class="st38" d="M747,632c1.4,4.5,6.7,6.8,7,12c-4.2-4.6-8-9.5-11-15c0-1,0-2,0-3C746.1,626.8,745.9,629.9,747,632z"/>
		<path class="st65" d="M761,654c3.9,2.6,7,5.7,9,10C766.5,661.1,762.9,658.3,761,654z"/>
		<path class="st66" d="M931,691.8c-3,0-6.1,0-9.1,0c-3.2-1-6.6,0.2-10.2-0.8c1.4-2.7,3.7-1.7,5.6-2.1c-4,0.2-7.5,0.3-10.4-3.4
			c-2-2.5-5.8-2.2-8.9-2.2c-9.3,0.2-17.7-3.9-26.6-5.5c-3.6-2.4-7.7-3.6-11.8-5c-6.7-2.2-13-5.5-19-9.2c-3.8-2.3-7.5-4.7-11.5-6.6
			c-8.8-5.7-16.8-12.4-24.1-19.9c-8.3-8.5-15.3-18.2-22.1-28c-1-1.4-1.8-2.8-2.1-4.5c-0.4-2.9-2.7-4.6-4-6.9
			c-0.3-0.4-0.5-0.8-0.6-1.2c-1.2-5.2-3.6-9.8-6.6-14.1c-0.2-0.4-0.4-0.9-0.5-1.3c-1.3-5.4-1.1-11.3-4.7-16c-0.2-0.5-0.4-1-0.5-1.5
			c-1.3-8.3-5.4-16-5.4-24.6c0-3.5-4.1-4.1-5.1-7c-0.5-1.3-0.6-2.7-0.6-4c0-6.3-0.1-12.6,0-18.9c0.1-3.2,0.5-6.3,3.8-8.1
			c1.8-1,2-2.9,2.1-4.8c0.2-9.8,4.4-18.7,7.1-27.8c0.7-2.2,1.5-4.3,2.1-6.6c2.5-9.8,6.9-18.8,12.4-27.3c0.8-1.3,1.4-2.6,1.8-4
			c0.3-0.7,0.7-1.3,1.2-1.8c1.7-0.7,2.9-1.9,2.8-3.9c1.9-5.2,5.7-9.2,9.2-13.3c1.5-0.6,2.7-1.5,3.3-3.1
			c8.7-10.1,18.5-18.8,29.5-26.3c2.6-1.8,4.6-4.3,7.4-5.8c2.5-0.5,4.4-1.8,6.5-3.3c5.6-3.9,12.2-5.8,18.2-8.8c6-3,12.6-5.1,19.4-5.8
			c4.6-0.5,7.7-5.2,12.8-5c7.7,0.3,14-5,21.3-6.1c0.5-0.2,1.1-0.3,1.7-0.4c8.5-0.2,17-0.3,25.4,0.1c5.2,1.1,10.5,1.6,14.9,5.2
			c1.2,1,2.9,0.5,4.4,0.7c4.7,0.4,9.2,1,13.2,3.9c1.5,1,3.2,2,5,2c8.6,0.2,15.6,5,23.1,8.3c6.1,2.6,12,5.5,17.8,8.7
			c3.7,2,6.7,4.9,10,7.2c9.2,6.5,17.8,13.9,25.4,22.3c7.4,8.6,14.2,17.6,20.1,27.2c3.7,6,7.2,12.3,9.5,19.1c0.1,2.2,0.5,4.4,1.4,6.3
			c4.9,10.3,6.7,21.5,8.3,32.7c0.6,4.1,1.2,7.8,4.6,10.6c0.9,0.7,1.2,1.9,1.5,3.1c0.7,9.6,0.6,19.3,0.1,28.9c-0.3,1.3-0.6,3-1.6,3.5
			c-4.6,2.3-4.2,6.7-5.1,10.6c-1.8,8.2-2.8,16.6-4.4,24.9c-0.1,0.5-0.3,1-0.6,1.4c-4,4.8-4.3,10.8-5.5,16.5
			c-6.6,14.5-15.1,27.7-25.5,39.7c-8.1,9.4-17.1,17.9-27.4,25c-0.4,0.2-0.9,0.4-1.4,0.6c-5.2,1.9-9.2,5.8-14.2,8.1
			c-7.4,3.4-13.6,9.2-22.1,10.3c-3,0.4-5.4,2.6-8.2,3.5c-7.3,2.2-14.7,3.9-22.2,5.2c-6.1,1.1-12.9,0.1-17.2,6.3
			c-0.4,0.2-0.9,0.3-1.4,0.4c-2.4,0.1-4.8,0-7,0.1c1.9,0.1,3.9-0.3,5.9,0.3c0.5,0.3,0.8,0.7,0.8,1.2
			C939.3,692.8,935,690.5,931,691.8z"/>
		<path class="st67" d="M782,604c0.9,5.5,5.2,9.1,8.1,13.3c10.6,15.2,23.8,28,38.9,38.7c0.9,0.9,3,1.2,1.9,3.3
			c-1.5,0.7-2.5-0.1-3.6-0.9c-13.4-10.2-26.1-20.9-36.2-34.6c-0.9-1.2-2-2.2-3.2-3.1c-10.8-13.5-18.7-28.5-24-45
			c-2.8-8.8-5.6-17.7-10.1-25.9c-1.4-2.5-0.4-5.1-1.2-7.5c-0.4,0.6,0.7,2.4-1.4,2.6c-1.5-1.7,0.1-4.2-1-6c0-4,0-8,0-11.9
			c2.7,1.5,0.5,4.3,1.4,6c-0.2-1.4-0.2-3.1,0-4.6c0.3-2.2,1.3-1.8,2.4-0.4c0,1.3,0,2.7,0,4c4.7,10.3,7.3,21.4,11,32c0,0.3,0,0.7,0,1
			c3.1,5.3,3.1,11.4,5,17c2.4,5,5.5,9.6,7,15C778,599.8,780.4,601.6,782,604z"/>
		<path class="st68" d="M877,692c-2.3,0-4.7,0-7,0c-1.7-0.8-1.6-3-3-4c-6.4-5-14.7-5.6-21.8-9.5c-13.2-7.2-25.4-15.6-36.7-25.4
			c-5.3-4.6-10.1-9.8-15.1-14.7c-8-7.9-13.1-18-20.6-26.2c-2.8-3.1-3.5-7.4-5.7-10.9c-4.1-6.4-8.6-13-8.1-21.3
			c-0.5-0.4-0.4-0.8,0.1-1.2c2.2,0.2,2.4,2.1,2.8,3.6c2.5,8.9,7.5,16.5,11.9,24.4c4.4,6.2,8.7,12.4,13.3,18.5
			c7.6,10.2,16.9,18.5,26.1,27.1c2.5,2.4,5,4.8,7.9,6.7c2.2,1.6,3.7,4,6.4,4.8c0.4,0.2,0.8,0.4,1.2,0.6c2.7,1.5,4.7,4.2,7.7,5.3
			c0.4,0.2,0.8,0.3,1.2,0.6c3.3,1.9,6.3,4.1,9.8,5.5c0.4,0.1,0.8,0.3,1.2,0.5c2.8,1.3,5.4,3.2,8.6,3.3c0.7,0.1,1.4,0.2,2.1,0.5
			c5.6,2.1,10.6,5.8,16.7,6.8C878.6,688.3,878.9,689.9,877,692z"/>
		<path class="st69" d="M754,528c-4.7-0.3,0.1,4.3-2.8,4.7c-1-1.6,0.7-4-1.1-5.7c0-8,0-16,0-24.1c1.1-1.8-0.5-4.2,1.1-6
			c2.8,0.6,0.7,3.1,1.9,4.7c0,0.3,0.4-0.9-0.2-0.5c-0.2,0.2-0.3,0.1-0.3-0.3c0-8.9,4.6-16.5,7.2-24.7c1.9-5.8,4.2-11.5,5.8-17.4
			c2.2-8.1,7.4-14.9,10-22.8c0.2-0.4,0.5-0.9,0.7-1.3c1.9-1.7,2.7-4.5,5.4-5.3c0.5,0,0.9,0.2,1.2,0.6c0.1,1.8,0,3.6-1.5,5
			c-3.2,3.1-4.5,7-5.8,11.2c-1.3,4.2-4.7,7.6-5.9,12.3c-2.6,10.3-5.9,20.5-9.1,30.6c-0.8,2.5-0.4,4.9-0.8,7.4
			c-0.4,2.6,0.7,6-4.1,6.4c-1.7,0.1-1.8,3.2-1.8,5.1C754,514.7,754,521.4,754,528z"/>
		<path class="st70" d="M964,691.9c-3.7,0-7.3,0-11,0c-0.9-1.1,2-1.2,0.7-2.5c0.2-0.9,0.7-1.6,1.5-2.1c0.4-0.2,0.9-0.3,1.3-0.4
			c3.3,0,6-2,9.2-2.7c1.3-0.5,2.6-1,4-1.4c0.5-0.1,0.9-0.2,1.4-0.3c21.9-5.6,42.2-14.6,60.1-28.6c0.6-0.7,1.4-1.3,2.2-1.7
			c2.2-0.6,3.6-2.3,5-3.9c2.4-3.2,5.9-5.3,8.9-7.9c1.5-1.3,2.9-2.6,4.1-4.1c2.3-2.5,4.1-5.3,6.9-7.3c2.5-1.5,3-5.5,6.8-5.1
			c0.3,0.4,0.4,0.8,0.5,1.3c-2.8,6.6-8.1,11.1-12.9,16.1c-6.5,6.9-14.2,12.4-21.4,18.5c-18.5,13.1-38.9,22-60.5,28.1
			C968,688.7,966.3,690.7,964,691.9z"/>
		<path class="st71" d="M789,620c5.3,5.2,9.7,11.2,14.8,16.5c6.3,6.6,13.2,12.3,20.6,17.6c2.2,1.6,3.5,4.6,6.6,4.9
			c1.9-0.8,3.1,0.6,4.4,1.5c6.8,4.7,14.5,7.6,21.7,11.7c1.2,1.1,2.8,1.6,4.3,2.1c2.2,0.9,4.5,1.4,6.8,2c4,1.6,7.6,4.3,12.1,4.7
			c2.2,0.6,4.5,0.6,6.7,1.2c5.6,0.5,10.4,3.9,16,4.4c1.6,0.1,3.3,0,4.7,0.9c0.9,0.5,1.5,1.2,1.2,2.4c0,0,0.1,2,0.1,2
			c-3.7,0-7.3,0-11,0c-13.1-6.4-27.5-9.1-40.9-14.5c-2.1-0.9-4.2-1.9-6.1-3.3c-1.2-1-2.5-1.8-4.1-2c-0.9-0.2-1.7-0.5-2.4-1.2
			c-1-1.2-2.3-1.8-3.8-2.1c-1.3-0.4-2.5-1.1-3.5-2c-10.7-6.8-20.5-14.9-30.4-22.8c-1.1-0.5-1.9-1.3-2.4-2.4c-0.7-2-2-3.2-4-3.9
			c-4.5-3.9-8.2-8.5-11.3-13.5C788.6,622.8,787.8,621.4,789,620z"/>
		<path class="st72" d="M963,340c3,0,6,0,9,0c1.3,3.6,4.6,5.1,7.8,6.4c6.9,2.8,13.5,6.2,20.6,8.5c5.4,1.8,10.6,5.2,15.8,8.1
			c18.3,10.2,33.7,24.2,48,39.5c0.6,0.6,1.1,1.3,1.4,2.1c0.1,0.5,0,1-0.2,1.4c-3.6,0.9-4.5-3-7-4c-7.5-6-13.1-14-20.9-19.5
			c-5.2-3.7-10.2-7.8-15.9-10.8c-10.9-7.2-22.5-12.7-34.9-16.9c-7.8-2.7-15.4-6.3-22.7-10.3C961.8,343.3,960.2,342,963,340z"/>
		<path class="st73" d="M750.1,486c0-1.7,0-3.4-0.1-5c3.4-3.6,5.9-7.7,6.7-12.7c5.2-18.1,13.7-34.5,24.2-50
			c6.3-6.4,11-14.1,17.6-20.3c4.6-4.3,8.8-9,13.6-13.1c1-0.9,2.1-1.7,3.6-1.2c1.7,2.3-1.4,3.4-1.3,5.3c-0.3,0.4-0.6,0.7-1,1
			c-7.9,5.5-13.6,13.1-19.9,20.2c-10.3,11.7-17.9,25.2-24.6,39.2c-2.8,5.9-4.5,12.2-6.7,18.3c-2.2,6-5,11.6-7.4,17.5
			C753.8,487.6,752.1,487.6,750.1,486z"/>
		<path class="st74" d="M1065,405c-9.2-10-18.7-19.7-29.6-27.9c-6.9-5.2-13.7-10.6-21.5-14c-6.4-2.8-11.9-7.2-18.8-9.2
			c-6.4-1.9-12.6-5-18.6-7.9c-2.2-1.1-5.5-2.2-4.4-6c3.4-0.6,5.7,0.9,8.1,3.4c5.6,5.9,13.4,8,20.9,10.6c2.5,0.9,5.2,1,6.6,3.8
			c0.4,0.8,1.5,1.4,2.4,1.7c10.4,3.3,18.4,10.4,27,16.7c12.1,8.8,22.1,19.7,32.1,30.5c1.2,1.3,2.1,2.6,1.9,4.4
			C1067.5,410.4,1066.6,407.4,1065,405z"/>
		<path class="st75" d="M750.1,486c2.1,0,3.1-0.4,4.3-3c8-16.7,12.1-35,21.9-50.9c9.4-15.2,20.5-28.8,33.3-41.3
			c1.3-1.2,2.6-2.1,4.4-1.8c0.2,0.4,0.3,0.8,0.1,1.2c-1,1.1-2.3,2-3.1,3.3c-0.3,0.4-0.6,0.7-0.9,1c-1.9,1.4-3.7,3-5.1,5
			c-0.5,0.7-1,1.4-1.7,1.9c-1.7,1-2.9,2.3-3.9,4c-2.4,2.6-4.4,5.5-6.8,8.1c-2.9,3.6-5.7,7.4-8.5,11.1c-0.2,0.4-0.4,0.8-0.7,1.2
			c-1.8,3.3-4.4,6-6.4,9.2l0,0c-4.2,9.7-9.8,18.7-12.4,29.1c-2.4,9.6-7.3,18.4-10,27.9c-0.7,2.5-2.8,1.8-4.5,1.9
			C750.1,491.3,750.1,488.7,750.1,486z"/>
		<path class="st76" d="M789,620c0.3,1.3,0.7,2.7,1,4c-4.1-0.8-5.3-4.5-7.4-7.3c-2.2-2.9-3.3-6.5-6.3-8.9c-1.3-1.2-2-2.6-2.4-4.3
			c-0.4-2.2-1.3-4.3-3-5.8c-2.1-2-2.8-4.8-3.8-7.4c-0.3-1.8-1-3.5-2.3-4.9c-1.7-2.7-2.5-5.7-3-8.8c-0.1-3.5-1.6-6.6-3.2-9.7
			c-0.2-0.4-0.4-0.8-0.5-1.3c-0.8-3.5-1.9-6.9-4.3-9.7c-0.3-0.4-0.5-0.8-0.6-1.2c0.1-2.3-1.8-3.3-3.1-4.7c0-3.7,0-7.3,0-11
			c1.6,1.4,0.4,3.5,1.5,5.6c0.3-1.6,0.5-2.6,0.9-4.7c3.4,13.3,9.7,24.5,13.2,36.9c3.1,11.3,8.7,21.7,15.1,31.6
			C783.4,612.4,785.6,616.6,789,620z"/>
		<path class="st74" d="M1103,569c0.8,5.9-0.1,11.1-5.8,14.4c-2.2,1.3-3,3.6-3.4,6.3c-1,7.3-6.4,12.7-9.1,19.2
			c-2.1,5-6.2,8.8-9,13.3c-2.7,4.3-5.3,9.5-10.7,11.7c-1.4-2.1,0.3-3.3,1.4-4.6c1.6-1.7,2.8-3.5,3.9-5.5c2.3-2.9,4.4-5.9,6.1-9.1
			c1.9-2.3,4-4.5,5-7.4c3.1-5.2,6.2-10.4,8.7-16c1-2.2,1.7-4.2,1.8-6.5c0.3-1.7,0.7-3.4,1.6-4.9c2.6-1.9,3.5-4.7,4.4-7.5
			C1098.5,570.1,1099.5,567.5,1103,569z"/>
		<path class="st76" d="M912.1,340.1c8.3,0,16.6,0,24.9,0c-2.4,3.6-6.4,1.3-9.4,2.6c-0.7,0.1,0.3,0.8,0,0.2
			c-0.2-0.3-0.1-0.4,0.3-0.4c3.6-0.2,7.2-0.6,10.9-0.8c2-0.1,4.4-0.7,5.3,2.2c-2,2.1-4.6,1.4-7.1,1.5c-12.1,0.3-24.2-0.9-36.1,2.8
			c-8.7,2.7-17.2,6.1-25.8,9.1c-3.1,1.1-6.1,2.5-9.4,3c-1.2,0-2.3-0.1-3.3-0.7c-0.7-0.6-0.9-1.3-0.8-2.2c0.2-0.5,0.6-0.9,1-1.2
			c1.4-0.7,2.9-1.1,4.4-1.4c4.9-0.4,9.3-2.7,13.8-4.4c1.8-0.7,3.6-1.4,5.3-2.3c8.1-3.2,16.2-6,25-6.2
			C913.5,341.9,911.6,340.6,912.1,340.1z"/>
		<path class="st77" d="M851,673c13.9,6.4,28.4,11,43.1,15c1.6,0.4,4.2-0.2,1.8,2.7c0.7,0.4,1.4,0.8,2.1,1.2c-3.7,0-7.3,0-11,0
			c-1.6-1.4-3.2-2.8-5.4-3.4c-10.1-2.7-19.5-7.5-29.4-10.8c-4.3-2-8.4-4.4-12.5-6.8c-2-1.2-5.3-1.6-4.5-5.3c1-0.3,1.9-0.3,2.8,0.3
			c1,0.7,2,1.3,3,2c1.3,0.8,2.9,0.9,4,2c0.4,0.8,1.2,1,2,1C848.3,671.8,849.9,671.9,851,673z"/>
		<path class="st78" d="M821,376c0.3-0.3,0.7-0.7,1-1c1.2-1.9,2.8-3.4,5-4c0.7-0.7,1.3-1.3,2-2c3.9-3.4,8.5-5.6,13-8
			c1.7-0.7,3.3-1.3,5-2c2.9-1.8,5.4-4.4,9-5l0,0c1.5-1.2,3.5,0.2,5-1h0c4-2.2,7.9-4.7,12.4-6c3.4-1,5.4-4.3,7.6-7c2.7,0,5.3,0,8,0
			c1.8,3-0.7,4.2-2.5,5.4c-7.1,4.9-15.4,7.2-23.3,10.3c-10.4,2.5-19.1,8.4-28.2,13.6c-3.7,2.1-7.5,4.3-10.7,7.3
			c-0.9,0.8-2,1.2-3.2,0.7C820.7,376.9,820.6,376.5,821,376z"/>
		<path class="st79" d="M963,340c-0.2,1-1.5,2.1,0.3,2.9c8.4,3.7,16.6,8.2,25.3,11.2c11.9,4.1,23.4,9,33.4,16.9
			c-0.6,0.6-1.3,0.8-2.1,0.8c-6.2-3-12-6.7-18.5-9.2c-10.1-4.7-20.9-7.5-31-12.1c-6.2-2.8-12.4-5.6-19.3-6.3c-1.1-0.1-2.4-0.5-2.6-2
			c-0.2-1.7,1.5-1.4,2.3-2.1C954.9,340.1,959,340,963,340z"/>
		<path class="st80" d="M1065,625c0-0.3,0-0.7,0-1c-0.9-2.5,1.1-3.9,2.4-5.5c1.2-1.4,2-3,2.9-4.5c0.3-0.4,0.5-0.8,0.8-1.2
			c6.8-9.5,11.9-19.8,16.2-30.6c4-10,6.7-20.5,10.2-30.6c1-2.8,2.3-4.3,5.4-3.6c0,2.7,0,5.3,0,8c-4.3,3.8-4.5,9.4-6.3,14.2
			c-1.5,3.8-2.8,7.8-4.6,11.5c-0.8,1.4-1.5,2.7-1.9,4.2c-0.4,1.2-0.9,2.5-1.2,3.8c-0.1,0.4-0.3,0.9-0.5,1.3
			c-3.2,6.1-6.5,12.2-9.7,18.3c-2.6,3.7-5.1,7.6-7.7,11.4C1069.5,622.7,1068.3,625.3,1065,625z"/>
		<path class="st81" d="M950.9,340.1c-0.3,1-3.4,2.6,0.1,2.8c9.2,0.6,17,5.2,25.2,8.5c7.5,3.1,15.3,5.3,22.7,8.5
			c1.2,0.5,2.5,0.8,3.1,2.2c1,1.4,4.5,0.1,3.8,3.4c-0.9,0.6-2,0.9-2.8,0.4c-6.4-4.1-14-5.4-20.8-8.7c-12.1-5.5-24.2-11.1-37.7-12.6
			c-0.2-0.2-0.4-0.4-0.5-0.6c-3.9-2.1-8.1-0.6-12.2-1c-1.9-0.2-3.8,0-5.7-0.3c3.6-1.3,7.4-1,10.9-2.6
			C941.6,340.1,946.3,340.1,950.9,340.1z"/>
		<path class="st82" d="M964,691.9c1-7.1,7.7-5.3,11.6-6.6c17.8-5.9,35-12.9,50.5-23.8c1.5-1,3.2-1.7,4.8-2.5c0.4-0.4,0.8-0.4,1.2,0
			c-0.7,4.2-5.2,4.6-7.3,7.2c-0.4,0.3-0.8,0.6-1.2,0.8c-9.5,5.3-18.8,10.9-28.9,14.9c-1.7,1.4-3.7,2.2-5.8,2.8
			c-4.9,0.7-9.4,3.2-14.2,4.1c-1.8,0.4-2.3,2.2-3.7,3C968.7,691.9,966.3,691.9,964,691.9z"/>
		<path class="st83" d="M887,683c-2.4-0.1-4.8,0.4-7-1c-3.3-1-6.3-2.4-9.2-4.3c0.1-0.2,0.1-0.4,0.2-0.7c5.7,0.8,11.5,1.4,16.7,4.1
			c3.1,1.6,6.4,0.3,9.6,0.7c3.1,0.3,6.2,1.1,9.3,1.2c0.6,0,1.7,0.3,1.8,0.6c1.2,6.3,6.2,3.9,9.9,4.3c1.4,0.2,3-0.3,4.5,1.9
			c-3.7,0-6.7,0-11,0c4.1,2.1,7.5,0,10.2,2c-4.3,0-8.7,0-13,0c-1-1.3-2.8-0.6-4.1-1.1c0.9-1.4,2.7-0.1,3.4-1.5
			c-1.3-2.1-3.5-0.9-5.3-1.3C897.9,685.5,892.8,683.2,887,683z"/>
		<path class="st84" d="M1102.9,548c-5.8,1.8-5.5,7.6-6.6,11.7c-4.4,16.6-11.1,32.1-19.3,47.1c-1.4,2.7-3,5.6-5.9,7.2
			c-1.1-2.4,0.8-4,1.8-5.7c5-8.1,9.8-16.4,12.5-25.5c2-6.7,5.5-12.8,6.8-19.6c1.1-6.8,4.7-12.9,5.8-19.7c0.1-0.5,0.2-0.9,0.4-1.4
			c0.6-1.2,0.8-2.8,2.3-3.3c0.5,0.1,0.8,0.4,0.9,0.8c-0.5,2.8,1.4-1,1.3,0.5C1102.9,542.7,1102.9,545.3,1102.9,548z"/>
		<path class="st69" d="M1099,534c0-10.3,0-20.7,0-31c-0.7-1.1-0.8-2.3-0.6-3.5c1.4-1.3,1.3-3.6,3.1-4.7c1.7,1.2,0.4,3,1.3,4.2
			c0,11.7,0,23.4,0,35c-1.4,1.4,1.4,4.3-1.9,5v0c-0.6-0.6-1.1-1.4-0.8-2.1c1.3-3.3-1.6,0.4-1.5-0.9
			C1098.5,535.3,1098.5,534.6,1099,534z"/>
		<path class="st85" d="M821,376c0,0.3,0,0.7,0,1c0,2.6-2.2,3.6-3.8,4.7c-13.9,9.6-24.4,22.5-34.7,35.7c-1.4,1.1-2.7,2.2-3.5,3.9
			c-0.6,1.3-1,3.2-3.3,2.7c-0.4-0.7-0.3-1.4,0.2-2c2.2-6.5,7.7-10.6,11.5-16c5.4-7.7,12.4-13.9,19.1-20.3
			C810.6,382,814.5,376.6,821,376z"/>
		<path class="st86" d="M1071,624c0,4.5-5.3,5.9-6,10c-9.3,9.2-18,19-28.8,26.6c-5.6,4-11.1,8.2-17.2,11.4c-0.6,0.5-1.3,0.6-2,0.2
			c0.8-3.7,4.8-3.9,7-6.2c6.4-3.7,11.5-9.1,17.4-13.4c1.9-1.1,3.6-2.5,4.7-4.4c1.4-1.8,3-3.4,4.7-4.9c4.6-3.7,9-7.6,12.3-12.6
			c0.3-0.6,0.8-1.1,1.3-1.6c2.3-1.4,3-4.7,6-5.4C1070.6,623.8,1070.8,623.9,1071,624z"/>
		<path class="st33" d="M747,632c-1.3-2-2.7-4-4-6c-3.8-4.4-7.1-9-8-15c-0.6-1.9-1.8-3.5-3-5c-3.9-8.7-7.6-17.5-9-27
			c0.7,0.7,1.3,1.3,2,2c4.2,6.8,4.5,15,8.9,22c3.6,5.6,5.9,12.3,8.9,18.5c1.7,3.5,4.5,6.5,5.2,10.4C747.7,632,747.3,632,747,632z"/>
		<path class="st87" d="M776,424c2.4-2,3-5.5,6-7c0.6,0.7,0.5,1.3,0,2c-2.6,4.1-5.4,8.2-7.9,12.4c-6.9,11.9-12.6,24.3-16.1,37.6
			c-1.6,1.9-2.2,4.4-3.5,6.5c-1.2,1.8-2.5,2.5-4.5,1.5c0-1.3,0-2.7,0-4c4.1-4,6.4-9,8.2-14.3c2.6-9.8,7.5-18.5,12.1-27.4
			C771.7,428.5,773.2,425.7,776,424z"/>
		<path class="st88" d="M1059,401c2,1.7,4,3.3,6,5c9.2,9,15.6,19.9,21.9,31c2.5,4.5,4.6,9.1,6.1,14c0,0.3,0,0.7,0,1
			c0.5,2,2.4,3.6,2,5.9c-0.2,1.1-0.5,2-1.8,2.3c-3.4-3.6-3.9-8.6-5.9-12.8c-3.3-6.6-6-13.6-10.8-19.3c-0.7-0.6-1.2-1.4-1.5-2.3
			c-0.3-1.7-1.2-3-2.7-4c-0.8-0.7-1.5-1.5-2.1-2.4c-0.5-0.7-0.9-1.4-1.3-2.2c-0.5-1.5-1.5-2.5-2.8-3.3c-0.9-0.6-1.6-1.4-2.1-2.5
			c-0.5-1.6-1.3-3.1-3.1-3.7c-1.5-0.9-2.7-2.1-3-3.9C1058,402.7,1058.2,401.8,1059,401z"/>
		<path class="st89" d="M776,424c-4,7.3-8.2,14.6-11.9,22.1c-2.1,4.1-3.4,8.6-5.1,12.9c-1.2,2.8-3.3,5.2-4.3,8.2
			c-0.7,2.1-2.4,3-4.7,1.8c-0.2-3,0.1-5.2,3.5-7c2.8-1.5,4.8-5,5.8-8.9c3-11.6,8.1-22.3,16.7-31.1C776,422.7,776,423.3,776,424z"/>
		<path class="st90" d="M750.1,494c0.6-0.9,1.4-1.5,2-1c1.3,0.9,1.6-0.3,1.6-0.8c0-5.6,3.7-9.8,5.5-14.8
			c4.9-14.1,9.3-28.4,16.6-41.5c0.2-0.4,0.8-0.6,1.2-0.9c-1.1,4.2-2.6,8.1-4.9,11.8c-2.7,4.2-4.4,8.9-5.7,13.7
			c-3,11.4-7.7,22.1-11.7,33.1c-1,2.8-0.1,6-2.4,8.8c-0.2-1.6-0.3-3-0.5-4.8c-1.4,1.9,0,4.1-1.6,5.4C750.1,500,750.1,497,750.1,494z
			"/>
		<path class="st75" d="M1102.9,486c0,2,0,4,0,5.9c-3.4,2-4.8,0.4-5.1-2.9c-0.7-6.4-4.8-11.7-5.3-18.1c-0.2-0.4-0.3-0.9-0.4-1.3
			c-1.4-6.1-4.8-11.5-6.3-17.5c-0.2-0.4-0.4-0.8-0.5-1.3c-0.9-3.1-2.4-6-4.2-8.7c-0.3-0.3-0.5-0.7-0.7-1.1c-0.6-1.4-1.4-2.7-2.5-3.7
			c-1-2.1-2.7-3.8-2.8-6.3c0-0.8,0.3-1.5,0.8-2c0.5-0.2,0.9-0.3,1.4-0.2c5.8,7.8,9.8,16.5,13.1,25.6c1.1,3.1,2.6,6.1,4.2,8.9
			c0.2,0.4,0.4,0.9,0.5,1.4c1.2,6.7,4.2,12.9,5.5,19.9c0,0.3,1.1,0.1,0.4,0c-0.2,0-0.2-0.2-0.2-0.3c-0.4-0.9-0.2-1.8,0.6-2.1
			c1.2-0.4,1.2,0.7,1.2,1.5C1102.5,484.4,1102.4,485.3,1102.9,486z"/>
		<path class="st91" d="M773,608c-4.4-7.8-9.3-15.4-11.9-24.1c-0.5-1.7-0.7-3.6-2.1-4.9c-3.3-3.8-4.8-8.9-9-12c0-2,0-4,0-6
			c2.6-1.2,4.1,0,5.1,2.2c1.5,3.3,3.6,6.3,5,9.6c3.6,10.3,8,20.3,13,30C773.5,604.6,774.5,606.3,773,608z"/>
		<path class="st86" d="M1017,672c0.7,0,1.3,0,2,0c-6.8,4.7-13.8,9.1-22,11c-4.1,3.3-9.3,5.1-13,9c-2.3,0-4.7,0-7,0
			c-1-2.2-0.4-3.9,2-4.5c3.4-0.9,6.5-2.8,10-3.5c1.3-1.6,3.9-1.1,5-3c5.9-1.6,11.5-3.8,16.7-7.2C1012.5,672.7,1014.4,670.6,1017,672
			z"/>
		<path class="st78" d="M1093,451c-3.3-2.4-3.3-6.6-5.2-9.9c-6.3-11.4-12.8-22.6-21.4-32.5c-0.6-0.7-0.9-1.7-1.4-2.6
			c0-0.3,0-0.7,0-1c2.6,1.4,4.1,3.9,6,6c0.3,0.3,0.7,0.7,1,1c1.9,1.2,2.8,3.2,4,5l0,0c1.4,3.1,4,5.3,6,8c-0.1,1.7,0.2,3.2,2,4
			c2.8,5.8,6.9,10.9,9,17C1093,447.7,1093,449.3,1093,451z"/>
		<path class="st92" d="M863,355c7.5-3.8,15.8-5.7,22.8-10.5c1.6-1.1,3.7-1.9,3.2-4.5c2.7,0,5.3,0,8,0c2.8,2.1,1.5,3.4-1,4
			c-3.3,0.8-6.2,2.4-9.1,3.9c-0.4,0.2-0.8,0.4-1.3,0.6c-2.7,0.7-5.2,1.7-7.6,3.2c-3.7,1.5-7.3,3-11.1,4.1c-1.3,0.3-2.7,0.6-4,1
			C862.4,356.3,862.4,355.7,863,355z"/>
		<path class="st93" d="M852,677c3.2-0.5,5.9,1.2,8.5,2.4c7.7,3.6,15.7,6.2,23.8,8.5c2.6,0.8,1.8,2.7,2.8,4.1c-3.3,0-6.7,0-10,0
			c0-1.4,1.4-3.2-1-4c-5.9-1.8-11.3-4.9-17-7c-0.7,0-1.3,0-2,0c-1.7-0.9-3.8-1.2-5.2-2.8C851.7,677.8,851.7,677.4,852,677z"/>
		<path class="st94" d="M1091,582c2.7-7.9,5.5-15.8,8-23.8c0.7-2.3,2.8-1.3,3.9-2.3c0,2,0,4,0,6c-3,2.5-3.7,6.2-5,9.6
			c-1.1,2.9-1.6,6.1-4,8.5c-0.3,1.7-0.7,3.3-1,5c-0.5,0.6-1.1,0.6-1.8,0.5c-0.4-0.2-0.7-0.6-0.8-1
			C1090.5,583.6,1090.3,582.7,1091,582z"/>
		<path class="st95" d="M912.1,340.1c0.9,1.6,3.4,0.2,4.2,2.6c-6.9,1-13.9,0.9-20.5,3.3c-3.2,1.2-6.2,3.1-9.8,3.1
			c-0.1-0.2-0.3-0.3-0.4-0.5c0.1-0.2,0.3-0.3,0.4-0.5l0,0c5.2-3.3,10.8-5.3,16.9-6.1c1.1-0.1-0.6-1.3,0.2-1.9
			C906.1,340.1,909.1,340.1,912.1,340.1z"/>
		<path class="st90" d="M1093,470c1.5,6.8,5.6,12.8,6.1,20c0,0.7,0.4,1.9,0.9,2.1c1.3,0.4,0.6-1.2,1.1-1.5c1.7-1,0.7,1.5,1.8,1.4
			c0,2.3,0,4.7,0,7c-0.4-1-0.9-2-1.3-3c-1.6,0.3,1.1,4.3-2.6,3c-2.6-8.1-6.1-15.9-7.1-24.4C1091.7,473,1091.6,471.3,1093,470z"/>
		<path class="st88" d="M1093,460c0.8-0.5,0.9-1.2,1-2c2.6-0.5,2.7,1.8,3.5,3.3c1.7,3.3,2.5,7.1,5.4,9.8c0,2,0,4,0,6
			c-1.9,0.8-3.5,0.4-4.9-1.1c-1.9-3.8-2.9-7.8-4.1-11.9v0C1093.5,462.7,1092.7,461.5,1093,460z"/>
		<path class="st89" d="M881,340c0.1,1.6-0.4,2.9-1.5,4c-1.3,1.3-16.4,8.8-18.5,9c1.2-2,2.7-3.5,5.2-4.2c4.1-1.1,8.2-2.2,9.7-7.2
			C876.6,339.1,879.2,340.2,881,340z"/>
		<path class="st87" d="M1094,580c1.7-5.3,3.5-10.5,5-15.8c0.7-2.3,2.8-1.2,3.9-2.2c0,2.3,0,4.7,0,7c-4.1,0.2-4.2,3.7-4.8,6.3
			C1097.6,577.8,1096.8,579.6,1094,580z"/>
		<path class="st96" d="M1103,471c-2.4-0.4-3.6-1.3-4.4-4.1c-0.8-3.1-1.8-6.6-4.6-8.9c-0.3-2-0.7-4-1-6c0.7,0.7,1.3,1.3,2,2
			c3.2,3.3,4.8,7.7,8,11C1103,467,1103,469,1103,471z"/>
		<path class="st97" d="M750,567c2.2-0.2,3.6,0.3,4.5,2.7c1.1,3.2,4,5.7,4.5,9.3c0,0.3,0,0.7,0,1c-2.3-2.4-4-5.2-7.7-6.4
			C748.6,572.7,750.5,569.2,750,567z"/>
		<path class="st98" d="M1094,464c1.7,4,3.3,8,5,12c0.6,2,3,2.3,3.9,4c0,2,0,4,0,6c-1.5,1.2,0.5-4.5-2.2-1.1c-0.6,0.8-1.3,0-1.4-0.6
			C1098.1,477.5,1094.3,471.2,1094,464z"/>
		<path class="st99" d="M989,684c-2.6,1.3-5.1,3.2-7.9,3.7c-3,0.5-3.7,2-4.1,4.3c-2,0-4,0-6,0c0.3-2.5,1.4-4.3,4.2-4.5
			C979.9,687,983.9,683.4,989,684z"/>
		<path class="st97" d="M1103,465c-5.3-1.7-6-6.9-8-11C1100.5,455.2,1103,458.7,1103,465z"/>
		<path class="st89" d="M984,692c0.7-5.7,6.8-5,9.8-8c0.7-0.7,2.1-0.7,3.2-1C992.9,686.4,990.9,692.8,984,692z"/>
		<path class="st100" d="M750,469c1.8-0.7,3.9-0.5,4.3-3.6c0.3-2.6,2.6-4.7,4.7-6.4c-0.3,5.1-4,8.6-5.8,13c-0.5,1.2-2,0.9-3.2,1
			C750,471.7,750,470.3,750,469z"/>
		<path class="st101" d="M903,340.1c-0.2,1,2.8,2.6,0.2,2.8c-6.3,0.3-11.6,3.2-17.2,5.2c2.4-2.9,5.7-4.3,9.3-4.9
			c2.4-0.4,2.9-1,1.8-3.1C899,340.1,901,340.1,903,340.1z"/>
		<path class="st74" d="M1093,446c-3.4-5.5-7.7-10.4-9-17C1088.2,434,1092.2,439.2,1093,446z"/>
		<path class="st102" d="M954,690c1.1,1.4-1.1,1-1,1.9c-3,0-6,0-9,0c0.2-0.9-0.2-1.5-1-1.8c-0.3,0-0.7,0-1,0c-0.6-1.9,1.5-1.1,2-2
			l0,0c2-0.5,4-1.4,6.1-0.8C950.6,689.2,953,688.7,954,690z"/>
		<path class="st82" d="M750.1,558c0-1,0-2,0-3c1.3-0.7,2.6-2.1,3.9,0c2.1,3.5,4,7.1,5,11l0,0c0.6,0.8,0.6,1.7,0.5,2.7
			c-0.3,0.4-0.6,0.6-1.1,0.6C755,565.9,754.7,560.3,750.1,558z"/>
		<path class="st103" d="M750.1,558c3.2-0.1,4.2,2.4,5.3,4.7c1.1,2.2,1.7,4.6,3.6,6.3c1.2,1.3,1.2,2.7,0,4c-1.6-3-3.8-5.8-4.7-9
			c-0.8-2.7-2.7-2.3-4.3-3.1C750,560,750,559,750.1,558z"/>
		<path class="st9" d="M1107,413c3.2,5.2,7.7,9.7,9,16C1111.4,424.6,1108.8,419,1107,413z"/>
		<path class="st79" d="M750,477c2.4-0.3,4.1-1.3,4.9-3.8c0.5-1.6,1.2-3.4,3-4.2c-0.3,3.9-3.4,6.6-4.2,10.3c-0.5,2-2.6,0.7-3.7,1.7
			C750,479.7,750,478.3,750,477z"/>
		<path class="st89" d="M842,361c-3.7,3.6-8.5,5.6-13,8c-0.1-0.3-0.4-0.8-0.4-0.8C833.1,365.8,836.4,361.2,842,361z"/>
		<path class="st89" d="M856,354c-3.1,1.5-5.1,4.9-9,5C848.8,355.1,851.6,353.1,856,354z"/>
		<path class="st80" d="M754,555c-1.3-1.3-2.6,1.4-3.9,0c0-1.7,0-3.3,0-5C755,548.9,753.9,552.4,754,555z"/>
		<path class="st104" d="M943,690c0.7,0.1,1.4,0.3,2.2,0.4c-0.4,0.5-0.8,1-1.1,1.4c-4.3,0-8.7,0-13,0
			C934.8,689.5,939.3,692.6,943,690z"/>
		<path class="st55" d="M950,728c-0.7,0-1.3,0-2,0c1.5-2.3,2.8-4.8,6-5C953.3,725.2,952.1,727,950,728z"/>
		<path class="st74" d="M1082,425c-2.9-2-5.4-4.3-6-8C1078.3,419.4,1080.9,421.6,1082,425z"/>
		<path class="st105" d="M1102.9,480c-2.1-0.5-4.6-0.7-3.9-4c1.3,0.3,2.6,0.7,4,1C1103,478,1102.9,479,1102.9,480z"/>
		<path class="st106" d="M1101,539c1.9-1.2,0.2-3.7,1.9-5c0,2,0,4,0,6c-0.4,1-0.9,1.9-1.7,3.6C1101.1,541.6,1101.1,540.3,1101,539z"
			/>
		<path class="st53" d="M788,677c-2.8-0.6-5.5-1.6-6-5C784,673.7,786.5,674.8,788,677z"/>
		<path class="st74" d="M1076,417c-2.2-1-3-3-4-5C1074.9,412.4,1076.1,414.2,1076,417z"/>
		<path class="st68" d="M867,688c3-0.2,2.2,2.5,3,4C867.4,691.9,866.9,690.2,867,688z"/>
		<path class="st54" d="M900,316c0.2,1.5-0.3,2.8-1,4c-0.7,0-1.3,0-2,0C898.1,318.7,897.4,316.2,900,316z"/>
		<path class="st85" d="M827,371c-1.7,1.3-3.3,2.7-5,4C822.4,372.1,824.2,370.9,827,371z"/>
		<path class="st89" d="M861,353c-1.4,1.7-3.3,0.8-5,1C857.4,352.3,859.3,353.2,861,353z"/>
		<path class="st31" d="M1123,435c1.7,3.7,3.3,7.3,5,11c0.3,2,0.7,4,1,6c-3.3-5.3-5.1-11.1-7-17c0.2-0.1,0.3-0.3,0.5-0.4
			C1122.7,434.7,1122.8,434.9,1123,435z"/>
		<path class="st31" d="M1117,429c0-1.3,0-2.7-0.1-4c0.4-0.3,0.9-0.3,1.3,0c1.2,3.4,4.6,5.9,3.7,10c0,0,0,0,0,0
			c-2.3-0.9-2.1-3.8-4-5C1117.7,429.7,1117.4,429.3,1117,429z"/>
		<path class="st38" d="M1138,487c-2.4-1.3-2.3-3.9-3-6C1137.4,482.3,1137.3,484.9,1138,487z"/>
		<path class="st45" d="M1112,630c0,0.3,0,0.7,0,1c-6.3,8.3-12.6,16.6-18.9,24.9c-0.9,1.2-1.7,2.4-3.1,3.1c-0.5-0.7-0.6-1.4,0-2
			c0.4-2.9,3.4-4.2,4-6.9c1.8-1.7,3.5-3.5,4.2-6c0.2-0.4,0.5-0.7,0.9-1c0.3-0.3,0.6-0.7,1-1c4.2-4.8,8.3-9.6,10.7-15.6
			c0.4-1,1.1-2.2,2.6-1.2C1113.9,627,1112.4,628.4,1112,630z"/>
		<path class="st107" d="M1113,625c-2.2,3.4-4.4,6.8-6.6,10.3c-1.7,2.6-3.3,5.4-6.3,6.8c0-1,0-2,0-3c5.3-1.5,6.3-6.7,8.8-10.5
			c1.4-2.1,2.4-4.6,4.2-6.5c0.6,0.5,0.8,1.1,0.7,1.8C1113.6,624.3,1113.3,624.7,1113,625z"/>
		<path class="st65" d="M1099,644c0,3.4-1.9,5.2-5,6c0-0.7,0-1.3,0-2c0.3-0.3,0.7-0.7,1-1C1096.1,645.7,1096.4,643.3,1099,644z"/>
		<path class="st34" d="M1099,644c-1.3,1-2.7,2-4,3c-0.2-2.9,1.1-4.2,4-4C1099,643.4,1099,643.7,1099,644z"/>
		<path class="st49" d="M1090,657c0,0.7,0,1.4,0,2c-5.4,7-11.7,13.1-19,18c0,0,0-0.1,0-0.1c0.3-3.1,3.1-4.2,5-6c0.3-0.3,0.7-0.7,1-1
			c1.1-1.6,2.4-2.9,4-4c0.7-0.7,1.3-1.3,2-2c1.7-2.6,4.4-4.3,6-7C1089.3,657,1089.7,657,1090,657z"/>
		<path class="st65" d="M1089,657c-0.8,3.4-3.6,5-6,7C1083.8,660.6,1086.6,659,1089,657z"/>
		<path class="st65" d="M1076,671c-1.7,2-3.3,4-5,6c-0.7,0-1.3,0-2,0C1071,674.6,1072.6,671.8,1076,671z"/>
		<path class="st65" d="M1081,666c-0.9,1.7-2.3,3.1-4,4C1077.3,667.6,1078.6,666.3,1081,666z"/>
		<path class="st51" d="M1122,426c-2.3-2.6-4.2-5.5-5-9c2.7,1.1,2.3,4.9,5,6C1122,424,1122,425,1122,426z"/>
		<path class="st51" d="M1117,417c-2-1.1-2.6-3-3-5C1116,413.1,1116.7,414.9,1117,417z"/>
		<path class="st45" d="M1118,425c-0.3,0-0.7,0-1,0c-5.7-8.7-11.3-17.3-17-26c0-0.7,0-1.4,0-2.1c4.6,4.9,8.5,10.3,12,16.1
			c0.7,1.3,0.9,2.9,2,4c1.4,2.3,2,5,4,7c0.3,0.2,0.4,0.4,0.3,0.7C1118.2,424.9,1118.1,425,1118,425z"/>
		<path class="st65" d="M1089,386c-2.4-2-5.2-3.6-6-7C1085.4,380.9,1088.2,382.6,1089,386z"/>
		<path class="st65" d="M1081,377c-2.3-0.3-3.7-1.6-4-4C1078.7,374,1080.1,375.3,1081,377z"/>
		<path class="st65" d="M1092,389c-1.9-0.1-2.9-1.1-3-3C1090.4,386.7,1091.4,387.6,1092,389z"/>
		<path class="st58" d="M1118,425c0-0.3,0-0.7,0-1c2.9,2.3,3.4,6,5,9c0,0.7,0,1.3,0,2c-0.3,0-0.7,0-1,0
			C1121.8,431.2,1118.6,428.6,1118,425z"/>
		<path class="st58" d="M1114,417c-1.8-0.8-2.1-2.3-2-4C1113.3,414,1113.8,415.4,1114,417z"/>
		<path class="st56" d="M898,727c-2.8-0.1-3.5-3.4-6-4c0.7,0,1.3,0,2,0C896.9,722.8,898.2,724.1,898,727z"/>
		<path class="st60" d="M1113,625c0-0.3,0-0.7,0-1c1.2-1.6,1.3-3.8,2.9-5c0.7-1.7,1.3-3.3,2-5c0.4-0.9,0.9-1.5,2-1c1-1.3,2-2.7,3-4
			c-2,7.9-6.1,14.6-11,21C1112.3,628.3,1112.7,626.7,1113,625z"/>
		<path class="st13" d="M1120,613c-0.7,0.3-1.3,0.7-2,1c-1-3-0.3-5.2,3-6C1120.6,609.6,1120.3,611.3,1120,613z"/>
		<path class="st13" d="M1115.9,619c-0.3,2.1-1,3.9-2.9,5c0-0.7,0-1.3,0-2C1113.1,620.1,1114.1,619.1,1115.9,619z"/>
		<path class="st108" d="M736,423c0.3,0.3,0.6,0.7,1,1c-0.8,6.8-4.7,12.3-8,18c-0.6-0.7-0.6-1.3,0-2
			C729.9,433.7,734.3,428.9,736,423z"/>
		<path class="st41" d="M743,412c-1,3.9-2.9,7.3-6,10C738.2,418.2,740.1,414.8,743,412z"/>
		<path class="st41" d="M747,406c-0.6,2.5-1.9,4.5-4,6C743.4,409.4,744.6,407.3,747,406z"/>
		<path class="st28" d="M729,440c0,0.7,0,1.3,0,2c-0.7,1-1.3,2-2,3c0-1,0-2,0-3C727.7,441.3,728.3,440.7,729,440z"/>
		<path class="st108" d="M726,450c0.1,2-0.4,3.8-2.1,5C723.1,452.7,723.4,450.9,726,450z"/>
		<path class="st31" d="M723,457c-1.2,2.2-1.2,5-2.9,7C720.2,461.3,719.3,458.2,723,457z"/>
		<path class="st38" d="M732,606c2,1,3.2,2.6,3,5C733.7,609.5,732.2,608.1,732,606z"/>
		<path class="st109" d="M808.1,549c0-23,0-46,0-69c2.8-3.4,4.7-7.3,6.2-11.3c8-19.9,20.4-36.4,36.9-49.9
			c8.8-7.2,18.9-12.2,29.3-16.6c13.4-5.6,26.9-10.2,41.9-8.6c6.8,0.7,13.6,0.1,20.5,0.1c2.2,0,4.3-0.1,6.5,0c5,0.3,9.9,0.8,14.2,3.8
			c3.3,2.3,7.5,2.5,11.3,4c21.3,8.5,39.2,21.7,52.9,40.2c4.5,6.1,8.2,12.7,11.1,19.9c3.1,7.4,6.1,14.8,7.9,22.5
			c2.4,10.2,6,20.1,6.1,30.7c-1.7,13.1-5,25.8-9,38.3c-4.6,14.1-11.2,27.2-21.2,38.6c-6.8,7.8-14.4,14.7-22.6,21
			c-4.5,3.5-9.7,6.3-15,8.8c-15.5,7.3-32.1,10.9-48.5,15c-7.6,1.9-15.2,1.5-22.5-1.5c-3.4-1.4-6.9-2.4-10.6-2.8
			c-9.2-1-17.4-5.1-26-8.5c-16.1-6.4-29.4-16.5-41.3-28.9c-4-4.1-6.4-9.3-10.2-13.5c-4.3-6.4-7.9-13.3-10.8-20.5
			C813.5,556.3,811.3,552.4,808.1,549z"/>
		<path class="st110" d="M1052,515c-1.9-15.2-5.3-30.1-10.5-44.3c-5.8-15.9-14.4-30.5-27.3-42.4c-6.1-5.7-12.4-11.2-19.4-15.4
			c-7.8-4.8-16-9.7-25.2-11.6c-4.9-1-8.2-4.7-13.1-5.5c-5-0.8-9.9-0.8-14.9-0.8c-10.3,0-20.7-0.1-31,0c-6.3,0.1-12.4,0.5-17.9,4.3
			c-3.9,2.7-9,3.1-13.5,4.9c-14.6,5.7-27.5,14.2-38.1,25.5c-7.6,8.1-14.8,16.6-19.6,27.2c-3.1,7-6.6,13.9-9.9,20.8
			c-0.8,1.6-1.8,2.3-3.5,2.1c0-2.3,0-4.7,0-7c1.3-0.9,2.8-1.7,3-3.5c0.1-0.4,0.3-0.8,0.4-1.2c0.8-3,3.1-5.4,3.4-8.6
			c0.9-2.7,1.9-5.2,4-7.3c2.1-1.3,2.3-3.6,3.2-5.5c0.3-0.6,0.7-1.1,1.2-1.6c2.2-1.6,3.4-3.9,4.8-6.1c0.2-0.4,0.5-0.7,0.8-1.1
			c5-5.3,9.5-11.1,14.9-16c0.3-0.3,0.6-0.7,1-1c2.2-2.2,5-3.8,7.2-6.1c11-9,23.9-14.6,36.9-19.9c1.7-0.7,3.5-1,4.2-3.1
			c23.3,0,46.6,0,69.9,0c2.6,3.1,6.3,4.5,9.8,5.4c11.4,3.1,20.4,10.2,30.1,16.3c10.6,6.8,19.3,15.9,26.7,25.9
			c5.3,7.2,10.8,14.8,13,23.9c4.7,9.8,6.9,20.4,10.1,30.7c2.5,8,2.2,16.4,1.5,24.8c-0.1,0.8-0.5,1.6-1.2,2.1
			C1050.3,519.5,1051.7,517.1,1052,515z"/>
		<path class="st110" d="M1052,515c0.3,2-0.8,4.2,1,6c1.6,1.6,1.3,3.6,1.3,5.6c0,0.8-0.2,1.6-0.4,2.4c-3.3,11-6.7,22-10.6,32.8
			c-3.3,11.4-9.9,21-17.4,29.9c-11.6,13.7-25,25.2-41.4,32.9c-11.9,5.6-24.1,9.9-37,12.7c-1.9,0.4-2.7,2.5-4.6,2.7
			c-8.3,0-16.7,0-25,0c-7.1-2.5-14.4-4.5-21.7-6.6c-1.7-0.5-3.5-1-5.3-1.1c-4.7-0.9-8.6-3.6-12.8-5.2c-10.8-4.2-20.3-10.2-29.5-17.3
			c-7.8-6.1-14.6-13-20.3-21.1c-1-1.5-2-3.1-2.4-4.9c-0.2-1.4-0.1-2.7,1-3.7c6.6,10.4,14.7,19.6,24.5,27
			c7.2,5.4,14.5,10.5,22.9,13.8c9,3.6,17.6,8.6,27.5,9.6c9.5,0.9,17.9,6.9,27.8,5.7c2.1-0.3,4.2-0.3,6.4-0.9
			c16.2-4.3,32.9-7.4,48.1-15c6.1-3,12.2-6.3,17.6-10.9c4.6-3.9,9.2-7.7,13.6-11.9c5.8-5.6,10.7-11.9,15.2-18.5
			c5.2-7.7,8.9-16.3,11.7-24.9c3.9-12,7.4-24.2,8.8-36.8C1051.1,516.4,1051.7,515.7,1052,515z"/>
		<path class="st111" d="M943,640c0.6-3.6,3.4-3.2,6.1-4.2c8.6-3.3,18.2-3.6,26.1-8.5c5.1-3.2,11.1-4.1,16.2-7.3
			c15.5-9.7,28.9-21.6,39.4-36.5c4.6-6.5,9.2-13.3,11.1-21.4c5-10.6,8.4-21.7,11-33c0-0.7,0-1.3,0-2c2.4,0.5,2.4,0.5,2.6,2.1
			c0,0-0.6-1.2,1.4-1.1c0,4.3,0,8.7,0,13c-3.9,2.4-4.8,6.7-6.2,10.5c-7.2,20.2-17.6,38.4-33.4,53c-13.9,12.8-29.3,23.4-47.6,29.3
			c-4.5,1.4-9.4,2.4-12.8,6.2C952.3,640,947.7,640,943,640z"/>
		<path class="st112" d="M957,640c0.2-2.3,0.8-3.7,3.7-4.5c18.8-5.3,35.4-14.8,50.6-27.1c12.2-9.8,21.2-22.1,28.6-35.3
			c3.8-6.7,7.9-13.7,9.4-21.5c0.7-3.6,3.7-6.2,4-10.1c0.2-2.4,2.4,0,3.7-0.4c0,3,0,6,0,9c-3.9,1.2-5.1,4.7-6.2,7.8
			c-3.4,9.9-8.9,18.7-14.8,27.2c-1,3.9-4.3,6.2-6.7,9c-10.4,11.9-21.7,22.8-35.5,30.9c-3.8,2.3-8.5,2.9-11.8,6.1
			c-3.4,2.3-7,4.2-10.9,5.4c-2.2,0.6-3.4,2.4-5.1,3.6C963,640,960,640,957,640z"/>
		<path class="st113" d="M898,640c-6.8,2-11.4-3.1-16.7-5.5c-6.4-2.9-13.1-5.8-18.9-9.7c-6.8-4.6-13.8-9-19.8-14.6
			c-11.2-10.6-21.4-22-29-35.5c-1.2-2-2.1-4.4-5-5.6c-1.8-0.7-0.4-4.6-0.6-7c3-1.9,4.1,0.4,5.3,2.5c5.1,9.6,10.4,19.2,17.4,27.6
			c9.5,11.4,20.6,21.1,33.5,28.5c2,1.1,3.7,2.8,6,3.5c4.4,1.7,8,5.2,12.8,6c1.1,0.4,2.3,0.9,3.5,1.2c2.9,1.1,5.6,2.7,8.6,3.5
			C897.6,635.6,898.9,637.2,898,640z"/>
		<path class="st114" d="M1041,463c-0.5-3.5-2.4-6.5-4.1-9.5c-7-13.2-16.9-24.1-28-33.8c-6.7-5.9-14.8-9.9-22.2-14.7
			c-7.4-4.8-16-6.7-24-10c-2.6-1.1,0.5-1.9,0.2-2.9c3.3,0,6.7,0,10,0c1.4,0.2-0.7,1.8,1.2,2.3c10.1,3.1,18.6,9.1,27.3,14.8
			c11.3,7.5,20.7,17.2,29.2,27.6c7,8.7,12.3,18.4,17.1,28.5c0.6,1.2,0.5,2.6,0.6,3.9c0,1.3-0.1,2.6-0.9,3.6
			c-1.7,0.9-1.8-0.5-2.4-1.5C1043.4,468.7,1042.9,465.5,1041,463z"/>
		<path class="st115" d="M1047,469c0-6.3-4.2-11.1-7-16.1c-7.7-13.8-18-25.6-30.2-35.8c-10.8-9.1-22.6-16.1-35.4-21.7
			c-2.2-0.9-1.5-2-1.4-3.4c2,0,4,0,6,0c1.8,3.1,4.9,4.6,8,6c4.4,4,9.8,6.3,15,9c1.3,2.5,4.1,3.3,6,5c4,3.7,8,7.3,12,11
			c1.6,1,3,2.4,4,4c2.7,2.9,4.8,6.5,8,9c0.9,1.4,2.1,2.6,3,4c1,4.5,5.3,6.9,7,11c1.2,1.5,1.7,3.5,3,5c1.5,5.9,4.9,11.6,8.7,15.5
			c3.9,4,2.8,7.6,3.3,11.6c-2.6,1.4-4.2,0.5-5.5-2.1C1049.5,477.1,1048.4,473,1047,469z"/>
		<path class="st113" d="M808,464c-2.2-5.4,2.9-7.5,5.2-10.4c3.8-4.8,6.1-10.4,9.8-15.2c5.7-7.3,12.2-13.8,18.7-20.3
			c10-9.9,22.7-15.5,34-23.2c3.6-2.4,6.6-2.7,10.2-2.8c2.7,2.9,0.4,4.1-1.9,4.9c-5.8,2.1-11.1,5-16.6,7.7c-7.4,3.7-13.5,8.9-20,13.8
			c-10.6,8.9-19.7,19.1-26.9,31c-2.5,4.1-4.7,8.3-7,12.5C812.4,464.1,811.2,466.9,808,464z"/>
		<path class="st116" d="M1054,406c-6.4-5.9-12.5-12.1-19.4-17.5c-7.3-5.8-14.9-11.1-22.8-15.8c-4.7-2.8-10.4-4-15.3-6.7
			c-10.3-5.7-21.9-8.3-33-11.1c-7.4-1.8-13.8-6.3-21.4-6.9c-9.3-0.9-18.7-0.9-28,0l0,0c-3.7,0.3-7.1,2.7-11,1.2
			c-0.1-2.6,2.1-2.1,3.5-2.4c9.2-2.4,18.6-2.4,28-2.1c7.8,0.3,15.5,1,22.8,4.1c2.2,0.8,4.4,1.7,6.7,2.3c9.6,2.6,18.3,7.9,28.3,9.1
			c2.4,0.3,3.8,2.6,6.1,3.3c8.8,2.6,16.4,7.7,24.3,12.3c6.6,3.9,12.2,9.1,18.2,13.8c4.2,3.3,7.8,7.2,11.7,10.8
			c1.2,1.1,2.3,2.4,2.2,4.3C1054.6,405.2,1054.4,405.6,1054,406z"/>
		<path class="st114" d="M870,625c-9.6-4.3-18-10.4-25.8-17.4c-9.1-8.2-17.5-17.1-23.8-27.7c-3-4.9-5.8-10-8.3-15.2
			c-1-2-2.1-2.8-4.1-2.7c0-2.3,0-4.7,0-7c3.1-1.8,4.3,0.4,5.2,2.6c3.8,9.2,8.9,17.8,13.7,26.5c15.1,24.2,37.9,37.8,64,47
			c0.8,0.6,1.9,1.1,0.7,2.4c-2.2,0.6-3.9-0.7-5.7-1.4c-1.1,0-2.3,0.2-3-1C878.5,629.3,874.6,626.5,870,625z"/>
		<path class="st104" d="M951,688c-2.3,0-4.7,0-7,0c0.3-1.4,3.6-0.6,2.3-2.9c-1.3-2.3,0.2-2,1.6-2.1c4.9-0.6,10-0.8,14.7-2.1
			c8.5-2.3,17.7-2.4,25.5-7.2c1.8-1.1,3.9-1.6,6.2-1.7c2.9-0.1,5.5-1,7.6-3.2c0.7-0.7,1.5-1.5,2.4-1.8c7.8-2.6,14.5-7.1,21-12
			c1.1-0.8,2.4-1,3.8-0.9c0.5,1.4-0.4,2.3-1.3,2.9c-6.1,3.8-11.6,8.8-18.7,11.1c-2.5,0.8-4.5,2.8-6.9,3.8c-9,4.1-18.4,7.1-27.8,10.1
			c-1.3,0.4-2.6,0.7-3.3,2c-0.3,0-0.7,0-1,0c-6.5-0.9-11.9,2.3-17.6,4.5C951.9,688.5,951.4,688.4,951,688z"/>
		<path class="st69" d="M903,349c3.7-0.3,7.3-0.7,11-1c-8,2.7-15.4,7.1-24.2,7c-0.3,0-0.8-0.1-1,0.1c-6.6,6.5-16,5-23.9,8.3
			c-6.2,2.6-11.4,7.3-18.4,8c-1.6,0.2-3.1,1.3-4.1,2.7c-1.9,2.5-4.4,3.3-7.5,2.9c-0.1-0.2-0.1-0.5-0.2-0.7c3.2-4.5,8.3-6.7,12.9-8.9
			c4.8-2.2,9.6-4.5,14.2-7.2c1.2-0.2,2.4-0.7,3.7-0.7c9.6-1.4,18-6.2,27.1-9C896,349.5,899.2,347.1,903,349z"/>
		<path class="st117" d="M1041,463c3.5,2.4,3.2,7.1,6,10c3.4,3.7,3.2,8.8,4.8,13.2c1.5,4.1,3.8,7.7,5.2,11.8c0,10,0,20,0,30
			c-1.2,0.6-0.7,2-1.5,3.3c-0.9-1.5,0.3-4.2-2.5-4.3c0-2,0-4,0-6c0-8.4,1.4-17.3-1.3-25.2c-3-8.9-4-18.4-8.6-26.7
			C1042.1,467.2,1041.7,465,1041,463z"/>
		<path class="st69" d="M792,413c2.4-2.6,3.7-6.1,7-8c1-1.6,2.4-3,4-4c0.3-0.7,0.7-1.3,1-2c2.2-1.4,3.7-3.6,6-5c0-0.3,0-0.6,0-1
			c1.4-0.9,2.6-2.1,4-3c0-0.3,0-0.6,0-1c0,0-0.1-0.1-0.1-0.1c0.4-0.9,1-1.6,1.9-2c5.9-2.9,10.5-7.8,16.4-10.7c1-0.2,2-0.1,2.7,0.7
			c0,0,0,0,0,0c-2.7,5.8-9,7.6-13.4,11.3c-5.7,4.8-11.3,9.7-16.6,14.8c-2,1.9-4,3.9-5.9,5.9c-0.8,1.2-1.8,2.2-3,3
			c-3.2,4.2-7.1,7.9-9,13c-1,1.3-1.2,3.2-3,4c-0.3,0.3-0.7,0.7-1,1c-0.3,0-0.7,0-1,0c-1-1.9,0.6-3.3,1-5l0,0
			C786.2,421.1,789.6,417.4,792,413z"/>
		<path class="st118" d="M1093,563c0.5,2.8-1.3,5-2,7.5c-3.7,12.5-9.6,24-15.2,35.6c-1.3,2.8-4.6,4.4-4.8,7.9c0,0,0,0,0,0
			c-3.3,5.9-8.7,10.1-12,16c-2.7,2-5,4.3-7,7c-1.7,1-3,2.3-4,4c-3.1,2.5-6.8,4.4-9,8c-1.9,1.1-3.2,2.9-5,4c-0.7,0.3-1.3,0.7-2,1
			c-0.7,0.5-1.3,0.6-2,0c3.5-4.5,8.6-7.2,12.8-11c8.3-7.6,15.6-16.1,22.3-25.1c3.8-5.1,7.9-10.1,10.4-16c1.8-4.3,4.2-8.1,6.5-12
			c2.3-5.6,2.4-11.9,6-17l0,0c0.9-2.3,1.6-4.6,2.1-7c0.3-1.7,0.5-3.7,2.8-4.2C1093.4,562.2,1093.5,562.6,1093,563z"/>
		<path class="st69" d="M1093,470c0.6,6.3,0.9,12.6,4.3,18.4c1.7,2.9,2,6.9,1.7,10.6c0,1.3,0,2.7,0,4c-7.4-4.7-5.7-12.6-7.2-19.5
			c-1.7-7.9-2.8-16.1-6.5-23.5c-1.4-2.9-2.3-5.8-2.3-9c2.1-0.2,2.3,1.6,2.6,2.8c0.9,3.3,2.7,6.2,4.1,9.2
			C1091.8,464.9,1091.9,467.7,1093,470L1093,470z"/>
		<path class="st119" d="M847,418c6.9-7.5,15.8-12.3,24.6-17c4-2.1,8-4.4,12.6-5.3c2.3-0.4,2.1-2.1,1.7-3.8c2.3,0,4.7,0,7,0
			c1.8,1.6,2.1,2.6-0.8,3.4c-9.8,2.7-18.6,7.8-27.8,12.1c-4.5,2.1-8.4,5.6-12.5,8.5c-1.6,0.7-2.5,2.6-4.5,2.4
			C847.3,418.3,847.2,418.1,847,418z"/>
		<path class="st120" d="M1089,464c-2.9-3.9-3.7-8.8-6-13c-4.3-8.7-8.2-17.6-14-25.4c-4.9-6.6-10-13.1-15-19.6c0-0.3,0-0.7,0-1
			c2.4-0.8,3.9,0.7,5,2.2c2.3,3,5.3,5.5,6.8,9.1c4.3,4.3,7,9.7,10.2,14.7c0.4,2.3,1.3,4.3,3,6c0.7,1.3,0.9,2.9,2,4l0,0
			c2,3.2,3.5,6.6,5,10l0,0C1086.8,455.4,1090.3,459.1,1089,464z"/>
		<path class="st102" d="M1030,654c0.7,0,1.3,0,2,0c-5.5,6.8-13.4,10.1-20.6,14.2c-12.7,7.1-26.3,12.1-40.4,15.8
			c0.1-1.9,1.6-2.4,3-2.8c8.2-2.8,16.8-4.9,24.5-8.7c10.6-5.3,22-9.7,30.5-18.5C1029.3,654,1029.7,654,1030,654z"/>
		<path class="st121" d="M1093,562c-2.6,3.2-1.9,8-5,11c0.8-11.2,3.8-22.1,5.3-33.3c0.2-1.3-0.1-4.1,3.2-3.2
			c1.8,0.5,1.2-2.1,2.5-2.6c0,0.7,0,1.3,0,2c1.5,2,0.5,4,0,6l0,0C1096.3,548.5,1094.5,555.2,1093,562z"/>
		<path class="st110" d="M827,584c-1.8-1-3.3-2.3-4.1-4.2c-3.1-7.6-8.5-14.1-10.9-22.1c-0.7-2.2-2-2.8-4.1-2.7c0-2,0-4,0-6
			c5.3,1.2,6.2,6.1,7.9,10c3,7.4,6.9,14.2,11.1,21C827,581.3,827,582.7,827,584z"/>
		<path class="st119" d="M808,464c2.8,1.1,3.9-0.9,4.8-2.8c7.5-15.6,17.7-29.2,30.5-41c1.1-1,2-2.2,3.7-2.2c0,0,0,0,0,0
			c0.5,1.9-1.5,2.6-2,4c-6.3,4.8-10.9,11.1-16,17v0c-1.8,2.2-3.5,4.6-5,7c-0.3,0.3-0.7,0.7-1,1c-1.7,1.7-1.4,4.3-3,6
			c-2.4,1.7-2.9,4.5-4,7c-1.7,2.8-3.5,5.6-4,9h0c-1,1.7-2.2,2.3-4,1C808,468,808,466,808,464z"/>
		<path class="st119" d="M1057,498c-1.3-0.6-0.6-2.1-1.4-3c-1.2,0.4-0.1,2.4-2.1,2.4c-0.7-8.5-5.4-15.9-6.5-24.4c0-1.3,0-2.7,0-4
			c3.3,2.7,3.3,7,5,10.5c1.2,2.5,2.6,3.3,5,3.5C1057,488,1057,493,1057,498z"/>
		<path class="st83" d="M868,677c-2.5,0.1-5-0.3-7-2c-1.3-0.8-2.9-0.9-4-2c-9-4-17.7-8.7-26-14c-0.7-1-1.3-2-2-3
			c3.9-0.3,6.5,2.8,9.1,4.5c9.1,6.1,18.8,10.4,29.2,13.4c1.7,0.5,2.9,1.5,3.7,3.1c0,0,0,0,0,0C870,677.7,869,677.7,868,677z"/>
		<path class="st122" d="M1036,585c0.1-3.3,2.8-5.2,4.4-7.6c5.1-7.8,8-16.5,11.5-25c1.2-2.9,2.6-3.4,5.1-2.4c-0.1,2.5-0.3,4.1-3,6.2
			c-3.4,2.7-4.5,8.1-6.8,12.3C1044,574.4,1041.3,580.6,1036,585z"/>
		<path class="st69" d="M765,564c-2.6-2.4-3.4-6-3.8-9c-1-8.2-7.7-14.5-7.2-23c5.3,2.3,6.1,6.5,6.2,11.9
			C760.4,550.8,764.6,557,765,564z"/>
		<path class="st123" d="M892,633c-0.3-0.7-0.7-1.3-1-2c4.2,0.7,8.4,1.6,12.5,3.2c3.3,1.3,6.6,2,10.2,1.9c0.9,0,2.6-0.7,2.6,1.2
			c0,0.5-1.5,0.9-2.3,1.3c1.2,1,3.1-0.2,4.1,1.4c-4,0-8,0-12,0c-0.9-1.6-1.8-2.9-4.2-2.9C898.1,637.2,895.2,634.5,892,633z"/>
		<path class="st124" d="M892,633c4.8-0.1,8.4,4,13.5,3.5c2-0.2-0.9,2.5,0.5,3.5c-2.7,0-5.3,0-8,0c-0.4-4.9-5.4-3.6-7.9-5.7
			c-1.2-0.9-3.1-0.9-4.1-2.3C888,632.3,890,632.7,892,633z"/>
		<path class="st125" d="M966,640c0.3-2.5,1.3-4.1,4.1-4.6c4.2-0.8,7.6-3.9,11.9-4.4C977.2,635,973.8,641.3,966,640z"/>
		<path class="st121" d="M1088,573c-2,5.7-2.6,11.8-6,17C1083.1,584,1082.6,577.5,1088,573z"/>
		<path class="st69" d="M914,348c6-2.2,12.3-0.7,18.4-0.9c3.2-0.1,6.5-1.1,9.6,0.9C932.7,348,923.3,348,914,348z"/>
		<path class="st69" d="M770,582c-2.7-5.4-3.6-11.3-5-17C769.9,569.7,769,576.1,770,582z"/>
		<path class="st69" d="M777,597c-2.3-5-6.2-9.3-7-15C774,586.2,776.4,591.2,777,597z"/>
		<path class="st104" d="M944,688c-0.7,0.7-1.3,1.3-2,2c-3.1,0-6.1,0-9.2,0C936.3,686.9,940.3,688.5,944,688z"/>
		<path class="st115" d="M987,398c-3.1-1.4-8-0.4-8-6C982.8,392.5,983.9,396.6,987,398z"/>
		<path class="st126" d="M808,470c1.4,0.2,2.7-0.3,4-1c0,2.6-0.3,5-4,4C808,472,808,471,808,470z"/>
		<path class="st69" d="M782,604c-2.4-1.8-5.2-3.3-5-7C779.1,599,781.2,601,782,604z"/>
		<path class="st115" d="M1008,412c-2.6-0.9-5.4-1.7-6-5C1004,408.6,1006.8,409.4,1008,412z"/>
		<path class="st69" d="M784,429c0.8-1.5,1.2-3.3,3-4C787.1,427.1,787.2,429.3,784,429z"/>
		<path class="st115" d="M1045,456c-2-1.1-2.7-2.9-3-5C1044,452.1,1044.7,453.9,1045,456z"/>
		<path class="st115" d="M1024,427c-1.7-1-3-2.3-4-4C1022.4,423.3,1023.7,424.6,1024,427z"/>
		<path class="st115" d="M1035,440c-1.6-0.9-2.9-2-3-4C1033.6,436.9,1034.9,438,1035,440z"/>
		<path class="st69" d="M796,412c0.7-1.3,1.7-2.4,3-3C798.9,410.9,797.9,411.9,796,412z"/>
		<path class="st88" d="M852,677c0,0.3,0,0.7,0,1c-1.5,0.3-2.7-0.5-4-1l0,0c-3.8-1.7-7.1-4.4-11-6h0c-3.5-1.2-5.6-4.6-9-6l0,0
			c-2.8-1.1-4.6-3.4-7-5c-4.3-1.4-6.9-5-10-7.8c-7.4-6.6-14.8-13.4-21-21.1c-5.1-6.4-10.9-12.5-14.5-20.1c-0.6-1.2-1.1-2.4-2.5-3
			c-0.3-1.7-0.7-3.3-1-5c1.6-0.6,2,0.6,2.5,1.7c0.7,1.5,1.4,3,3.1,3.7c5.8,9.4,12.5,18.2,20,26.3c4.2,4.6,8.4,9.3,13.8,12.7
			c6.3,5.6,13,10.8,20.1,15.4c1.4,0.9,3.1,1.4,3.6,3.2c3.7,4.1,8.9,5.8,13.6,8.4C849.8,675.2,851.3,675.5,852,677z"/>
		<path class="st88" d="M859,681c6.1,1.3,11.6,3.9,17,7C869.5,687.7,864.4,683.9,859,681z"/>
		<path class="st91" d="M837,671c4.3,0.8,7.7,3.3,11,6C843.7,676.2,840.3,673.7,837,671z"/>
		<path class="st91" d="M828,665c4.1,0.4,6,4,9,6C832.7,670.9,831,667.1,828,665z"/>
		<path class="st91" d="M821,660c3,0.8,5,2.9,7,5C824.4,665.2,822.8,662.4,821,660z"/>
		<path class="st91" d="M848,677c1.5-0.2,2.8,0.3,4,1c1.7,1,3.7,1.4,5,3C853.5,680.8,850.7,679.1,848,677z"/>
		<path class="st90" d="M783,425c-0.3,1.7-0.7,3.3-1,5c-2.3,1-2.5,4.2-5,5C778.3,431.2,780.9,428.3,783,425z"/>
		<path class="st73" d="M1051,644c-1.3,1.7-2.7,3.3-4,5c-1.8,0.9-3.3,2.4-4.9,3.5c-2.3,2.3-5.2,3.9-7.5,6.3
			c-0.6,0.7-1.6,1.2-2.6,0.3c-0.3,0-0.7,0-1,0c4-4.9,9.7-7.7,14.3-12.1c7.1-6.8,14.4-13.6,19.8-21.9c5.4-3.3,7-9.5,10.9-13.9
			c0.7-0.7,1.4-1.4,2-2.1c0.1,0.2,0.3,0.3,0.4,0.5c0.4,1.2-0.1,2.2-0.6,3.2c-0.2,0.4-0.5,0.8-0.7,1.1c-1.6,1.5-2.5,3.5-3.5,5.4
			c-0.8,1.1-1.4,2.2-2.2,3.3c-2.9,1.9-4.6,4.8-6.4,7.5c-0.3,0.3-0.7,0.7-1,1C1060.1,635.7,1055.7,640,1051,644z"/>
		<path class="st102" d="M952,688c4.8-2.6,9.4-5.9,15.4-5c1,0.1,2,0.1,2.6,1c-1.3,0.3-2.7,0.7-4,1c-3.5,0.3-6.5,2.6-10,3
			c-0.3,0-0.7,0-1,0C954,688.7,953,688.9,952,688z"/>
		<path class="st84" d="M1059,630c2.4-6.5,7.8-10.8,12-16c-0.3,4.3-4.9,6.1-6,10C1062.1,625.1,1061.5,628.5,1059,630z"/>
		<path class="st127" d="M956,688c3.2-1.3,6.2-3.6,10-3C962.8,686.3,959.8,688.6,956,688z"/>
		<path class="st127" d="M952,688c1,0,2,0,3,0c-0.3,0.7-0.7,1.3-1,2c-1-0.7-4,1.7-3-2C951.3,688,951.7,688,952,688z"/>
		<path class="st102" d="M1034,653c1.2-1.9,2.5-3.7,5-4C1037.8,650.9,1036.5,652.8,1034,653z"/>
		<path class="st102" d="M1048,641c0.3-2.4,1.6-3.7,4-4C1051,638.7,1049.7,640,1048,641z"/>
		<path class="st76" d="M835,666c-8.8-4.9-17-10.7-24-18c-1.5-1.5-4.1-2.2-4-5c5.2,2.6,8.8,7.2,13.4,10.6
			c5.8,4.2,11.8,8.3,17.6,12.4C837,666,836,666,835,666z"/>
		<path class="st80" d="M807,643c1.3,1.7,2.7,3.3,4,5c-6.1-2.8-9.8-8.3-14.2-13c-7.5-7.9-13.8-16.9-19.8-26c-0.6-0.7-0.6-1.3,0-2
			c5,4,6.3,10.7,11,14.9c0.7,0.7,1.4,1.4,2,2.1c3.4,4.5,6.8,9.1,11,13c1.6,1,3,2.4,4,4C805.7,641.7,806.3,642.3,807,643z"/>
		<path class="st128" d="M887,683c6-0.5,11.5,0.6,16,5C897.3,687.6,892.5,684,887,683z"/>
		<path class="st128" d="M868,677c1,0,2,0,3,0c3,1.7,6,3.3,9,5C875.2,682.2,871.8,679,868,677z"/>
		<path class="st76" d="M805,641c-1.7-1-3-2.3-4-4C803.4,637.3,804.7,638.6,805,641z"/>
		<path class="st76" d="M845,670c-1.6-0.2-3-0.7-4-2C842.7,667.9,844.2,668.2,845,670z"/>
		<path class="st128" d="M857,673c1.6,0.2,3,0.7,4,2C859.3,675.1,857.8,674.8,857,673z"/>
		<path class="st76" d="M851,673c-1.6-0.2-3-0.7-4-2C848.7,670.9,850.2,671.2,851,673z"/>
		<path class="st101" d="M1059,401c0,1,0,2,0,3c-1.5,0.5-2.1-0.7-2.8-1.5c-10.2-10.9-21.5-20.5-34.1-28.6c-1-0.7-2.5-1.1-2.1-2.9
			c0.7,0,1.3,0,2,0c10,4.9,18.5,11.9,26.3,19.7C1051.8,394.1,1055,398,1059,401z"/>
		<path class="st88" d="M863,355c0,0.7,0,1.3,0,2c-0.3,0-0.6,0.1-1,0.1c-4.5,3.5-9.8,5.6-14.8,8c-8.7,4.2-16.7,9.3-24.3,15.2
			c-2.1,1.6-4.2,3.3-6.9,3.7c-4.5,1.9-7.5,5.7-10.9,8.9c-8.4,8-15.7,17.1-23.1,26.1c0-0.7,0-1.3,0-2c7.3-10.6,16-20.1,25.5-28.7
			c4.3-3.9,9-7.5,13.5-11.3c7.6-4.6,14.4-10.4,22.6-14C850,360.2,855.4,355,863,355z"/>
		<path class="st95" d="M816,384c13.9-11.4,29.1-20.7,46-26.9c0,0.7,0,1.3,0,2c-4.4,3.9-9.8,5.8-15,8.2c-0.4,0.3-0.8,0.5-1.2,0.7
			c-3.8,1.7-7.2,4-10.7,6.1c-0.4,0.3-0.7,0.5-1.1,0.7c-1.5,0.8-3.1,1.4-4.4,2.6c-0.5,0.4-1,0.8-1.5,1.2c-1.5,0.8-2.7,2.1-4,3.2
			c-2.6,2.2-5.7,3.8-8.2,6.2c-0.7,0.3-1.3,0.7-2,1C812.5,386.4,815.6,385.8,816,384z"/>
		<path class="st90" d="M792,413c-1.6,5.1-4.9,8.9-9,12C785.2,420.4,788.6,416.7,792,413z"/>
		<path class="st90" d="M810,394c-1.6,2.1-3,4.5-6,5C805.6,396.9,807,394.5,810,394z"/>
		<path class="st90" d="M803,401c-1,1.7-2.3,3-4,4C799.3,402.6,800.6,401.3,803,401z"/>
		<path class="st90" d="M814,390c-0.9,1.6-2,2.9-4,3C810.9,391.4,812,390.1,814,390z"/>
		<path class="st82" d="M777,607c0,0.7,0,1.3,0,2c-2.7-1.1-2.3-4.9-5-6c-5.1-9.7-9.2-19.7-13-30c0-1.3,0-2.7,0-4c0,0,0,0,0,0
			c3.2,1.3,2.2,4.9,4,7c0.3,3.2,1.3,6.2,3,9c0.9,1.6,1.1,3.4,2,5c1.7,2.1,1.3,5.5,4,7c0.9,2.1,1.6,4.2,3,6
			C775.2,604.6,775.7,606,777,607z"/>
		<path class="st80" d="M759,566c-1.7-3.6-4.3-6.9-5-11C757.8,557.7,758.6,561.8,759,566z"/>
		<path class="st80" d="M763,576c-2.3-1.8-2.2-4.9-4-7c0-1,0-2,0-3C761.5,568.9,762.6,572.3,763,576z"/>
		<path class="st80" d="M775,603c-2.3-1.4-3-3.5-3-6C773.7,598.7,774.6,600.7,775,603z"/>
		<path class="st80" d="M768,590c-1.6-1.3-2-3.1-2-5C767.6,586.3,768.1,588,768,590z"/>
		<path class="st129" d="M1091,585c0.7,0,1.3,0,2,0c-0.1,6.7-4.5,11.7-7.1,17.4c-0.9,2-2.6,3.7-3.9,5.6c-0.2-0.2-0.4-0.4-0.5-0.5
			c-0.5-0.9-0.6-1.9-0.4-2.9c2-5,5.8-9.1,6.9-14.5l0,0C1089.5,588.6,1089.5,586.4,1091,585z"/>
		<path class="st129" d="M1071,622c0-1.4,0.7-2.4,2-3c1.3-1.3,1.4-3.5,3.4-4.2c0.2,0.1,0.4,0.2,0.7,0.2c-0.9,3.7-2.9,6.7-6,9
			c0,0,0,0,0,0C1070.4,623.3,1070.4,622.7,1071,622z"/>
		<path class="st129" d="M1082,608c-0.5,3.2-2.4,5.4-5,7c0,0,0,0,0,0c-0.6-0.7-0.5-1.3,0-2l0,0C1078.9,611.6,1078.2,607.5,1082,608
			L1082,608z"/>
		<path class="st127" d="M1065,417c-3.2-4.4-5.7-9.5-11-12c-1.8-4.7-6-7.3-9.4-10.5c-6.1-5.7-12.6-11.5-19.7-15.8
			c-8.1-4.9-16.5-9.6-25.1-13.7c-11.6-5.5-24.6-6.8-35.8-13c-1.8-1.2-4-1.2-6-2c-10.6-2.9-21.2-5.5-32.2-4.9
			c-7.7,0.4-15.4,1.1-22.8,3.9c-8.4,1.2-16,4.9-23.8,7.7c-4.7,1.7-9.2,3.4-14.2,3.3c-0.3-0.2-0.5-0.4-0.3-0.7
			c0.1-0.2,0.2-0.3,0.3-0.3c7-1.4,13.5-4.3,20-7c15.6-6.5,31.7-9.1,48.6-8.1c3.5,0.2,7,0,10.5,0c0,0,0,0,0,0
			c12.1,0.8,22.8,6.1,33.9,10.3c1.7,0.6,3.5,1,5.1,1.7c4.5,3.3,10.3,3,15.1,5.7c2.4,1.4,4.5,4.2,7.9,3.3c7.1,1.3,12.3,6.3,18.2,9.9
			c14.6,9.1,26.9,21,38.3,33.8c1.4,1.6,2.5,3.5,3.4,5.5C1066,415.3,1065.9,416.2,1065,417z"/>
		<path class="st90" d="M865,359c0,0.3,0,0.7,0,1c-1,0.3-2,0.7-3,1c-3.6,1.2-6.4,4-10,5.2c-2,0.6-3.8,2.1-6,0.8
			c5.1-3.1,10.4-5.9,16-8C863,359,864,359,865,359z"/>
		<path class="st95" d="M867,356c3.3-2.5,7.4-3.1,11-5c0.8-0.7,1.6-0.5,2.5-0.5c0.2,0.2,0.3,0.3,0.5,0.5
			C876.8,354,872.1,355.5,867,356z"/>
		<path class="st95" d="M886,349c-1.3,1.6-3,2.1-5,2c0,0,0,0,0,0C881.9,348.3,883.7,348.2,886,349L886,349z"/>
		<path class="st77" d="M1065,414c-14.3-19.9-33.4-34.2-54.2-46.5c-1.5-0.9-3.6-0.9-4.8-2.5c-1.3-1-2.7-2-4-3c6.7,1.7,12.4,5.2,18,9
			c12.5,8,24.1,17.1,34.4,27.9c1.6,1.7,3.1,3.4,4.6,5.1c0.7,1.3,1.7,2.3,3,3c1.6,0.9,1.9,2.8,3,4c0.7,0.7,1.3,1.3,2,2
			c0.9,1.4,2.1,2.6,3,4c0.3,0.7,0.7,1.3,1,2c-0.2,0.1-0.4,0.3-0.6,0.4C1066.7,419.6,1066.2,416.5,1065,414z"/>
		<path class="st73" d="M1088,590c0.9,4.2-2,7-3.6,10.3c-0.8,1.6-2.4,2.7-2.4,4.7c-1,1.6-1.1,4.3-4,4c0,0,0,0,0,0
			C1080.6,602.3,1084.1,596,1088,590z"/>
		<path class="st94" d="M1091,585c-0.1,2.2-0.2,4.4-3,5c-0.2-1.5,0.3-2.8,1-4C1089.6,585.5,1089.8,584.4,1091,585L1091,585z"/>
		<path class="st73" d="M1091,585c-0.7,0.3-1.3,0.7-2,1c0.2-1.6,0.7-3,2-4C1091,583,1091,584,1091,585z"/>
		<path class="st76" d="M983,356c-4.7,0.1-8.5-2.5-12.6-4.1c-8.6-3.3-17.5-5.6-26.4-7.9c10.9-1.2,19.9,4.7,29.6,7.9
			C976.8,352.9,979.9,354.6,983,356z"/>
		<path class="st99" d="M1017,672c-5.8,1.5-10.3,5.6-15.9,7.6c-2.4,0.8-4.6,1.6-7.1,1.5c2-2.6,5.4-2.2,8.1-3.5
			c7.4-3.6,14.1-8.6,21.9-11.6C1022.5,669,1019,669.6,1017,672z"/>
		<path class="st99" d="M1032,659c4.1-1.2,6.1-5.4,10-7c0.3,0.2,0.3,0.4,0.3,0.7c-0.1,0.2-0.2,0.3-0.3,0.3c-5.4,5.2-11,10-18,13
			C1025.7,662.5,1030.1,662.2,1032,659z"/>
		<path class="st106" d="M1093,562c0.7-7.1,0.9-14.3,6-20c0,7.6-4.2,14-6,21C1093,562.7,1093,562.3,1093,562z"/>
		<path class="st106" d="M1099,542c0-2,0-4,0-6c0.5-0.6,0.9-1.3,2-2.8c0,2.4,0,4.1,0,5.8C1100.3,540,1099.7,541,1099,542z"/>
		<path class="st130" d="M1051,644c3.9-4.8,8.3-9.1,13-13C1060.9,636.6,1056.6,640.9,1051,644z"/>
		<path class="st130" d="M1071,622c0,0.7,0,1.3,0,2c-2.9,1.1-3.1,4.9-6,6C1065.6,626.3,1068.1,624,1071,622z"/>
		<path class="st130" d="M1042,653c0-0.3,0-0.7,0-1c1-2,2.6-3.2,5-3C1045.8,650.9,1044.5,652.7,1042,653z"/>
		<path class="st98" d="M1093,460c0.6,1.3,1.1,2.5,1,4c-2.1-1.8-3-4.6-3.6-6.9c-3-10.1-8.7-18.9-13.4-28.1c-0.6-0.7-0.6-1.3,0-2
			c1.3,0.6,2.2,1.5,2.8,2.7C1084.8,439.6,1090.5,449.1,1093,460z"/>
		<path class="st131" d="M1077,427c0,0.7,0,1.3,0,2c0,0-0.5,0-0.5,0l-0.5,0c-3.5-2.4-6-5.3-5-10c0,0,0.1,0,0.1,0
			c0.7,0.7,1.3,1.4,2,2c0.9,1.4,2.1,2.6,3,4C1076,425.8,1076.2,426.6,1077,427z"/>
		<path class="st131" d="M1065,411c-1.8-0.7-2.2-2.5-3-4C1064.4,407.3,1064.7,409.2,1065,411z"/>
		<path class="st131" d="M1070,417c-1.6-0.9-2.9-2-3-4C1068.6,413.9,1069.9,415,1070,417z"/>
		<path class="st98" d="M1076,425c-1.6-0.9-2.9-2-3-4C1074.6,421.9,1075.9,423,1076,425z"/>
		<path class="st90" d="M1071,419c-0.1,4.2,3.3,6.7,5,10c0,0.7,0,1.3,0,2c-5.2-3.4-6.2-10.3-11-14c0-1,0-2,0-3
			C1066.9,415.7,1067.8,418.7,1071,419z"/>
		<path class="st90" d="M1089,464c0.2-4.6-3.1-8.4-3-13c2.6,6.2,5.9,12.2,7,19C1090.7,468.6,1091.7,465.1,1089,464z"/>
		<path class="st90" d="M1086,451c-2.3-3-4-6.4-5-10C1084,443.7,1085.5,447.1,1086,451z"/>
		<path class="st90" d="M1081,441c-1.8-0.8-2.1-2.3-2-4C1080.3,438,1080.8,439.4,1081,441z"/>
		<path class="st101" d="M886,349c-2,0-3.7,0.4-5,2c-1,0-2,0-3,0c2.3-2.1,4.9-3.2,8-3C886,348.3,886,348.7,886,349z"/>
		<path class="st126" d="M829,439c4.2-6.7,8.9-13,16-17C839.6,427.6,834.9,433.9,829,439z"/>
		<path class="st126" d="M812,469c-0.4-3.8,1-6.8,4-9C816,463.6,813.1,465.9,812,469z"/>
		<path class="st126" d="M824,446c0.5-3.2,2.3-5.4,5-7C828.1,441.9,826.7,444.4,824,446z"/>
		<path class="st126" d="M845,422c-0.1-1.7,1.4-2.6,2-4c1.7-0.7,3.3-1.3,5-2C850.4,418.9,847.2,419.9,845,422z"/>
		<path class="st126" d="M820,453c0.7-2.1,0.6-4.7,3-6C822.3,449.1,822.4,451.7,820,453z"/>
		<path class="st117" d="M1053,529c-1.1,11.9-5,22.8-11,33c2.5-8,4.7-16.1,7.7-23.8C1050.9,535.1,1050.9,531.7,1053,529z"/>
		<path class="st124" d="M870,625c5.1,0.4,9.2,2.9,13,6C877.7,631,874.2,627.4,870,625z"/>
		<path class="st132" d="M958,350c2.3-0.1,4.4,0.1,6,2C961.8,351.9,959.7,351.5,958,350z"/>
		<path class="st127" d="M846,367c3.9-0.3,7.3-1.9,10.5-4c1.7-1.1,3.4-2.1,5.5-1.9c-3.9,3.4-8.7,5.1-13.4,7.3
			c-4.8,2.2-9.7,4.8-13.6,8.7c-1,0-2,0-3,0c-0.3-0.3-0.4-0.7-0.3-1.1c0.6-0.8,1.5-1.3,2.3-1.9l0,0C838.2,372.1,842,369.4,846,367
			L846,367z"/>
		<path class="st90" d="M832,376c0,0.3,0,0.7,0,1c-5,4.2-10,8.3-16,11c1.1-4.1,5.5-4.5,8-7c1.4-0.9,2.6-2,4-3c0.3-0.3,0.7-0.7,1-1
			C829.9,376.5,830.7,375.5,832,376z"/>
		<path class="st130" d="M1078,609c2-0.7,2.5-2.8,4-4c0,1,0,2,0,3c-2.5,0.8-2.7,4-5,5C1077.3,611.7,1077.7,610.3,1078,609z"/>
		<path class="st130" d="M1077,613c0,0.7,0,1.3,0,2c-1.3,1.3-2.7,2.7-4,4C1073.4,616.4,1074.6,614.3,1077,613z"/>
		<path class="st90" d="M846,367c-3.5,3.1-6.9,6.5-12,7C837.4,370.7,841.4,368.4,846,367z"/>
		<path class="st90" d="M832,376c-1,0.3-2,0.7-3,1c1.1-2,3-2.6,5-3C833.6,375,833,375.6,832,376z"/>
		<path class="st90" d="M828,378c-0.9,1.6-2,3-4,3C824.9,379.4,826,378.1,828,378z"/>
	</g>
</g>
</svg>
