<?xml version="1.0" encoding="utf-8"?>
<!-- Generator: Adobe Illustrator 21.1.0, SVG Export Plug-In . SVG Version: 6.00 Build 0)  -->
<svg version="1.1" id="Layer_1" xmlns="http://www.w3.org/2000/svg" xmlns:xlink="http://www.w3.org/1999/xlink" x="0px" y="0px"
	 viewBox="0 0 1920 1080" style="enable-background:new 0 0 1920 1080;" xml:space="preserve">
<style type="text/css">
	.st0{fill:#FFFFFF;}
</style>
<g>
	<g>
		<path class="st0" d="M611,842c0-200.7,0-401.3,0-602c233.3,0,466.7,0,700,0c0,200.7,0,401.3,0,602C1077.7,842,844.3,842,611,842z
			 M677.5,597.7c189.1,0,378,0,567,0c0-38.7,0-77,0-115.3c-189.2,0-378,0-567,0C677.5,521,677.5,559.3,677.5,597.7z"/>
		<path d="M677.5,597.7c0-38.5,0-76.7,0-115.3c188.9,0,377.7,0,567,0c0,38.3,0,76.7,0,115.3C1055.4,597.7,866.6,597.7,677.5,597.7z"
			/>
	</g>
</g>
</svg>
