<?xml version="1.0" encoding="utf-8"?>
<!-- Generator: Adobe Illustrator 21.1.0, SVG Export Plug-In . SVG Version: 6.00 Build 0)  -->
<svg version="1.1" id="Layer_1" xmlns="http://www.w3.org/2000/svg" xmlns:xlink="http://www.w3.org/1999/xlink" x="0px" y="0px"
	 viewBox="0 0 1920 1080" style="enable-background:new 0 0 1920 1080;" xml:space="preserve">
<style type="text/css">
	.st0{fill:#FFFFFF;}
</style>
<g>
	<g>
		<path d="M1066,258c8.6,0.6,17.2,1.4,25.8,1.9c17,1,33.6,4,50,8.9c14.6,4.3,25.2,12.2,30.4,27.4c6.6,19.3,14.6,38.2,21.8,57.4
			c1.3,3.5,2.8,5.2,6.7,4.8c4-0.4,8-0.1,12-0.1c10.2,0.1,18.8,6,22.4,15.4c2,5.3,3.9,10.6,5.6,16c3.5,11.5-2.2,19.1-14.1,19.1
			c-4.5,0-9,0-14.3,0c2.2,5.7,4.6,10.7,6.1,15.9c1.9,6.6,4.2,13.5,4.3,20.3c0.4,39.2,0.2,78.3,0.2,117.5c0,11.2-8.9,18.5-20.1,16.5
			c-1.1-0.2-2.4-1.5-2.9-2.7c-2.2-4.9-4.3-9.8-6.1-14.8c-6.3-17.1-18.5-28.1-35.2-34.5c-19.4-7.5-39.6-11.4-60.3-13
			c-3.8-0.3-7.6-0.7-11.8-1c0.8-2.8,2.1-5.3,2-7.8c-0.1-7.2-0.1-14.6-1.3-21.7c-1-5.7-3.3-11.1-5.5-16.5
			c-7.4-18.5-20.9-29.7-40.9-32.2c-3.7-0.5-5.3-1.9-6.6-5.3c-4.8-13.1-10-26-15.2-39.6c50.9,0.2,101.3-1.8,151.3-14.5
			c-1.2-4.3-2-8.2-3.4-11.9c-7.7-19.4-15.4-38.9-23.8-58.1c-1.3-3-5.4-5.9-8.8-6.7c-12.8-3.3-25.8-6.9-38.9-8.4
			c-38.7-4.3-77.5-4-116.3-0.9c-13.7,1.1-27.3,4-40.8,6.8c-8,1.6-13.9,6.2-17,14.5c-2.8,7.6-6.9,14.8-10.6,22
			c-0.6,1.1-1.9,2.7-2.9,2.7c-9.1-0.2-18.2-0.7-28.6-1.2c6.9-16.4,13.1-32.1,20.3-47.5c3.6-7.7,11.3-11.5,19-14.6
			c17.8-7.1,36.2-11,55.4-12.1c9.3-0.5,18.6-1.3,27.9-2C1023.3,258,1044.7,258,1066,258z M1140.3,484.1c0,0.1,0,0.1,0,0.2
			c4.3,0,8.7,0.4,13-0.1c7.7-1,15.5-1.9,22.9-3.9c6.1-1.7,9.4-6.4,9.1-13.2c-0.2-4.5,0-9-0.1-13.5c-0.1-13.2-5.8-18-18.9-16.2
			c-1.2,0.2-2.3,0.4-3.4,0.7c-17.5,5.1-33.7,13.1-49.3,22.3c-6.6,3.9-8.5,9.5-6.4,15.8c2.1,6.3,7.5,7.6,13.2,7.9
			C1127,484.3,1133.6,484.1,1140.3,484.1z"/>
		<path d="M920,820.4c0,7.3,0.1,14.1,0,20.9c-0.1,10.1-6.5,16.6-16.6,16.6c-14,0.1-28,0.1-42,0c-10.2-0.1-16.6-6.4-16.6-16.6
			c-0.1-39.2-0.2-78.3,0.2-117.5c0.1-6.8,2.4-13.6,4.2-20.3c1.5-5.2,3.8-10.2,6-15.9c-5.6,0-10.4-0.3-15.2,0.1
			c-11.5,0.9-16.1-8.8-13.7-18c1.6-6.3,3.7-12.5,6.4-18.4c4.1-9.1,11.5-14,21.6-14.3c0.2,0,0.3,0,0.5,0c5.5-0.2,12.3,1.6,16-1.1
			c3.7-2.7,4.2-9.7,6.2-14.8c6.1-15.8,12.5-31.5,18.4-47.4c4.3-11.4,12.4-18.5,23.5-22.9c21.9-8.9,45-11.8,68.3-12.9
			c35.6-1.6,71.3-1.6,106.9,0.9c17.5,1.3,34.6,4.5,51.3,10c12.4,4.1,21.3,11.4,25.9,24.2c7.2,20,15.3,39.7,22.8,59.6
			c1.3,3.4,2.9,4.7,6.5,4.4c4-0.3,8-0.1,12-0.1c10.4,0.1,19.1,6.1,22.7,15.8c2,5.3,3.9,10.6,5.5,16c3.3,11.2-2.3,18.8-14,18.8
			c-4.5,0-9,0-14.4,0c2.3,5.8,4.7,10.9,6.2,16.2c1.8,6.3,4.1,12.8,4.2,19.3c0.4,39.5,0.2,79,0.2,118.5c0,9.7-6.6,16.2-16.4,16.3
			c-14.2,0.1-28.3,0.1-42.5,0c-9.8-0.1-16.1-6.6-16.2-16.4c-0.1-7,0-13.9,0-21.2C1071.8,820.4,996.2,820.4,920,820.4z M897.3,653.7
			c44.6,19.9,241.9,19.5,272.7-0.3c-0.1-0.6-0.2-1.3-0.4-1.9c-5.6-21.7-14.4-42.1-23.8-62.4c-3.1-6.7-7.5-10.9-14.2-12.8
			c-7-2-14.1-4-21.3-5.2c-32.2-5-64.7-5.7-97.2-4.4c-21.1,0.9-42.1,3-63.1,5.4c-14.4,1.6-25.2,7.8-31.5,22.8
			C910.3,614,902.4,633.2,897.3,653.7z M1140.1,763c6.3,0,12.7,0.5,18.9-0.2c6.2-0.7,12.4-2.2,18.3-4.2c4.6-1.5,7.8-5.2,7.8-10.5
			c0-6.5,0.2-13-0.1-19.5c-0.4-8-4.1-11.8-12.1-12.4c-2.8-0.2-5.7-0.3-8.4,0.4c-18.4,4.7-35.1,13.3-51.3,22.8
			c-6.4,3.8-8.1,9.2-6.2,15.4c1.9,6.1,7.1,7.7,12.5,8C1126.4,763.3,1133.3,763,1140.1,763z M925.3,764.1c10.3-0.7,19-0.6,27.4-2.2
			c8.8-1.7,11.6-12,5.8-18.9c-1.6-1.9-3.5-3.8-5.7-4.8c-15.2-7.1-30.4-14.2-45.9-20.6c-3.9-1.6-8.9-1.5-13.2-1.2
			c-6.9,0.5-10.1,4-10.7,10.9c-0.4,5.1-0.4,10.3-0.4,15.5c0,11.5,2.8,15.9,14.1,18.1C906.6,762.8,916.8,763.2,925.3,764.1z"/>
		<path d="M742.6,642.7c0,7.1,0,13.4,0,19.7c-0.1,11.9-6.1,17.9-17.8,18c-13.3,0.1-26.7,0.1-40,0c-11.4-0.1-17.6-6.3-17.6-17.7
			c0-38.3-0.2-76.7,0.2-115c0.1-7.3,2.5-14.6,4.5-21.7c1.4-5.2,3.7-10.2,5.8-15.9c-6.1,0-11.2,0-16.3,0c-9-0.1-15-7-12.8-15.9
			c1.8-7.2,4.1-14.5,7.3-21.2c4-8.4,11.1-13.1,20.8-13.1c5.7,0,11.3,0,16.9,0c6.2-16.4,12.3-32.6,18.5-48.8c2-5.1,4.3-10.1,6.2-15.3
			c4.1-10.9,11.9-17.7,22.4-22c19.8-8.1,40.5-11.6,61.8-12.8c36.1-2,72.3-2.1,108.4,0.1c18.7,1.1,37,4,54.9,9.7
			c13.7,4.3,23.6,11.8,28.6,26c6.9,19.8,15.1,39.1,22.4,58.7c1.3,3.4,2.8,4.7,6.4,4.4c4-0.3,8-0.1,12-0.1c10.7,0.1,19.2,6,22.9,16.1
			c1.9,5.2,3.7,10.3,5.3,15.6c3.3,10.8-2.5,17.9-13.6,18.7c-34.9,2.4-70.2,0.2-104.7,7c-14.1,2.8-27.9,7.7-41.3,13.1
			c-14.4,5.8-24.7,16.8-30.5,31.4c-6.2,15.4-12.2,30.9-18.3,46.4c-0.9,2.3-1.6,3.7-4.7,4c-17.6,1.6-30.5,10.8-38.9,26.1
			c-1.9,3.5-3.9,4.5-7.7,4.5c-18.3-0.2-36.7-0.1-55-0.1C746.9,642.7,745.1,642.7,742.6,642.7z M992.9,477.5
			c-0.8-3.1-1.2-4.7-1.6-6.3c-5.3-20.2-13.8-39.1-22.2-58.2c-3.8-8.6-9.5-13.7-18.1-15.3c-16.2-3-32.4-6.3-48.7-7.5
			c-35.3-2.6-70.6-2.5-105.8,0.9c-12.5,1.2-25,3.9-37.1,7.1c-4.7,1.2-10.3,4.7-12.6,8.8c-11.3,20.4-20.3,41.9-25.8,64.7
			c-0.4,1.5-0.6,3.1-1.2,5.8C811,496,901.5,496.2,992.9,477.5z M748.2,586.5c9.8-0.6,17.5-0.7,25.1-1.5c4.7-0.5,8.5-2.7,9.9-7.8
			c1.5-5.4,0.2-9.9-4-13.5c-2-1.7-4.2-3.4-6.5-4.5c-12.6-5.9-25.2-12.1-38.1-17.3c-5.1-2.1-11-2.8-16.5-2.9c-8.8-0.1-12.6,4-13,12.9
			c-0.3,6.1-0.1,12.3-0.1,18.5c0,4.4,2.2,7.8,5.9,9.8c3.2,1.7,6.7,3.4,10.2,3.8C730.8,585.2,740.6,585.8,748.2,586.5z"/>
		<path class="st0" d="M1140.3,484.1c-6.7,0-13.3,0.3-20-0.1c-5.6-0.3-11.1-1.6-13.2-7.9c-2.1-6.3-0.3-11.8,6.4-15.8
			c15.6-9.2,31.9-17.2,49.3-22.3c1.1-0.3,2.3-0.5,3.4-0.7c13.2-1.8,18.8,3,18.9,16.2c0,4.5-0.2,9,0.1,13.5c0.4,6.8-3,11.6-9.1,13.2
			c-7.5,2-15.2,3-22.9,3.9c-4.3,0.5-8.6,0.1-13,0.1C1140.3,484.2,1140.3,484.1,1140.3,484.1z"/>
		<path class="st0" d="M897.3,653.7c5.1-20.5,13-39.6,21.1-58.8c6.4-14.9,17.1-21.1,31.5-22.8c21-2.3,42-4.5,63.1-5.4
			c32.5-1.3,65-0.6,97.2,4.4c7.2,1.1,14.3,3.1,21.3,5.2c6.7,1.9,11,6.1,14.2,12.8c9.4,20.2,18.2,40.7,23.8,62.4
			c0.2,0.6,0.3,1.3,0.4,1.9C1139.2,673.2,941.9,673.5,897.3,653.7z"/>
		<path class="st0" d="M1140.1,763c-6.8,0-13.7,0.3-20.5-0.1c-5.5-0.3-10.7-1.9-12.5-8c-1.9-6.2-0.2-11.6,6.2-15.4
			c16.2-9.5,32.9-18.1,51.3-22.8c2.7-0.7,5.6-0.7,8.4-0.4c8,0.6,11.7,4.4,12.1,12.4c0.3,6.5,0.2,13,0.1,19.5c0,5.4-3.2,9-7.8,10.5
			c-5.9,2-12.1,3.5-18.3,4.2C1152.8,763.5,1146.4,763,1140.1,763z"/>
		<path class="st0" d="M925.3,764.1c-8.5-0.9-18.7-1.3-28.6-3.2c-11.3-2.2-14.2-6.5-14.1-18.1c0-5.2-0.1-10.3,0.4-15.5
			c0.6-6.9,3.8-10.4,10.7-10.9c4.4-0.3,9.3-0.5,13.2,1.2c15.5,6.4,30.7,13.5,45.9,20.6c2.2,1,4.1,2.9,5.7,4.8
			c5.8,6.9,3,17.2-5.8,18.9C944.3,763.5,935.5,763.3,925.3,764.1z"/>
		<path class="st0" d="M992.9,477.5c-91.4,18.7-181.9,18.5-273.2,0.1c0.5-2.7,0.8-4.2,1.2-5.8c5.5-22.8,14.4-44.3,25.8-64.7
			c2.3-4.1,7.9-7.6,12.6-8.8c12.2-3.2,24.6-5.9,37.1-7.1c35.2-3.4,70.6-3.5,105.8-0.9c16.3,1.2,32.6,4.5,48.7,7.5
			c8.6,1.6,14.2,6.6,18.1,15.3c8.5,19,16.9,38,22.2,58.2C991.7,472.8,992.1,474.4,992.9,477.5z"/>
		<path class="st0" d="M748.2,586.5c-7.7-0.7-17.4-1.3-27.1-2.6c-3.5-0.5-7-2.1-10.2-3.8c-3.7-2-5.9-5.4-5.9-9.8
			c0-6.2-0.2-12.3,0.1-18.5c0.4-8.9,4.2-13,13-12.9c5.5,0.1,11.4,0.8,16.5,2.9c12.9,5.3,25.5,11.4,38.1,17.3
			c2.4,1.1,4.5,2.8,6.5,4.5c4.2,3.6,5.5,8.1,4,13.5c-1.4,5.1-5.3,7.3-9.9,7.8C765.7,585.7,758,585.9,748.2,586.5z"/>
	</g>
</g>
</svg>
