<?xml version="1.0" encoding="utf-8"?>
<!-- Generator: Adobe Illustrator 21.1.0, SVG Export Plug-In . SVG Version: 6.00 Build 0)  -->
<svg version="1.1" id="Layer_1" xmlns="http://www.w3.org/2000/svg" xmlns:xlink="http://www.w3.org/1999/xlink" x="0px" y="0px"
	 viewBox="0 0 672 564" style="enable-background:new 0 0 672 564;" xml:space="preserve">
<style type="text/css">
	.st0{fill:#5C3B6D;}
	.st1{fill:#F4F4F4;}
	.st2{fill:#644176;}
	.st3{fill:#FEFEFE;}
	.st4{fill:#5C3A6D;}
	.st5{fill:#4E325B;}
	.st6{fill:#543363;}
	.st7{fill:#4E2E5C;}
	.st8{fill:#482D54;}
	.st9{fill:#ADA6B0;}
	.st10{fill:#432B4F;}
	.st11{fill:#4F345C;}
	.st12{fill:#3F274A;}
	.st13{fill:#452D51;}
	.st14{fill:#50355D;}
	.st15{fill:#553A62;}
</style>
<g>
	<g>
		<path class="st0" d="M284.2,190.4c1.1-0.9,2.3-1.8,3.4-2.6c10.4-12.4,23.2-21.6,38.2-27.6c10.4-4.2,21.2-4.9,32.3-4.8
			c14.5,0.1,27.3,5.6,40.2,11.2c0.7,0.1,1.4,0.4,2,0.8c4.2,4.2,10.3,6.4,12.9,12.3c8.9,9.8,15,21,17.6,34.1c0.6,3,1,6,0.8,9.1
			c-0.5,7.6-3.4,10.6-11,10.8c-6.6,0.2-13.2,0-19.8,0.1c-5.8,0-10.5-2-14-6.8c-2.4-3.4-5.3-6-10-4.4c-4.9,0.4-6.9,5.1-10.6,7.3
			c-16.7,5.4-17.8,4.9-25.9-11.1c-3-5.9-5.5-11.9-9.3-17.4c-1.8-2.6-2.5-5.2,1.3-6.9c3.5,0.4,5.4,2.9,6.9,5.5
			c2.7,4.7,6.7,5.9,11.9,5.9c19.2-0.2,38.3,0,57.5-0.1c8,0,8.8-1.5,6.1-8.7c-3-7.8-8.8-13.5-15-18.6c-29.6-24.6-70-21.1-96.8,6.2
			c-3,3.1-5.1,6.8-6.8,10.7c-1.3,3-3.5,6.6-0.2,9.1c3.2,2.4,7.2,1.6,10.8-0.1c1.9-1,3.1-2.9,4.7-4.3c2-1.6,4.1-2.9,5.6,0.5
			c0,6.4-3.6,11.6-5.2,17.4c-2.6,8.8-5.4,17.5-7.9,26.3c-1.5,5.7-4.9,8.2-10.8,7.8c-3.5-0.2-7.1,0-10.5,0.5c-8.7-1-8-8.4-10-13.7
			c1,5.4,2.7,11,4.1,16.7c0.6,2.5,1.7,4.9,0.8,7.5c-0.3,0.7-0.8,1.2-1.5,1.5c-6.9-5.2-7-13.5-7.9-20.5c-2.3-19,3.1-36.5,14-52.2
			C282.5,191.4,283.4,190.9,284.2,190.4z"/>
		<path class="st1" d="M284.2,190.4c-4.5,9.7-10,18.9-12.6,29.6c-3.9,15.7-2.2,30.3,4.6,44.7c4.3,3.9,5.4,9.6,8,14.4
			c1.3,2.5,2.9,4.8,4.5,7c1.2,1.6,2.5,3.2,3.1,5.1c1.4,5.8,4.9,10.5,8.4,15.1c5.9,8.4,11.6,17,16.9,25.8
			c5.7,9.3,11.9,18.2,18.6,26.8c4.1,6.9,9.4,12.8,14.3,19c2.8,3.6,4.9,3.4,7.6-0.1c2.1-2.7,4.1-5.7,6.9-7.9c3.6-2.3,5.4-5.9,7.5-9.4
			c2.6-4.8,6.9-8.4,9.4-13.3c0.3-0.6,0.7-1.1,1.1-1.6c2.8-3.5,5.8-6.8,7.6-10.9c1.8-3.1,3.4-6.4,5.9-9c10.1-11.7,18-24.8,25.2-38.5
			c0.3-0.6,0.6-1.2,1-1.8c7.3-12.8,14-25.9,16.3-40.5c2.5-15.9-2-30.9-9.6-44.9c-3.9-7.2-8.8-14-15.2-19.4
			c-2.8-6.2-9.5-8.2-13.8-12.9l0,0c-0.8-1.1-3.7,0.1-3-2.7c4.2-4.5,7.6-3.9,12.4,0c18.3,14.5,32.2,31.9,36.4,55.4
			c1.4,7.6,4,15.5-0.4,24c-3.1-5.2-0.4-10.6-2.5-15.2c0.6,6.4-2.7,13,2.3,19.2c2,2.5,0.2,5.9-0.7,8.8c-5.2,18.1-14.9,34.1-24.6,50
			c-14.8,24.4-32.4,46.8-49.7,69.5c-9,11.8-23.5,11.2-32.9-0.7c-24.6-31.2-46.9-63.8-64.3-99.6c-6-12.4-10.8-25.5-10.7-39.2
			c0.2-16.8,5-32.9,14.2-47.4C279.8,185.1,281.8,188.4,284.2,190.4z"/>
		<path class="st2" d="M397.1,165.1c1,0.9,2,1.8,3,2.7c-4.1,0.6-7.1-2.3-10.3-3.9c-16-8-33.3-9.6-50.1-6.7
			c-19.1,3.3-35.7,13.3-48.6,28.5c-1,1.1-1.8,2.2-3.4,2.1c10.1-15.1,24.8-24.2,41.4-29.8C352.6,150.2,375.4,153.5,397.1,165.1z"/>
		<path class="st3" d="M366.1,229.4c2.3-3.7,3.3-9.1,9.7-7.4c1.8,0.2,3,1.5,4,2.9c4.7,9,7.4,19,12.4,28c2.3-0.7,2-3.1,3-4.5
			c2.7-6.1,7.5-8.9,14.1-8.6c6.3,0.3,12.7-1.2,18.9,1.3c1,0.8,1.5,1.9,1.8,3c0.2,0.9,0.3,1.9,0.3,2.8c0.4,12.8-0.1,13.5-13,13.8
			c-3.8,0.1-6,1.2-7.4,5c-2.6,7.1-6,13.8-9.2,20.6c-1.7,3.7-3.6,7.2-8.4,7.7c-4.9-0.8-6.9-4.6-8.6-8.5c-2.1-4.8-3.6-9.7-6.2-14.3
			c-1.3-2.1-2.2-4.5-3-7.4c-5,14.8-10.5,28.7-15.3,42.8c-1.7,4.9-3.8,10-10.8,8.6c-3.3-1.3-5.5-3.7-6.4-7.1
			c-2.4-8.7-5.9-16.9-7.8-25.7c-2.1-8.6-4.4-17.2-7.9-25.4c-0.8-1.6-1.5-3.2-1.8-4.9c-0.6-3.9-1.9-7.7-2.4-11.1
			c-0.7,7.6-4.4,14.8-7.1,22.3c-1.3,3.5-4.2,5.6-8.1,6.1c-5.4,0.3-10.7,0.2-16.1,0.1c-9.5-0.1-11.9-2.9-10.8-12.4
			c0.2-1.9,0.6-3.7,1.9-5.2c3-2.9,6.8-1.5,10-1.2c5.9,0.5,8.7-1.4,10.4-7.3c4.2-14.3,8.2-28.7,14-42.4c0.7-4,3.1-5.8,7.1-5.6
			c4.2,1,5.4,4.6,6.8,8c6.8,21,14,41.8,21,63.2c2.1-2.8,2.3-5.7,3.6-8.2c2.8-7.1,4.9-14.5,7.4-21.7C363,234,363.4,231,366.1,229.4z"
			/>
		<path class="st2" d="M323.2,196.4c-3.3,0-5.2,2.1-7,4.4c-2.7-2.9-3.6-0.1-4.5,1.6c-3.8,7-10.5,6.1-16.3,4.9
			c-5.5-1.2-3.7-6.2-2.4-9.9c3.8-11,11.8-18.7,21.2-24.8c33.5-21.5,71.5-14.6,96.6,14.2c0.9,1.1,1.7,2.3,2.4,3.5
			c2.6,4.9,7.3,10.2,4.4,15.6c-2.4,4.5-8.6,1.8-13.1,1.8c-18,0.3-35.9-0.2-53.9,0.3c-6.1,0.1-10.5-1.1-13.1-6.9
			c-1.2-2.6-3.3-4.6-5.8-6C329.2,196.9,325.9,194.8,323.2,196.4z"/>
		<path class="st4" d="M378.6,224.9c-0.9-1-1.9-1.9-2.8-2.9c3.8-5.8,8.3-1.5,9.9,0.9c10.6,15.7,26.3,6.9,39.6,8.5
			c3.4,0.4,4.5-4.4,4.5-7.8c-0.3-15.1-5.4-28.4-15.7-39.5c-1.3-1.4-2.7-2.6-2.7-4.7c1-0.9,2-0.8,3-0.1c23.6,21,36.2,57.7,17,92.9
			c-2.8,5.1-4.6,10.8-8.4,15.3c-2.7-2.7-0.7-5.2,0.4-7.6c2.3-5.1,5.2-9.9,6.8-15.3c2-5.2,4.2-10.4,5.1-16c3.2-8.3,0.3-16.8,0.2-23.4
			c-0.3,5.4,2.9,13.9-7.3,17.2c-5.8,0-11.7,0.5-17.5-0.1c-7.2-0.7-12.2,1.4-14.7,8.4c-4.4-5-6.6-11.2-9.6-17
			C384.3,230.2,382.3,226.9,378.6,224.9z"/>
		<path class="st4" d="M323.2,196.4c2.1-4.8,5.6-1.7,8.5-1.4c-0.6,1.5-1.8,2.9-0.3,4.5c6.2,7.3,9,16.4,13.5,24.7
			c4.4,8,8.1,9.2,16.4,5.1c1.6-0.8,3.3-2.4,4.8,0.2c-2.6,10.1-6.1,19.9-10.1,29.5c-5.4-4.3-7.4-10.7-9.9-16.7
			c-4.7-10.7-8.3-21.9-12.9-32.7c-0.9-2.2-1-5.3-4.4-5.7C327.2,201.1,326.4,197.9,323.2,196.4z"/>
		<path class="st5" d="M281.9,251.8c1,5-2.2,11.9,1.6,14.5c3.5,2.4,9.9,0.7,15,0.8c3.5,0.1,7,0.2,10.5,0.2c0,3.3-2.6,2.7-4.5,2.8
			c-4,0.2-7.9-0.1-10.8,0.1c1.7-0.1,4.6,0,7.4,0c11.6,0,13.5-1.4,17.6-12.2c1.3-3.3,1.8-7.9,7.3-6.2c0.5,1.4,1,2.8,1.5,4.2
			c-7.7,15-10.3,21.8-27.5,20.3c-6.7-0.6-7.8,3.2-7.8,8.4c-1.2,1-2.6,1.1-4.1,0.7c-6.3-6.1-8.3-14.5-11.6-22.1
			c-1.5-6.2-2.8-12.5-4.7-18.6c-1.1-3.4-1.5-6.6-0.6-10.8c2.7,2.4,3.2,4.9,3.8,7.7C276,245.6,276.5,250.4,281.9,251.8z"/>
		<path class="st6" d="M276.6,263.2c3.7,7.1,7.5,14.2,11.2,21.3c0.9,1.2,0.8,2.3-0.3,3.4c-4.9-7.1-8.3-15-11.3-23
			C276.4,264.2,276.5,263.7,276.6,263.2z"/>
		<path class="st2" d="M414.3,179.2c-1,0-2,0.1-3,0.1c-2.1-5.5-9.5-5.7-11.3-11.5C405.6,170.6,410.3,174.5,414.3,179.2z"/>
		<path class="st7" d="M287.5,287.8c0.1-1.1,0.2-2.2,0.3-3.4c1.4,0,2.8,0,4.2,0c4.2,0.2,5.9,3.7,7.8,6.4c7.3,10.4,17.9,11,29,9.7
			c4.6-0.5,4.8-4.1,4.6-8c-0.2-3.8-2.7-8.3,2.6-10.9c1.6,9,6.6,17,7.8,26.3c0.3,2.3,3.3,4.2,5.1,6.3c5.6,3.1,8.8,2.2,11.6-3.6
			c2.9-6,4-12.5,5.9-18.8c1.5-4.9,3-9.9,4.7-14.7c1.2-3.5,2.7-7.2,7.6-6.9c2.4,5.3,5,10.5,7.2,15.9c1.2,3,3,5.2,5.7,6.8
			c5.9,3.8,8.5-0.3,10.7-4.6c3.1-6,4.9-12.6,8.1-18.7c3.2-6.1,8.3-8.6,15-8.1c2.3,0.2,4.8,0.3,5.8,3.1c0.3,6.7-4.7,11.3-6.8,17.1
			c-0.7,1.9-2.1,3.6-1.5,5.8c0,0,0-0.1,0-0.1c-3.7,3.5-4.3,9.1-8.2,12.5c-9.3,8.9-15.8,20-24.5,29.4c-0.6,0.7-1.2,1.5-1.8,2.2
			c-11.6,14.3-26.5,20-44.6,16.8c-10.3-1.8-16.1-10.3-22.9-17c-8.7-8.4-14.9-19-23.2-27.6c-2.7-3.9-5.5-7.7-7-12.2
			C289.6,290.3,288.5,289,287.5,287.8z"/>
		<path class="st8" d="M297.7,302.9c7.7,2.9,10.2,10.7,14.8,16.3c7.4,8.9,15.5,16.9,24,24.6c1.3,1.2,3.3,2,5,2.3
			c8.6,1.2,17.5,2.4,25.8-0.6c8.8-3.1,15-10.1,21.2-16.9c8.8-9.7,15.1-21.6,25.5-29.9c1.8,2.1-0.2,3.3-1.1,4.8
			c-5.2,7.9-10.4,15.9-15.8,23.7c-1.9,2.8-3.9,5.7-5.8,8.5c-2.8,3.8-6.3,7.1-8.3,11.5l0.1-0.1c-3.7,4.8-7.9,9.2-10.8,14.5
			c-1.9,3.3-3.9,6.6-6.6,9.4c-2.9,3.4-5.8,6.8-8.6,10.3c-2.3,2.9-4.3,3.4-6.6,0.1c-5.1-7.4-11.5-13.7-15.9-21.6
			c-6.2-9-11.7-18.6-19.1-26.8c-5.5-8.5-11.1-16.9-16.6-25.4C298.6,305.9,296.9,304.8,297.7,302.9z"/>
		<path class="st4" d="M397.1,327.1c2.9-7.7,8.7-13.6,12.7-20.6c1.5-2.6,4-4.6,4.3-7.8c4.4-2.6,3.6-9.3,8.8-11.2
			C415.7,301.6,407.7,315.1,397.1,327.1z"/>
		<path class="st7" d="M315.5,332.9c5,1.4,6.4,6.1,8.4,9.9c3.2,5.9,9.7,9.7,10.6,17C327.3,351.4,321.2,342.3,315.5,332.9z"/>
		<path class="st7" d="M371.6,361.2c3-5.4,5.9-10.9,11.5-14.2c-2.1,5.6-6.7,9.5-10,14.3C372.5,361.9,372,361.8,371.6,361.2z"/>
		<path class="st3" d="M267.5,226.3c0,6.9,0,13.9,0,20.8c-0.2,0-0.4,0-0.6,0c0-6.9,0-13.9,0-20.8
			C267.1,226.3,267.3,226.3,267.5,226.3z"/>
		<path class="st6" d="M297.7,302.9c0.4,1.5,0.8,3.1,1.2,4.6c-3.6-4.9-7.8-9.5-8.3-16C293,295.3,295.3,299.1,297.7,302.9z"/>
		<path class="st7" d="M383,347.1c0.5-5.5,4.3-8.5,8.3-11.5C389.4,340,386.8,344,383,347.1z"/>
		<path class="st9" d="M371.6,361.2c0.5,0,1,0,1.5,0c-1.3,4.1-3.5,7.5-7.4,9.7C366.6,367.1,370,364.7,371.6,361.2z"/>
		<path class="st6" d="M335.9,281.6c-2.4,3.5-1.4,7.2-0.7,10.9c1.4,7.1-0.9,9.9-8.2,10.4c-12.8,1-23.9-1.7-30.9-13.7
			c-1.1-1.8-2.7-3.2-4.1-4.8c-3.5-8.5-2.5-10.4,6.9-9.8c11.3,0.7,20-1.7,23.7-13.9c0.6-1.9,3.2-3.2,5-4.8
			C331.2,264.2,333.7,272.8,335.9,281.6z"/>
		<path class="st10" d="M431.2,264.6c-10.6-3.6-15.8-1.5-20.5,8.4c-2.9,6.2-5,12.7-8.1,18.7c-2.9,5.6-7.3,6.5-11.4,2.9
			c-0.2-0.2,0.2-1.1,0.4-1.7c2.5-0.8,4.9-1.7,6-4.4c3.8-9.3,9.3-17.9,11.6-27.7c0.4-1.6,0.8-1.8,2-1.8c0.7,0,1.4,0,2.1,0
			c4.7-0.1,10.6,1.4,13.7-0.8c3.5-2.5,0.4-8.8,1.5-13.3c4-1,6,1.9,8.2,4.3C435.9,254.5,435,260.1,431.2,264.6z"/>
		<path class="st11" d="M328.7,203.9c2.3-5.6,3.7-0.2,4.1,0.7c2.2,4.7,4.1,9.5,5.9,14.3c5,13.7,10.4,27.2,17.2,40
			c-1.3,4.1-2.6,8.3-3.9,12.4c-0.5-0.1-1-0.1-1.5-0.2C343.3,248.7,336,226.3,328.7,203.9z"/>
		<path class="st12" d="M378.6,270.2c-7.8,4.2-7,12.9-9.8,19.6c-2.9,6.9-4.1,14.5-6.7,21.6c-2.7,7.2-8.4,9.1-13.1,5.2
			c-0.8-0.6-1.2-1.5-0.3-2.3c3.8,0.2,6.2-1.4,7.5-5c5.2-14.8,10.4-29.6,15.8-44.4c0.8-2.1-0.1-3.9-0.2-6.5
			C377.3,261.1,376.4,266.6,378.6,270.2z"/>
		<path class="st13" d="M326.1,251.8c-4.3,0.4-4.8,3.8-5.7,7c-2.8,10.6-6.5,13.3-17.4,12.9c-5.4-0.2-10.8,0.7-16.1-0.7
			c-0.3-0.1-0.5-0.7-1.1-1.5c7.7-2.2,15.8,1.4,23.1-2.2c1.5-1.1,3.5-1.7,4-3.7c2.5-9.5,8.6-18.1,7.5-28.8
			C323.3,240.1,325.3,245.7,326.1,251.8z"/>
		<path class="st14" d="M378.6,224.9c2.8-1.8,4.7,0.5,5.7,2.2c4.3,7.7,9.1,15.1,11.6,23.6c-0.6,2.5-1.2,4.9-3.9,7.2
			C387.4,246.7,383,235.8,378.6,224.9z"/>
		<path class="st15" d="M436.8,249c-2.7-1.4-5.5-2.9-8.2-4.3c-0.2-0.8-0.3-1.6-0.5-2.4c9.4-6.9,4.6-17.5,7.3-26.3
			C436,227.1,441.3,237.8,436.8,249z"/>
	</g>
</g>
</svg>
